<svg width="1280" height="1878" fill="none" xmlns="http://www.w3.org/2000/svg"><path d="M65.85 492.04c13.58 99.69-37.72 91.63-65.07 75.13v1224.16c0 239.23-13 135.56 0 202.94 7.89 40.9 50.92-157.12 39.6-202.94-11.3-45.81-8.48-131.94 41.03-150.27 49.51-18.33 56.59-60.47 82.05-113.62 25.46-53.14 90.53-157.6 248.97-76.97 158.44 80.64 263.12 7.33 338.1-65.97 148.53-145.22 400.45.71 470.46 125.12 36.74 65.28-63.48 399.1 0 430.23 31.72 15.55 60.01 301.38 60.01-15.55V471.88c-.94 13.44-7.92 36.29-28.29 20.16-59.98-39.59-35.37-160.66-15.56-216.25 10.84-53.14 14.43-177.75-58-251.06-85.18-86.2-335.84 80.64-481.25 80.64-158.87 0-235.96-47.65-330.74-91.63S197.41 44.89 167.7 105.37c-29.7 60.47-31.12 84.3-76.39 111.78C2.2 259.3 48.88 367.42 65.85 492.04Z" fill="#FEF3E4"/></svg>