<svg width="768" height="1504" fill="none" xmlns="http://www.w3.org/2000/svg"><path d="M-34.21 275.27c9.92 55.78-27.58 51.27-47.57 42.04v684.86c0 133.84-9.5 476.2 0 513.9 5.77 22.88 55.84-94.93 47.57-120.56-8.27-25.63-24.82-119.35 11.37-129.6 36.2-10.25 41.36-33.83 59.97-63.56 18.62-29.74 66.18-88.17 181.99-43.06 115.8 45.11 192.32 4.1 247.13-36.91 108.57-81.25 292.71.4 343.89 70 26.85 36.52-46.4 217.07 0 234.48 23.18 8.7 43.86 168.61 43.86-8.7V264c-.69 7.51-5.79 20.3-20.68 11.27-43.84-22.14-25.85-89.88-11.37-120.97 7.92-29.74 10.54-99.45-42.4-140.46-62.26-48.23-245.48 45.1-351.77 45.1-116.12 0-172.47-26.65-241.75-51.25C116.75-16.92 61.95 25.1 40.23 58.95 18.54 92.78 17.5 106.1-15.6 121.49c-65.14 23.58-31.02 84.07-18.61 153.78Z" fill="#FEF3E4"/></svg>