<svg width="320" height="1337" fill="none" xmlns="http://www.w3.org/2000/svg"><path d="M14.85 105.13c3.42 21.3-9.5 19.57-16.4 16.05v261.55c0 51.11-3.27 938.75 0 953.15 2 8.74 19.25-36.25 16.4-46.04-2.85-9.79-8.55-45.58 3.92-49.49 12.47-3.92 14.26-12.93 20.67-24.28 6.42-11.35 22.81-33.67 62.73-16.44 39.92 17.22 66.29 1.56 85.18-14.1 37.42-31.03 100.9.15 118.53 26.73 9.26 13.95-16 82.9 0 89.55 8 3.32 15.12 64.39 15.12-3.32V100.82c-.24 2.87-2 7.75-7.13 4.3-15.1-8.45-8.9-34.32-3.92-46.2 2.73-11.35 3.64-37.97-14.61-53.64-21.46-18.41-84.61 17.23-121.25 17.23-40.02 0-59.45-10.18-83.33-19.57C66.9-6.46 48 9.59 40.51 22.5c-7.48 12.92-7.84 18.01-19.24 23.89-22.46 9-10.7 32.1-6.42 58.73Z" fill="#FEF3E4"/></svg>