<svg width="768" height="622" fill="none" xmlns="http://www.w3.org/2000/svg"><path d="M29.93 591.65c0 13.82-19.02 30.9-30.93 30.34V0h768.87v202.72c.3 121.04 0 354.4 0 376.32 0 13.74-20.97 7.95-37.99-14.16-17.01-22.11 14.47-92.7 17.02-113.1 2.55-20.42-5.1-62.94-84.22-114.82-79.11-51.88-194.8-5.95-256.05 24.66-61.25 30.62-113.32-11.9-196.68-37.42-83.37-25.51-114 15.31-125.05 37.42-11.06 22.11-10.9 81.65-34.71 90.15-23.82 8.5-33.18 31.47-27.22 64.63 5.95 33.17 6.96 57.4 6.96 75.25Z" fill="#FEF3E4"/></svg>