<svg aria-hidden="true" style="position: absolute; width: 0; height: 0; overflow: hidden;" version="1.1" xmlns="http://www.w3.org/2000/svg" xmlns:xlink="http://www.w3.org/1999/xlink">
<defs>
<symbol id="star-icon" viewBox="0 0 34 32">
<path stroke="#ab816c" style="stroke: var(--color1, #ab816c)" stroke-linejoin="miter" stroke-linecap="butt" stroke-miterlimit="4" stroke-width="1.6842" d="M16.043 1.817c0.105-0.353 0.428-0.607 0.809-0.607s0.703 0.253 0.807 0.601l0.002 0.006 2.545 7.887c0.337 1.028 1.314 1.736 2.41 1.736h8.291c0.458 0.009 0.826 0.383 0.826 0.842 0 0.275-0.132 0.519-0.335 0.673l-0.002 0.002-6.707 4.887c-0.629 0.465-1.032 1.204-1.032 2.038 0 0.277 0.045 0.544 0.127 0.794l-0.005-0.018 2.561 7.887c0.022 0.072 0.035 0.155 0.035 0.242 0 0.465-0.377 0.843-0.843 0.843-0.184 0-0.354-0.059-0.493-0.159l0.002 0.002-6.707-4.853c-0.411-0.3-0.926-0.481-1.483-0.481s-1.072 0.18-1.49 0.486l0.007-0.005-6.707 4.853c-0.136 0.098-0.306 0.157-0.49 0.157-0.465 0-0.843-0.377-0.843-0.843 0-0.086 0.013-0.169 0.037-0.248l-0.002 0.006 2.561-7.887c0.080-0.236 0.127-0.508 0.127-0.79 0-0.835-0.405-1.576-1.030-2.036l-0.007-0.005-6.707-4.853c-0.206-0.155-0.337-0.399-0.337-0.674 0-0.465 0.377-0.843 0.843-0.843h8.257c0.006 0 0.013 0 0.021 0 1.119 0 2.068-0.727 2.401-1.735l0.005-0.018 2.545-7.887z"></path>
</symbol>
<symbol id="burger-menu-icon" viewBox="0 0 60 32">
<path d="M2.001-0.002h56.022c1.105 0 2.001 0.896 2.001 2.001s-0.896 2.001-2.001 2.001h-56.022c-1.105 0-2.001-0.896-2.001-2.001s0.896-2.001 2.001-2.001z"></path>
<path d="M2.001 14.004h56.022c1.105 0 2.001 0.896 2.001 2.001s-0.896 2.001-2.001 2.001h-56.022c-1.105 0-2.001-0.896-2.001-2.001s0.896-2.001 2.001-2.001z"></path>
<path d="M2.001 28.009h56.022c1.105 0 2.001 0.896 2.001 2.001s-0.896 2.001-2.001 2.001h-56.022c-1.105 0-2.001-0.896-2.001-2.001s0.896-2.001 2.001-2.001z"></path>
</symbol>
<symbol id="chat-icon" viewBox="0 0 32 32">
<path fill="#674d40" style="fill: var(--color3, #674d40)" d="M24.626 14.945c0-6.71-6.147-11.103-12.306-11.103-6.185 0-12.319 4.418-12.319 11.103 0 2.536 0.96 4.994 2.715 6.966 0.077 0.077 0.102 0.192 0.077 0.295-0.546 1.979-1.371 3.71-2.444 5.255l0.037-0.056c-0.095 0.14-0.152 0.313-0.152 0.499 0 0.13 0.028 0.253 0.077 0.365l-0.002-0.006c0.128 0.256 0.359 0.435 0.627 0.435h0.013c2.625-0.077 5.66-0.922 7.53-3.048 0.047-0.052 0.115-0.085 0.191-0.085 0.023 0 0.046 0.003 0.067 0.009l-0.002-0c1.153 0.32 2.356 0.474 3.573 0.474 6.172 0 12.307-4.418 12.307-11.103zM8.964 24.536c-0.087-0.025-0.187-0.039-0.291-0.039-0.334 0-0.633 0.149-0.835 0.383l-0.001 0.001c-1.87 2.126-4.943 2.6-6.403 2.715 0.679-1.050 1.754-2.984 2.254-5.11 0.128-0.474 0-0.999-0.32-1.345-1.5-1.625-2.423-3.803-2.433-6.196v-0.002c0-5.532 5.11-10.027 11.384-10.027s11.372 4.495 11.372 10.027-5.097 10.027-11.372 10.027c-1.153 0-2.267-0.141-3.355-0.435z"></path>
<path fill="#674d40" style="fill: var(--color3, #674d40)" d="M27.648 23.883c2.582-1.43 4.314-4.118 4.367-7.215l0-0.007c0-4.162-3.278-7.709-7.786-8.452-0.256-0.038-0.499 0.166-0.525 0.461-0.038 0.295 0.128 0.563 0.384 0.615 4.059 0.653 6.992 3.765 6.992 7.376-0.062 2.708-1.589 5.045-3.816 6.256l-0.038 0.019c-0.388 0.255-0.64 0.688-0.64 1.181 0 0.094 0.009 0.186 0.027 0.276l-0.001-0.009c0.23 1.242 0.717 2.382 1.114 3.15-2.779-0.525-3.829-2.049-4.162-2.715-0.182-0.38-0.559-0.64-0.997-0.653l-0.002-0h-0.038c-0.512 0-1.037-0.038-1.537-0.128-0.256-0.038-0.512 0.166-0.538 0.461-0.038 0.295 0.141 0.563 0.397 0.602 0.551 0.090 1.114 0.128 1.678 0.128h0.038c0.077 0 0.154 0.051 0.192 0.128 1.281 2.536 4.188 3.176 5.378 3.33 0.269 0.038 0.512-0.102 0.666-0.359 0.128-0.256 0.128-0.576 0-0.832-0.563-0.959-1.005-2.072-1.266-3.253l-0.014-0.077c-0.004-0.017-0.006-0.036-0.006-0.056 0-0.097 0.054-0.181 0.133-0.225l0.001-0.001zM5.020 13.024c-0.896 0-1.626 0.832-1.626 1.857s0.73 1.87 1.626 1.87c0.896 0 1.626-0.832 1.626-1.87 0-1.024-0.73-1.857-1.626-1.857zM5.020 15.674c-0.384 0-0.692-0.359-0.692-0.794 0-0.423 0.307-0.781 0.692-0.781s0.692 0.359 0.692 0.781c0 0.435-0.32 0.794-0.692 0.794zM9.656 13.024c-0.896 0-1.626 0.832-1.626 1.857s0.73 1.87 1.626 1.87c0.896 0 1.626-0.832 1.626-1.87 0-1.024-0.73-1.857-1.626-1.857zM9.656 15.674c-0.384 0-0.692-0.359-0.692-0.794 0-0.423 0.307-0.781 0.692-0.781s0.692 0.359 0.692 0.781c0 0.435-0.307 0.794-0.692 0.794zM14.291 13.024c-0.896 0-1.626 0.832-1.626 1.857s0.73 1.87 1.626 1.87c0.896 0 1.626-0.832 1.626-1.87 0-1.024-0.73-1.857-1.626-1.857zM14.291 15.674c-0.384 0-0.692-0.359-0.692-0.794 0-0.423 0.307-0.781 0.692-0.781s0.692 0.359 0.692 0.781c0 0.435-0.307 0.794-0.692 0.794zM18.927 13.024c-0.896 0-1.626 0.832-1.626 1.857s0.73 1.87 1.626 1.87c0.896 0 1.626-0.832 1.626-1.87 0-1.024-0.73-1.857-1.626-1.857zM18.927 15.674c-0.384 0-0.692-0.359-0.692-0.794 0-0.423 0.32-0.781 0.692-0.781 0.384 0 0.692 0.359 0.692 0.781 0 0.435-0.307 0.794-0.692 0.794z"></path>
</symbol>
<symbol id="chef-hat-icon" viewBox="0 0 32 32">
<path fill="#674d40" style="fill: var(--color3, #674d40)" d="M23.051 8.58c-0.12-0.008-0.224-0.066-0.294-0.153l-0.001-0.001c-0.079-0.093-0.127-0.213-0.128-0.346v-0c-0.017-1.92-0.726-3.67-1.891-5.017l0.008 0.010c-1.073-1.254-2.65-2.051-4.414-2.075l-0.004-0c-1.639 0-3.227 0.743-4.405 2.075-1.153 1.334-1.863 3.079-1.882 4.99l-0 0.004c0 0.128-0.051 0.256-0.128 0.346-0.073 0.091-0.183 0.15-0.307 0.154l-0.001 0c-0.124-0.004-0.234-0.063-0.307-0.153l-0.001-0.001c-0.079-0.093-0.127-0.213-0.128-0.346v-0c0.010-2.194 0.818-4.197 2.148-5.736l-0.009 0.011c1.222-1.42 3.014-2.32 5.016-2.343l0.004-0c1.882 0 3.688 0.845 5.020 2.356 1.321 1.528 2.128 3.531 2.139 5.722v0.002c0 0.128-0.038 0.256-0.128 0.346-0.070 0.088-0.175 0.146-0.293 0.154l-0.001 0z"></path>
<path fill="#674d40" style="fill: var(--color3, #674d40)" d="M24.318 19.747c-0.125-0.002-0.235-0.061-0.307-0.153l-0.001-0.001c-0.080-0.092-0.128-0.212-0.128-0.344 0-0.001 0-0.002 0-0.002v0c0-0.128 0.038-0.256 0.128-0.346 0.070-0.088 0.175-0.146 0.293-0.154l0.001-0c1.639 0 3.201-0.756 4.367-2.075 1.149-1.34 1.848-3.095 1.848-5.012 0-1.925-0.704-3.685-1.869-5.037l0.008 0.010c-1.079-1.249-2.666-2.034-4.435-2.034-0.668 0-1.309 0.112-1.907 0.318l0.041-0.012c-0.031 0.009-0.068 0.015-0.105 0.015-0.080 0-0.155-0.025-0.216-0.067l0.001 0.001c-0.104-0.063-0.182-0.161-0.217-0.278l-0.001-0.003c-0.011-0.042-0.018-0.090-0.018-0.139 0-0.089 0.021-0.173 0.057-0.248l-0.001 0.003c0.052-0.108 0.142-0.19 0.253-0.23l0.003-0.001c0.627-0.216 1.35-0.341 2.102-0.341 2.019 0 3.828 0.898 5.049 2.317l0.007 0.009c1.315 1.527 2.116 3.529 2.116 5.719 0 2.183-0.796 4.179-2.114 5.716l0.010-0.012c-1.203 1.425-2.975 2.336-4.961 2.382l-0.008 0zM8.349 19.747c-1.994-0.046-3.766-0.957-4.961-2.372l-0.008-0.010c-1.305-1.526-2.1-3.522-2.1-5.704 0-2.189 0.799-4.191 2.122-5.731l-0.010 0.012c1.229-1.429 3.039-2.329 5.059-2.329 0.756 0 1.482 0.126 2.159 0.358l-0.047-0.014c0.114 0.047 0.203 0.133 0.255 0.24l0.001 0.003c0.030 0.066 0.047 0.143 0.047 0.223 0 0.118-0.037 0.227-0.1 0.316l0.001-0.002c-0.034 0.051-0.077 0.094-0.126 0.127l-0.002 0.001c-0.058 0.038-0.13 0.060-0.206 0.060-0.045 0-0.089-0.008-0.13-0.022l0.003 0.001c-0.554-0.192-1.192-0.302-1.857-0.302-1.774 0-3.364 0.79-4.437 2.036l-0.006 0.008c-1.157 1.342-1.862 3.103-1.862 5.029 0 1.912 0.695 3.661 1.845 5.009l-0.009-0.011c1.059 1.25 2.616 2.048 4.36 2.087l0.007 0c0.061 0 0.118 0.014 0.169 0.039l-0.002-0.001c0.051 0.013 0.102 0.051 0.141 0.102 0.076 0.094 0.122 0.214 0.122 0.346s-0.046 0.252-0.123 0.347l0.001-0.001c-0.038 0.047-0.085 0.086-0.138 0.114l-0.002 0.001c-0.049 0.024-0.106 0.038-0.166 0.038h-0z"></path>
<path fill="#674d40" style="fill: var(--color3, #674d40)" d="M24.318 32.015h-15.969c-0.123-0.001-0.232-0.055-0.307-0.14l-0-0c-0.080-0.093-0.128-0.215-0.128-0.348 0-0.004 0-0.007 0-0.011v0.001-12.268c0-0.128 0.051-0.256 0.128-0.346 0.075-0.086 0.185-0.14 0.307-0.141h0c0.115 0 0.23 0.051 0.307 0.128 0.077 0.102 0.128 0.23 0.128 0.359v11.781h15.098v-11.781c0-0.128 0.051-0.256 0.128-0.346 0.075-0.086 0.185-0.14 0.307-0.141h0c0.102 0 0.218 0.051 0.295 0.128 0.090 0.102 0.128 0.23 0.128 0.359v12.268c0 0.128-0.038 0.256-0.128 0.359-0.070 0.080-0.169 0.133-0.28 0.141l-0.001 0z"></path>
<path fill="#674d40" style="fill: var(--color3, #674d40)" d="M24.075 27.878h-15.956c-0.122-0.001-0.232-0.055-0.307-0.14l-0-0c-0.079-0.093-0.127-0.213-0.128-0.346v-0c0-0.128 0.051-0.256 0.128-0.359 0.075-0.086 0.185-0.14 0.307-0.141h15.956c0.115 0 0.23 0.051 0.307 0.141 0.077 0.102 0.128 0.218 0.128 0.359 0 0.128-0.051 0.256-0.128 0.346-0.075 0.086-0.185 0.14-0.307 0.141h-0z"></path>
</symbol>
<symbol id="clock-icon" viewBox="0 0 32 32">
<path fill="#674d40" style="fill: var(--color3, #674d40)" d="M16.007 0c-8.836 0-16.007 7.171-16.007 16.007s7.171 16.007 16.007 16.007 16.007-7.171 16.007-16.007-7.171-16.007-16.007-16.007zM16.007 30.952c-8.251-0.007-14.937-6.694-14.945-14.944v-0.001c0.415-7.928 6.944-14.2 14.938-14.2s14.524 6.271 14.937 14.163l0.002 0.037c0 8.234-6.697 14.945-14.932 14.945z"></path>
<path fill="#674d40" style="fill: var(--color3, #674d40)" d="M16.545 13.882v-5.404c0-0.297-0.241-0.538-0.538-0.538s-0.538 0.241-0.538 0.538v5.404c-0.743 0.192-1.332 0.781-1.524 1.537h-3.803c-0.025-0.004-0.054-0.006-0.083-0.006-0.297 0-0.538 0.241-0.538 0.538s0.241 0.538 0.538 0.538c0.029 0 0.058-0.002 0.086-0.007l-0.003 0h3.803c0.243 0.934 1.079 1.612 2.073 1.612 1.181 0 2.139-0.957 2.139-2.139 0-0.994-0.678-1.829-1.597-2.069l-0.015-0.003zM16.007 17.006c-0.591 0-1.069-0.479-1.069-1.069s0.479-1.069 1.069-1.069v0c0.591 0 1.069 0.479 1.069 1.069s-0.479 1.069-1.069 1.069v0zM16.007 5.276c0.295 0 0.538-0.243 0.538-0.538v-0.538c0-0.297-0.241-0.538-0.538-0.538s-0.538 0.241-0.538 0.538v0.538c0 0.295 0.243 0.538 0.538 0.538zM16.007 26.611c-0.297 0-0.538 0.241-0.538 0.538v0 0.538c0 0.297 0.241 0.538 0.538 0.538s0.538-0.241 0.538-0.538v-0.538c0-0.297-0.241-0.538-0.538-0.538v0zM27.75 15.406h-0.538c-0.297 0-0.538 0.241-0.538 0.538s0.241 0.538 0.538 0.538h0.538c0.297 0 0.538-0.241 0.538-0.538s-0.241-0.538-0.538-0.538v0zM4.802 15.406h-0.538c-0.297 0-0.538 0.241-0.538 0.538s0.241 0.538 0.538 0.538h0.538c0.297 0 0.538-0.241 0.538-0.538s-0.241-0.538-0.538-0.538v0zM23.934 7.261l-0.384 0.384c-0.096 0.097-0.155 0.231-0.155 0.378 0 0.298 0.241 0.539 0.539 0.539 0.15 0 0.286-0.062 0.384-0.161l0-0 0.371-0.384c0.096-0.097 0.155-0.231 0.155-0.378 0-0.298-0.241-0.539-0.539-0.539-0.15 0-0.286 0.062-0.384 0.161l-0 0zM7.709 23.486l-0.384 0.384c-0.096 0.097-0.155 0.231-0.155 0.378 0 0.298 0.241 0.539 0.539 0.539 0.15 0 0.286-0.062 0.384-0.161l0-0 0.371-0.384c0.096-0.097 0.155-0.231 0.155-0.378 0-0.298-0.241-0.539-0.539-0.539-0.15 0-0.286 0.062-0.384 0.161l-0 0zM24.306 23.486c-0.097-0.096-0.231-0.155-0.378-0.155-0.298 0-0.539 0.241-0.539 0.539 0 0.15 0.062 0.286 0.161 0.384l0 0 0.384 0.371c0.097 0.096 0.23 0.155 0.378 0.155s0.281-0.059 0.378-0.155l-0 0c0.1-0.098 0.161-0.234 0.161-0.384s-0.062-0.286-0.161-0.384l-0-0-0.384-0.371zM8.081 7.261c-0.097-0.096-0.231-0.155-0.378-0.155-0.298 0-0.539 0.241-0.539 0.539 0 0.15 0.062 0.286 0.161 0.384l0 0 0.384 0.371c0.097 0.096 0.231 0.155 0.378 0.155s0.281-0.059 0.378-0.155l-0 0c0.1-0.098 0.161-0.234 0.161-0.384s-0.062-0.286-0.161-0.384l-0-0-0.384-0.371z"></path>
</symbol>
<symbol id="close-icon" viewBox="0 0 32 32">
<path d="M30.351 32.004c0.902-0.015 1.627-0.75 1.627-1.653 0-0.45-0.18-0.858-0.471-1.156l0 0-28.679-28.715c-0.305-0.387-0.775-0.634-1.302-0.634-0.913 0-1.654 0.74-1.654 1.654 0 0.531 0.251 1.004 0.64 1.307l0.004 0.003 28.697 28.715c0.32 0.32 0.747 0.48 1.156 0.48z"></path>
<path d="M1.654 32.004c0.409 0 0.836-0.16 1.156-0.48l28.715-28.715c0.215-0.276 0.344-0.628 0.344-1.010 0-0.913-0.74-1.654-1.654-1.654-0.386 0-0.742 0.133-1.023 0.355l0.003-0.003-28.715 28.679c-0.302 0.3-0.489 0.715-0.489 1.174 0 0.913 0.74 1.654 1.654 1.654 0.003 0 0.006 0 0.009-0h-0z"></path>
</symbol>
<symbol id="facebook-icon" viewBox="0 0 32 32">
<path d="M22.527 0h-3.621c-4.061 0-6.702 3.101-6.702 7.882v3.621h-3.641c-0.3 0-0.56 0.3-0.56 0.66v5.262c0 0.36 0.26 0.66 0.56 0.66h3.641v13.264c0 0.36 0.26 0.66 0.58 0.66h4.741c0.32 0 0.56-0.3 0.56-0.66v-13.264h4.261c0.32 0 0.56-0.3 0.56-0.66v-5.262c0-0.004 0-0.009 0-0.014 0-0.17-0.061-0.326-0.161-0.447l0.001 0.001c-0.096-0.118-0.238-0.194-0.399-0.2l-0.001-0h-4.261v-3.081c0-1.48 0.32-2.221 2.001-2.221h2.441c0.3 0 0.56-0.3 0.56-0.66v-4.881c0-0.36-0.26-0.66-0.56-0.66z"></path>
</symbol>
<symbol id="instagram-icon" viewBox="0 0 32 32">
<path d="M16.325 32.009h-0.32c-2.521 0-4.821-0.060-7.082-0.2-2.083-0.101-3.972-0.862-5.48-2.075l0.018 0.014c-1.441-1.201-2.483-2.835-2.929-4.702l-0.012-0.060c-0.44-1.701-0.46-3.381-0.48-4.981-0.014-1.18-0.022-2.575-0.022-3.971s0.008-2.79 0.024-4.183l-0.002 0.211c0-1.64 0.040-3.321 0.48-5.021 0.5-1.981 1.5-3.581 2.941-4.761 1.5-1.24 3.401-1.961 5.462-2.081 2.261-0.14 4.561-0.2 7.082-0.2s4.821 0.060 7.082 0.2c2.061 0.12 3.961 0.84 5.462 2.061 1.44 1.2 2.441 2.781 2.941 4.761 0.44 1.7 0.46 3.401 0.48 5.001l0.040 3.981-0.040 3.961c0 1.64-0.040 3.321-0.48 5.021-0.458 1.926-1.5 3.56-2.927 4.75l-0.014 0.011c-1.5 1.22-3.401 1.941-5.462 2.061-2.161 0.14-4.381 0.2-6.762 0.2zM16.005 29.509c2.461 0 4.741-0.060 6.942-0.2 2.983-0.023 5.472-2.108 6.114-4.899l0.008-0.043c0.36-1.4 0.4-2.941 0.4-4.441 0.014-1.166 0.021-2.543 0.021-3.921s-0.008-2.756-0.023-4.131l0.002 0.21c0.005-0.159 0.007-0.345 0.007-0.532 0-1.391-0.148-2.748-0.43-4.055l0.023 0.126c-0.327-1.382-1.072-2.555-2.091-3.413l-0.010-0.008c-1.096-0.882-2.488-1.437-4.007-1.5l-0.014-0c-2.201-0.14-4.481-0.2-6.942-0.2s-4.741 0.060-6.942 0.2c-2.983 0.023-5.472 2.108-6.114 4.899l-0.008 0.043c-0.36 1.4-0.4 2.941-0.4 4.441-0.014 1.166-0.022 2.542-0.022 3.921s0.008 2.756 0.024 4.131l-0.002-0.209c0 1.5 0.040 3.021 0.4 4.461s1.080 2.601 2.101 3.421c1.12 0.9 2.461 1.4 4.021 1.5 2.201 0.14 4.481 0.2 6.942 0.2zM15.945 23.827c-4.326 0-7.832-3.507-7.832-7.832s3.507-7.832 7.832-7.832v0c4.326 0 7.832 3.507 7.832 7.832s-3.507 7.832-7.832 7.832v0zM15.945 10.683c-2.939 0-5.322 2.383-5.322 5.322s2.383 5.322 5.322 5.322v0c2.939 0 5.322-2.383 5.322-5.322s-2.383-5.322-5.322-5.322v0zM24.627 5.682c-1.039 0-1.881 0.842-1.881 1.881s0.842 1.881 1.881 1.881v0c1.039 0 1.881-0.842 1.881-1.881s-0.842-1.881-1.881-1.881v0z"></path>
</symbol>
<symbol id="location-icon" viewBox="0 0 23 32">
<path d="M11.738 0c6.469 0 11.742 5.124 11.742 11.444 0 2.498-0.811 4.868-2.348 6.853l-8.668 11.401-0.085 0.064c-0.427 0.427-1.067 0.342-1.366-0.064-2.477-3.245-7.067-9.33-8.839-11.614-1.36-1.829-2.178-4.131-2.178-6.625 0-0.013 0-0.025 0-0.038v0.002c0.108-6.332 5.266-11.423 11.613-11.423 0.046 0 0.091 0 0.137 0.001l-0.007-0zM11.738 17.614c3.48 0 6.341-2.775 6.341-6.17 0-3.416-2.861-6.191-6.341-6.191-0.019-0-0.042-0-0.065-0-3.437 0-6.228 2.762-6.276 6.187l-0 0.005c0 3.416 2.861 6.191 6.341 6.191z"></path>
</symbol>
<symbol id="logo-icon" viewBox="0 0 72 32">
<path d="M42.453 16.002c0 0.26-0.008 0.52 0 0.779 0.087 2.654-0.742 5.045-2.071 7.296-0.444 0.753-0.87 1.525-1.254 2.315-0.283 0.631-0.794 1.118-1.424 1.364l-0.018 0.006c-0.384 0.147-0.738 0.403-1.058 0.666-1.403 1.147-3.046 2.068-4.833 2.674l-0.11 0.033c-1.19 0.407-2.413 0.768-3.705 0.753-0.388-0.008-0.772 0.113-1.16 0.113-0.384 0-0.772-0.124-1.152-0.109-1.668 0.075-3.212-0.441-4.744-0.979-1.672-0.584-3.148-1.514-4.537-2.617-1.962-1.559-3.358-3.52-4.386-5.764-0.553-1.212-1.005-2.462-1.129-3.803-0.023-0.226-0.098-0.448-0.162-0.663-0.467-1.506-0.2-2.986 0.090-4.488 0.211-1.281 0.516-2.416 0.919-3.503l-0.042 0.13c1.141-2.902 3.012-5.309 5.39-7.070l0.043-0.031c1.947-1.456 4.299-2.482 6.857-2.887l0.089-0.012c0.763-0.13 1.642-0.205 2.538-0.205 2.148 0 4.197 0.428 6.064 1.203l-0.105-0.039c1.374 0.55 2.669 1.242 3.803 2.161 1.059 0.891 2.010 1.835 2.879 2.851l0.028 0.033c0.817 0.926 1.393 2.033 1.913 3.163 0.806 1.758 1.333 3.584 1.28 5.542-0.011 0.365-0.004 0.723-0.004 1.081zM41.335 12.425c-0.075-0.614-0.128-1.325-0.279-2.018-0.429-1.995-1.581-3.547-3.125-4.819-0.87-0.723-1.822-1.348-2.76-1.988-0.3-0.221-0.654-0.388-1.039-0.478l-0.019-0.004c-0.821-0.175-1.81-0.313-2.817-0.384l-0.071-0.004c-1.679-0.087-3.185-0.52-4.454-1.683-0.93-0.858-1.946-0.941-2.918-0.188-1.096 0.855-2.349 1.355-3.622 1.856-0.934 0.365-1.834 0.821-2.733 1.276-0.749 0.377-1.186 0.971-1.175 1.867 0 0.011 0 0.023 0 0.036 0 0.5-0.277 0.936-0.686 1.161l-0.007 0.003c-0.388 0.233-0.761 0.489-1.114 0.772-0.994 0.783-1.77 1.664-1.935 3.027-0.132 1.081-0.459 2.146-1.201 3.038-0.238 0.293-0.397 0.659-0.44 1.060l-0.001 0.009c-0.068 0.809-0.038 1.626-0.019 2.436 0.004 0.218 0.098 0.452 0.211 0.64 0.293 0.52 0.569 0.95 0.864 1.365l-0.032-0.047c0.727 1.013 1.359 2.048 1.506 3.332 0.143 1.242 0.742 2.255 1.758 3.027 1.476 1.122 2.895 2.312 4.39 3.404 0.802 0.587 1.664 1.103 2.722 1.224 1.058 0.117 2.097 0.407 3.050 0.941 0.2 0.105 0.414 0.173 0.64 0.196 1.34 0.143 2.583-0.188 3.761-0.817 0.369-0.196 0.749-0.377 1.129-0.546 0.919-0.41 1.939-0.678 2.741-1.254 0.892-0.64 1.845-0.922 2.869-1.099 0.438-0.065 0.817-0.279 1.090-0.589l0.002-0.002c0.343-0.388 0.659-0.802 1.017-1.178 0.371-0.349 0.625-0.817 0.703-1.343l0.002-0.012c0.135-0.879 0.461-1.664 0.934-2.337l-0.012 0.017c0.723-1.142 1.236-2.489 1.45-3.934l0.007-0.056c0.060-0.377 0.094-0.693-0.090-1.024-0.538-0.953-0.32-2.033-0.489-3.050-0.087-0.55 0.113-1.148 0.196-1.83zM34.871 2.915c-0.226-0.252-0.301-0.365-0.403-0.437-0.184-0.128-0.388-0.23-0.584-0.343-1.687-0.949-3.535-1.412-5.422-1.743-0.38-0.068-0.779-0.038-1.167-0.023-0.102 0.004-0.222 0.102-0.286 0.188-0.026 0.041 0.038 0.181 0.094 0.249 0.414 0.491 0.949 0.867 1.56 1.084l0.025 0.008c0.984 0.366 2.121 0.593 3.306 0.625l0.014 0c0.478 0.011 0.956 0.102 1.431 0.169 0.414 0.056 0.817 0.124 1.431 0.222zM20.534 30.286c-1.129-0.922-2.127-1.751-3.136-2.556-0.836-0.666-1.69-1.31-2.545-1.95-0.098-0.075-0.248-0.072-0.459-0.124 1.032 1.728 4.473 4.352 6.137 4.631zM12.902 8.702c0.685-0.523 1.318-1.073 2.010-1.525 0.971-0.633 1.344-1.423 1.114-2.775-0.689 0.565-1.182 1.242-1.713 1.864-0.565 0.651-0.979 1.423-1.45 2.154-0.038 0.060 0.023 0.177 0.038 0.282zM35.936 28.423c-0.64-0.041-1.28 0.068-1.679 0.414-0.757 0.651-1.66 0.979-2.579 1.306-0.482 0.169-0.937 0.422-1.393 0.659-0.060 0.034-0.072 0.211-0.056 0.313 0 0.038 0.173 0.094 0.241 0.072 0.828-0.282 1.679-0.508 2.459-0.885 0.956-0.459 1.856-1.039 2.771-1.581 0.098-0.053 0.147-0.177 0.237-0.297zM11.596 19.387c-0.181 0.538-0.147 0.836-0.030 1.152 0.32 0.885 0.512 1.815 1.088 2.587 0.215 0.286 0.256 0.926 0.651 0.791 0.346-0.124-0.060-0.629-0.083-0.971-0.090-1.303-0.776-2.353-1.626-3.562zM17.778 3.137l0.083 0.132c0.478-0.177 0.956-0.346 1.431-0.535 1.020-0.41 2.044-0.828 3.061-1.254 0.216-0.102 0.401-0.224 0.568-0.368l-0.003 0.003c0.053-0.038 0.045-0.177 0.026-0.26-0.008-0.038-0.102-0.075-0.158-0.079-0.098 0-0.188 0.019-0.282 0.045-1.502 0.445-2.808 1.018-4.023 1.729l0.085-0.046c-0.29 0.162-0.527 0.422-0.791 0.632zM42.073 17.143c0.083-0.094 0.151-0.136 0.151-0.181 0.139-1.419-0.011-2.827-0.207-4.232-0.011-0.075-0.109-0.173-0.173-0.181-0.075-0.011-0.188 0.049-0.233 0.113-0.075 0.109-0.12 0.226-0.132 0.354-0.075 1.16 0 2.323 0.226 3.464 0.045 0.226 0.233 0.429 0.369 0.666zM11.261 13.227c0.542-0.207 0.621-0.58 0.678-0.919 0.143-0.821 0.497-1.608 0.377-2.477-0.565 1.035-1.062 2.086-1.054 3.392zM24.329 31.235c-1.209-0.538-1.54-0.591-2.617-0.444 0.459 0.173 0.866 0.452 1.28 0.452 0.433 0.008 0.9 0.535 1.337-0.008z"></path>
<path d="M26.825 20.595c-0.015 0-0.033 0.001-0.051 0.001-0.753 0-1.411-0.41-1.762-1.019l-0.005-0.010c-0.392-0.625-1.043-0.949-1.642-1.333-0.753-0.486-1.363-1.032-1.54-2.014-0.12-0.663 0.023-1.242 0.29-1.77 0.256-0.459 0.614-0.832 1.045-1.1l0.013-0.007c0.463-0.282 0.843-0.55 1.054-1.073 0.245-0.602 0.851-0.64 1.389-0.745 0.508-0.102 1.020-0.169 1.521-0.297 0.681-0.173 1.303-0.12 1.8 0.414 0.377 0.388 0.82 0.709 1.313 0.944l0.028 0.012c0.523 0.264 0.693 0.565 0.527 1.107-0.109 0.369 0 0.621 0.136 0.915 0.151 0.32 0.305 0.648 0.41 0.986 0.343 1.129-0.053 2.078-1.111 2.579-0.655 0.313-1.16 0.727-1.322 1.457-0.052 0.264-0.249 0.47-0.504 0.534l-0.005 0.001c-0.527 0.154-1.054 0.282-1.585 0.418zM30.3 15.867c0.015-1.988-1.491-3.577-3.452-3.577-1.758 0-3.528 1.186-3.596 3.464-0 0.014-0 0.029-0 0.045 0 1.912 1.54 3.465 3.447 3.486l0.002 0c2.41 0.015 3.55-1.66 3.599-3.419zM23.23 17.768c0-0.256 0.023-0.388-0.004-0.505-0.264-1.081-0.429-2.146 0.162-3.189 0.038-0.075-0.056-0.226-0.090-0.346-0.113 0.038-0.256 0.045-0.343 0.117-0.529 0.45-0.862 1.117-0.862 1.861 0 0.864 0.449 1.623 1.127 2.057l0.010 0.006zM26.844 11.789c0.414 0.151 0.64 0.256 0.889 0.32 0.896 0.237 1.66 0.666 2.195 1.453 0.105 0.151 0.241 0.384 0.441 0.207 0.109-0.094 0.143-0.38 0.083-0.527-0.083-0.188-0.271-0.429-0.452-0.467-0.497-0.102-0.764-0.459-1.088-0.772-0.538-0.52-1.145-0.678-2.063-0.215zM26.791 19.613l-0.011-0.075c-0.26 0-0.52-0.023-0.776 0.008-0.132 0.019-0.248 0.128-0.377 0.196 0.113 0.102 0.215 0.256 0.343 0.29 0.697 0.177 1.401 0.215 2.086-0.056 0.117-0.045 0.248-0.105 0.32-0.2 0.064-0.079 0.087-0.222 0.075-0.331-0.008-0.038-0.169-0.098-0.248-0.087-0.471 0.075-0.941 0.166-1.408 0.252h-0.004zM30.349 17.572c0.482-0.087 0.697-0.361 0.727-0.776 0.019-0.354 0.015-0.708-0.015-1.058-0.008-0.094-0.139-0.177-0.211-0.264-0.109 0.102-0.324 0.237-0.305 0.301 0.196 0.606-0.215 1.152-0.196 1.796zM34.762 20.324c-0.026 0.015-0.139 0.109-0.26 0.12-0.109 0.015-0.271-0.023-0.339-0.102-0.323-0.359-0.643-0.749-0.947-1.153l-0.032-0.044c-0.083-0.109-0.113-0.403-0.072-0.425 0.151-0.083 0.448-0.169 0.512-0.098 0.388 0.425 0.73 0.896 1.081 1.355 0.034 0.045 0.023 0.124 0.056 0.346zM18.35 23.671c0.181 0.015 0.535 0.026 0.881 0.083 0.087 0.015 0.2 0.184 0.2 0.286 0 0.098-0.098 0.271-0.188 0.294-0.666 0.166-1.337 0.207-1.928-0.241-0.059-0.055-0.095-0.133-0.095-0.22 0-0.010 0-0.020 0.001-0.030l-0 0.001c0.011-0.064 0.113-0.158 0.188-0.166 0.256-0.019 0.512-0.008 0.941-0.008zM39.374 9.564l0.256 0.139c-0.075 0.128-0.117 0.335-0.226 0.373-0.478 0.177-0.979 0.32-1.48 0.422-0.143 0.030-0.354-0.113-0.489-0.23-0.151-0.136-0.060-0.433 0.132-0.463 0.572-0.087 1.148-0.151 1.807-0.241zM22.3 26.544c0.264 0.124 0.489 0.158 0.602 0.294 0.301 0.373 0.572 0.764 0.821 1.175 0.12 0.192 0.011 0.407-0.192 0.459-0.113 0.034-0.313-0.056-0.395-0.158-0.304-0.364-0.603-0.768-0.877-1.189l-0.030-0.049c-0.064-0.102 0.038-0.309 0.072-0.531zM32.83 11.021c0.015-0.113 0-0.245 0.049-0.297 0.075-0.064 0.226-0.12 0.301-0.083 0.102 0.049 0.169 0.181 0.237 0.286 0.196 0.29 0.388 0.584 0.572 0.881 0.083 0.136 0.196 0.279 0.203 0.422 0.008 0.132-0.075 0.305-0.173 0.399-0.056 0.049-0.286 0.015-0.343-0.053-0.373-0.474-0.817-0.915-0.851-1.555zM33.982 6.010c-0.079 0.482-0.113 0.836-0.207 1.178-0.056 0.181-0.169 0.343-0.32 0.463-0.109 0.087-0.294 0.075-0.444 0.105-0.011-0.139-0.053-0.286-0.030-0.418 0.079-0.414 0.184-0.817 0.279-1.224 0.008-0.030 0.004-0.064 0.015-0.098 0.075-0.245 0.233-0.429 0.489-0.328 0.128 0.049 0.188 0.275 0.218 0.32zM27.055 9.142c0.226 0.026 0.52 0.041 0.798 0.113 0.094 0.019 0.233 0.192 0.218 0.264-0.030 0.136-0.139 0.309-0.256 0.346-0.184 0.056-0.377 0.060-0.565 0-0.14-0.056-0.301-0.089-0.471-0.089s-0.331 0.033-0.479 0.092l0.009-0.003c-0.211 0.090-0.407 0-0.463-0.211-0.075-0.282 0.136-0.418 0.373-0.459 0.252-0.038 0.516-0.038 0.836-0.053zM32.066 22.971c-0.090 0.399-0.162 0.749-0.26 1.092-0.019 0.068-0.158 0.154-0.218 0.139-0.109-0.023-0.26-0.109-0.279-0.196-0.027-0.099-0.042-0.213-0.042-0.33 0-0.087 0.008-0.172 0.025-0.254l-0.001 0.008c0.075-0.35 0.151-0.685 0.011-1.039-0.068-0.173-0.049-0.448 0.211-0.444 0.139 0 0.339 0.173 0.403 0.316 0.105 0.226 0.113 0.497 0.151 0.708zM28.113 22.869c-0.053 0.094-0.075 0.203-0.147 0.252-0.422 0.29-0.847 0.584-1.291 0.84-0.113 0.064-0.313 0.023-0.459-0.019-0.211-0.064-0.256-0.343-0.075-0.456 0.482-0.313 0.971-0.621 1.476-0.907 0.079-0.049 0.241 0 0.343 0.053 0.072 0.038 0.102 0.151 0.154 0.237zM22.725 4.158c0.068 0.038 0.196 0.075 0.215 0.139 0.166 0.617 0.328 1.239 0.463 1.864 0.038 0.173-0.192 0.271-0.346 0.166-0.489-0.328-0.791-1.536-0.508-2.041 0.030-0.053 0.102-0.075 0.177-0.128zM28.726 5.912c-0.151-0.098-0.305-0.147-0.328-0.23-0.023-0.094 0.053-0.248 0.136-0.324 0.358-0.316 0.73-0.617 1.118-0.896 0.128-0.090 0.399-0.154 0.501-0.083 0.237 0.166 0.113 0.399-0.053 0.572-0.222 0.23-0.441 0.474-0.697 0.663-0.196 0.139-0.448 0.2-0.678 0.301zM19.491 9.18l-0.354 0.335c-0.102-0.113-0.252-0.203-0.297-0.331-0.122-0.343-0.275-0.862-0.412-1.389l-0.037-0.166c-0.019-0.075 0.041-0.218 0.102-0.245 0.098-0.038 0.264-0.056 0.335 0 0.151 0.109 0.316 0.256 0.365 0.414 0.124 0.429 0.192 0.873 0.297 1.382zM15.602 17.76c-0.324 0.595-0.572 1.205-1.178 1.532-0.102 0.053-0.328-0.015-0.437-0.102-0.188-0.151 0-0.271 0.090-0.395 0.282-0.392 0.546-0.802 0.851-1.178 0.075-0.098 0.275-0.143 0.41-0.132 0.090 0.011 0.166 0.166 0.264 0.275zM19.284 17.809c0.169 0.098 0.294 0.128 0.316 0.192 0.038 0.105 0.056 0.271 0 0.346-0.094 0.117-0.252 0.184-0.392 0.264-0.358 0.203-0.708 0.418-1.077 0.595-0.113 0.053-0.32 0.038-0.418-0.038-0.207-0.147-0.136-0.38 0.030-0.486 0.508-0.316 1.043-0.595 1.54-0.873zM37.702 15.11c-0.132 0.294-0.316 0.738-0.535 1.167-0.034 0.064-0.245 0.102-0.335 0.060-0.083-0.038-0.173-0.203-0.158-0.294 0.090-0.474 0.188-0.953 0.331-1.412 0.045-0.139 0.248-0.264 0.407-0.313 0.056-0.019 0.211 0.2 0.282 0.331 0.038 0.075 0.008 0.188 0.008 0.459zM15.5 11.563c0.576 0.516 0.508 1.22 0.572 1.867 0.011 0.12-0.139 0.29-0.256 0.377-0.064 0.049-0.32-0.026-0.324-0.068-0.072-0.472-0.15-1.148-0.209-1.83l-0.010-0.139c-0.004-0.056 0.132-0.128 0.226-0.207zM28.971 27.561c0.098 0.026 0.192 0.060 0.286 0.094 0.346 0.162 0.693 0.316 1.032 0.493 0.162 0.087 0.32 0.188 0.437 0.324 0.132 0.151-0.019 0.452-0.203 0.41-0.629-0.136-1.242-0.328-1.713-0.794-0.072-0.072-0.068-0.245-0.045-0.361 0.011-0.064 0.132-0.109 0.207-0.162zM21.325 11.752c0.038 0.105 0.151 0.264 0.109 0.369-0.277 0.69-0.514 1.209-0.767 1.718l0.063-0.141c-0.030 0.064-0.162 0.12-0.237 0.109-0.068-0.008-0.162-0.102-0.181-0.177-0.132-0.576 0.286-1.611 0.749-1.875 0.045-0.026 0.124 0 0.264 0zM39.291 20.543c-0.075-0.045-0.226-0.102-0.301-0.211-0.034-0.041 0.068-0.237 0.154-0.301 0.337-0.252 0.726-0.513 1.129-0.755l0.065-0.036c0.113-0.064 0.339-0.068 0.425 0.004 0.075 0.068 0.087 0.324 0.019 0.414-0.346 0.482-0.779 0.847-1.491 0.885zM36.904 24.673c-0.301-0.030-0.429-0.038-0.553-0.060-0.053-0.015-0.132-0.075-0.132-0.113-0.004-0.094 0.019-0.188 0.068-0.264 0.064-0.072 0.151-0.124 0.241-0.151 0.459-0.136 0.922-0.275 1.386-0.388 0.102-0.023 0.316 0.045 0.331 0.102 0.030 0.136-0.008 0.301-0.060 0.441-0.030 0.075-0.143 0.136-0.23 0.162-0.399 0.109-0.802 0.207-1.054 0.271zM23.064 21.356c-0.030 0.143-0.083 0.452-0.188 0.745-0.026 0.072-0.226 0.139-0.32 0.113-0.090-0.026-0.2-0.177-0.196-0.271 0.008-0.542 0.038-1.084 0.090-1.623 0.011-0.117 0.162-0.222 0.248-0.331 0.102 0.109 0.267 0.203 0.294 0.328 0.060 0.282 0.045 0.576 0.075 1.039zM44.603 4.425c0-1.148 0.275-2.018 0.828-2.609 0.517-0.553 1.251-0.898 2.065-0.898 0.034 0 0.068 0.001 0.101 0.002l-0.005-0c0.877 0 1.574 0.256 2.090 0.772 0.527 0.52 0.787 1.344 0.787 2.477s-0.279 1.992-0.836 2.571c-0.553 0.576-1.295 0.866-2.221 0.866-0.034 0.002-0.075 0.002-0.115 0.002-0.711 0-1.36-0.262-1.857-0.694l0.003 0.003c-0.28-0.267-0.495-0.6-0.62-0.973l-0.005-0.017c-0.139-0.424-0.219-0.911-0.219-1.417 0-0.031 0-0.062 0.001-0.093l-0 0.005zM47.562 1.014c-0.64 0-1.16 0.282-1.57 0.851-0.403 0.565-0.602 1.397-0.602 2.492s0.188 1.898 0.572 2.402c0.337 0.459 0.875 0.754 1.482 0.754 0.019 0 0.038-0 0.057-0.001l-0.003 0c0.64 0 1.167-0.282 1.57-0.851 0.41-0.572 0.614-1.401 0.614-2.485 0-1.088-0.196-1.886-0.587-2.398-0.335-0.465-0.876-0.765-1.486-0.765-0.016 0-0.032 0-0.049 0.001l0.002-0zM52.107 7.569h-0.791v-6.611h0.791v3.042h3.072v-3.042h0.787v6.611h-0.787v-3.475h-3.076v3.475zM60.002 7.569h-0.124l0.825-6.611h0.313l1.984 6.111 1.98-6.111h0.309l0.828 6.611h-0.791l-0.651-5.29-1.713 5.29h-0.595l-1.732-5.222-0.633 5.222zM71.353 0.958c0.12 0.117 0.181 0.271 0.181 0.463 0 0.154-0.038 0.316-0.105 0.482l-1.694 3.426v2.24h-0.783v-2.033l-1.898-4.574h0.806l1.807 4.262 1.645-3.317c0.072-0.158 0.105-0.324 0.105-0.489 0-0.173-0.049-0.305-0.143-0.399l0.075-0.056zM1.333 9.308c0.489-0.023 0.968-0.034 1.434-0.034 0.478 0 0.979 0.049 1.502 0.151 0.531 0.098 1.054 0.29 1.566 0.565 0.523 0.267 0.96 0.617 1.318 1.050 0.391 0.473 0.695 1.035 0.876 1.65l0.008 0.033c0.222 0.697 0.331 1.544 0.331 2.545s-0.166 1.898-0.501 2.699c-0.32 0.787-0.764 1.393-1.333 1.815-1.099 0.821-2.428 1.231-3.983 1.231-0.546 0-1.118-0.023-1.721-0.068h-0.832v-11.637h1.333zM1.385 20.814c0.289 0.021 0.627 0.033 0.967 0.033 0.252 0 0.502-0.007 0.751-0.020l-0.035 0.001c0.594-0.059 1.137-0.231 1.623-0.493l-0.023 0.011c0.68-0.394 1.225-0.954 1.589-1.627l0.011-0.022c0.478-0.911 0.715-2.097 0.715-3.562 0-1.043-0.124-1.943-0.38-2.699-0.191-0.651-0.495-1.217-0.892-1.703l0.007 0.009c-0.323-0.364-0.716-0.656-1.161-0.857l-0.022-0.009c-0.323-0.173-0.698-0.307-1.094-0.38l-0.024-0.004c-0.305-0.030-0.659-0.047-1.017-0.047s-0.712 0.017-1.061 0.050l0.045-0.003v11.321zM44.87 20.946h-0.215v-11.652h0.565l6.939 10.768v-10.768h0.215v11.652h-1.216l-6.287-9.657v9.657zM62.641 9.293h0.218v6.66c0 1.739-0.346 3.023-1.035 3.844-0.624 0.746-1.555 1.218-2.596 1.218-0.036 0-0.072-0.001-0.108-0.002l0.005 0c-0.7 0-1.295-0.060-1.785-0.184-0.533-0.151-0.995-0.397-1.392-0.721l0.007 0.006c-0.889-0.689-1.333-2.074-1.333-4.16v-6.664h1.386v6.645c0 2.022 0.301 3.37 0.915 4.047 0.26 0.294 0.584 0.526 0.951 0.675l0.017 0.006c0.346 0.12 0.753 0.184 1.235 0.184 0.033 0.001 0.072 0.002 0.112 0.002 0.983 0 1.86-0.454 2.433-1.163l0.005-0.006c0.648-0.791 0.968-2.033 0.968-3.746v-6.641zM68.544 20.946h-1.382v-11.487h-2.884v-0.166h7.168v0.166h-2.899v11.487z"></path>
</symbol>
<symbol id="people-icon" viewBox="0 0 32 32">
<path fill="#674d40" style="fill: var(--color3, #674d40)" d="M11.897 0c-3.317 0-5.98 3.073-5.98 6.864 0 3.778 2.689 6.851 5.98 6.851s5.98-3.073 5.98-6.851c0-3.791-2.689-6.864-5.98-6.864zM11.897 12.563c-2.753 0-4.994-2.561-4.994-5.711s2.254-5.711 5.007-5.711 4.982 2.561 4.982 5.711-2.241 5.711-4.994 5.711zM24.139 2.843c-2.472 0-4.482 2.305-4.482 5.148s2.011 5.148 4.482 5.148 4.482-2.305 4.482-5.148c0-2.843-2.011-5.148-4.482-5.148zM24.139 12.012c-1.921 0-3.496-1.793-3.496-4.008s1.562-4.008 3.496-4.008c1.921 0 3.483 1.793 3.483 4.008 0 2.203-1.562 4.008-3.483 4.008z"></path>
<path fill="#674d40" style="fill: var(--color3, #674d40)" d="M32.169 20.694c-0.356-3.158-2.288-5.796-4.98-7.135l-0.053-0.024s-1.281 1.114-2.997 1.076c-1.882-0.038-2.997-1.076-2.997-1.076s-1.396 0.602-2.523 1.844c-0.807-0.742-1.725-1.382-2.722-1.889l-0.069-0.032s-1.601 1.409-3.944 1.383c-0.004 0-0.010 0-0.015 0-1.489 0-2.856-0.522-3.928-1.392l0.012 0.009s-5.302 2.087-6.403 9.182c0 0-1.204 3.752 1.562 9.374h17.57s1.242-2.484 1.46-4.008h8.734c2.151-3.727 1.281-7.312 1.281-7.312zM20.054 30.875h-16.328c-2.126-4.649-1.204-8.042-1.204-8.042 0.431-3.474 2.459-6.399 5.314-8.053l0.052-0.028c1.123 0.772 2.512 1.233 4.008 1.233s2.885-0.461 4.032-1.248l-0.024 0.016c2.904 1.679 4.93 4.598 5.36 8.015l0.005 0.053s0.884 4.188-1.217 8.055zM30.299 26.867h-7.952c0.307-2.023-0.102-4.226-0.102-4.226-0.346-2.505-1.377-4.721-2.896-6.511l0.015 0.018c0.512-0.525 1.076-0.973 1.703-1.319 1.87 1.242 4.264 1.242 6.147 0 2.1 1.153 3.586 3.394 3.97 6.044 0 0 0.73 2.843-0.884 5.993z"></path>
</symbol>
<symbol id="phone-icon" viewBox="0 0 32 32">
<path d="M29.445 20.484c-1.97 0-3.89-0.32-5.712-0.886-0.886-0.295-1.994-0.025-2.536 0.492l-3.595 2.684c-3.893-1.895-6.992-4.913-8.935-8.632l-0.052-0.108 2.708-3.398c0.461-0.448 0.747-1.074 0.747-1.766 0-0.284-0.048-0.557-0.137-0.811l0.005 0.017c-0.577-1.654-0.911-3.561-0.911-5.545 0-0.007 0-0.013 0-0.020v0.001c-0.025-1.379-1.157-2.511-2.585-2.511h-5.884c-1.403 0-2.56 1.133-2.56 2.511 0 15.806 13.196 28.682 29.445 28.682 1.403 0 2.56-1.133 2.56-2.511v-5.712c0-1.379-1.157-2.487-2.56-2.487z"></path>
</symbol>
<symbol id="twitter-icon" viewBox="0 0 32 32">
<path d="M32.009 5.442c-1.2 0.6-2.461 0.98-3.781 1.16 1.39-0.962 2.413-2.368 2.869-4.011l0.012-0.051c-1.26 0.86-2.661 1.44-4.161 1.78-1.145-1.402-2.867-2.297-4.797-2.321l-0.004-0c-3.581 0-6.542 3.301-6.542 7.342 0 0.58 0.040 1.14 0.16 1.66-5.623-0.387-10.493-3.302-13.526-7.605l-0.038-0.057c-0.567 1.075-0.9 2.349-0.9 3.701v0c0 2.541 1.18 4.801 2.921 6.102-1.102-0.037-2.119-0.367-2.985-0.915l0.025 0.014v0.080c0 3.561 2.281 6.522 5.262 7.202-0.512 0.161-1.101 0.254-1.712 0.254-0.442 0-0.874-0.049-1.288-0.141l0.039 0.007c0.84 2.901 3.261 5.041 6.122 5.101-2.172 1.953-5.059 3.147-8.226 3.147-0.513 0-1.020-0.031-1.516-0.092l0.060 0.006c2.783 2.049 6.279 3.28 10.063 3.281h0c12.084 0 18.685-11.183 18.685-20.866l-0.020-0.96c1.306-1.064 2.398-2.329 3.245-3.756l0.036-0.065z"></path>
</symbol>
</defs>
</svg>
