<svg aria-hidden="true" style="position: absolute; width: 0; height: 0; overflow: hidden;" version="1.1" xmlns="http://www.w3.org/2000/svg" xmlns:xlink="http://www.w3.org/1999/xlink">
<defs>
<symbol id="star-empty-icon" viewBox="0 0 34 32">
<path fill="none" stroke="#ab816c" style="stroke: var(--color1, #ab816c)" stroke-linejoin="miter" stroke-linecap="butt" stroke-miterlimit="4" stroke-width="1.6842" d="M16.043 1.817c0.105-0.353 0.428-0.607 0.809-0.607s0.703 0.253 0.807 0.601l0.002 0.006 2.545 7.887c0.337 1.028 1.314 1.736 2.41 1.736h8.291c0.458 0.009 0.826 0.383 0.826 0.842 0 0.275-0.132 0.519-0.335 0.673l-0.002 0.002-6.707 4.887c-0.629 0.465-1.032 1.204-1.032 2.038 0 0.277 0.045 0.544 0.127 0.794l-0.005-0.018 2.561 7.887c0.022 0.072 0.035 0.155 0.035 0.242 0 0.465-0.377 0.843-0.843 0.843-0.184 0-0.354-0.059-0.493-0.159l0.002 0.002-6.707-4.853c-0.411-0.3-0.926-0.481-1.483-0.481s-1.072 0.18-1.49 0.486l0.007-0.005-6.707 4.853c-0.136 0.098-0.306 0.157-0.49 0.157-0.465 0-0.843-0.377-0.843-0.843 0-0.086 0.013-0.169 0.037-0.248l-0.002 0.006 2.561-7.887c0.080-0.236 0.127-0.508 0.127-0.79 0-0.835-0.405-1.576-1.030-2.036l-0.007-0.005-6.707-4.853c-0.206-0.155-0.337-0.399-0.337-0.674 0-0.465 0.377-0.843 0.843-0.843h8.257c0.006 0 0.013 0 0.021 0 1.119 0 2.068-0.727 2.401-1.735l0.005-0.018 2.545-7.887z"></path>
</symbol>
<symbol id="star-filled-icon" viewBox="0 0 34 32">
<path fill="#ab816c" style="fill: var(--color1, #ab816c)" d="M15.251 1.564c0.228-0.679 0.858-1.159 1.601-1.159s1.373 0.48 1.597 1.147l0.003 0.012 2.561 7.87c0.221 0.687 0.853 1.177 1.601 1.18h8.291c0.916 0.019 1.652 0.766 1.652 1.685 0 0.55-0.263 1.038-0.67 1.345l-0.004 0.003-6.69 4.887c-0.429 0.309-0.705 0.808-0.705 1.371 0 0.185 0.030 0.362 0.085 0.529l-0.003-0.012 2.561 7.87c0.054 0.157 0.084 0.339 0.084 0.527 0 0.931-0.754 1.685-1.685 1.685-0.374 0-0.72-0.122-0.999-0.328l0.005 0.003-6.673-4.904c-0.275-0.203-0.62-0.325-0.994-0.325s-0.719 0.122-0.999 0.328l0.005-0.003-6.707 4.887c-0.275 0.203-0.62 0.325-0.995 0.325-0.931 0-1.685-0.754-1.685-1.685 0-0.188 0.031-0.37 0.088-0.539l-0.003 0.012 2.561-7.87c0.052-0.154 0.081-0.332 0.081-0.517 0-0.563-0.276-1.061-0.7-1.367l-0.005-0.003-6.69-4.87c-0.411-0.311-0.674-0.799-0.674-1.348 0-0.925 0.745-1.676 1.668-1.685h8.258c0.003 0 0.007 0 0.010 0 0.75 0 1.386-0.49 1.604-1.168l0.003-0.012 2.561-7.87z"></path>
</symbol>
<symbol id="bg-header" viewBox="0 0 40 32">
<path fill="#fef3e4" style="fill: var(--color2, #fef3e4)" d="M1.591 30.425c0 0.71-0.978 1.589-1.591 1.56v-31.985h39.537v10.425c0.015 6.224 0 18.224 0 19.352 0 0.707-1.078 0.409-1.953-0.728s0.743-4.767 0.875-5.817-0.263-3.236-4.331-5.904c-4.068-2.668-10.017-0.306-13.167 1.268s-5.827-0.612-10.114-1.924c-4.287-1.312-5.862 0.787-6.43 1.924s-0.56 4.198-1.785 4.636c-1.225 0.437-1.706 1.618-1.4 3.324s0.358 2.951 0.358 3.87z"></path>
</symbol>
<symbol id="bg-sections" viewBox="0 0 22 32">
<path fill="#fef3e4" style="fill: var(--color2, #fef3e4)" d="M1.122 8.384c0.231 1.699-0.643 1.561-1.109 1.28v20.859c0 4.076-0.222 2.31 0 3.458 0.134 0.697 0.868-2.677 0.675-3.458s-0.144-2.248 0.699-2.561 0.964-1.030 1.398-1.936c0.434-0.905 1.543-2.685 4.242-1.312s4.483 0.125 5.761-1.124c2.531-2.474 6.823 0.012 8.016 2.132 0.626 1.112-1.082 6.8 0 7.331 0.541 0.265 1.023 5.135 1.023-0.265v-24.748c-0.016 0.229-0.135 0.618-0.482 0.344-1.022-0.675-0.603-2.738-0.265-3.685 0.185-0.905 0.246-3.029-0.988-4.278-1.451-1.469-5.723 1.374-8.2 1.374-2.707 0-4.021-0.812-5.636-1.561s-2.892 0.531-3.399 1.561c-0.506 1.030-0.53 1.436-1.302 1.905-1.518 0.718-0.723 2.56-0.434 4.684z"></path>
</symbol>
<symbol id="burger-menu-icon" viewBox="0 0 60 32">
<path d="M2.001-0.002h56.022c1.105 0 2.001 0.896 2.001 2.001s-0.896 2.001-2.001 2.001h-56.022c-1.105 0-2.001-0.896-2.001-2.001s0.896-2.001 2.001-2.001z"></path>
<path d="M2.001 14.004h56.022c1.105 0 2.001 0.896 2.001 2.001s-0.896 2.001-2.001 2.001h-56.022c-1.105 0-2.001-0.896-2.001-2.001s0.896-2.001 2.001-2.001z"></path>
<path d="M2.001 28.009h56.022c1.105 0 2.001 0.896 2.001 2.001s-0.896 2.001-2.001 2.001h-56.022c-1.105 0-2.001-0.896-2.001-2.001s0.896-2.001 2.001-2.001z"></path>
</symbol>
<symbol id="chat-desktop-icon" viewBox="0 0 32 32">
<path fill="#674d40" style="fill: var(--color3, #674d40)" d="M24.626 14.945c0-6.71-6.147-11.103-12.306-11.103-6.185 0-12.319 4.418-12.319 11.103 0 2.536 0.96 4.994 2.715 6.966 0.077 0.077 0.102 0.192 0.077 0.295-0.546 1.979-1.371 3.71-2.444 5.255l0.037-0.056c-0.095 0.14-0.152 0.313-0.152 0.499 0 0.13 0.028 0.253 0.077 0.365l-0.002-0.006c0.128 0.256 0.359 0.435 0.627 0.435h0.013c2.625-0.077 5.66-0.922 7.53-3.048 0.047-0.052 0.115-0.085 0.191-0.085 0.023 0 0.046 0.003 0.067 0.009l-0.002-0c1.153 0.32 2.356 0.474 3.573 0.474 6.172 0 12.307-4.418 12.307-11.103zM8.964 24.536c-0.087-0.025-0.187-0.039-0.291-0.039-0.334 0-0.633 0.149-0.835 0.383l-0.001 0.001c-1.87 2.126-4.943 2.6-6.403 2.715 0.679-1.050 1.754-2.984 2.254-5.11 0.128-0.474 0-0.999-0.32-1.345-1.5-1.625-2.423-3.803-2.433-6.196v-0.002c0-5.532 5.11-10.027 11.384-10.027s11.372 4.495 11.372 10.027-5.097 10.027-11.372 10.027c-1.153 0-2.267-0.141-3.355-0.435z"></path>
<path fill="#674d40" style="fill: var(--color3, #674d40)" d="M27.648 23.883c2.582-1.43 4.314-4.118 4.367-7.215l0-0.007c0-4.162-3.278-7.709-7.786-8.452-0.256-0.038-0.499 0.166-0.525 0.461-0.038 0.295 0.128 0.563 0.384 0.615 4.059 0.653 6.992 3.765 6.992 7.376-0.062 2.708-1.589 5.045-3.816 6.256l-0.038 0.019c-0.388 0.255-0.64 0.688-0.64 1.181 0 0.094 0.009 0.186 0.027 0.276l-0.001-0.009c0.23 1.242 0.717 2.382 1.114 3.15-2.779-0.525-3.829-2.049-4.162-2.715-0.182-0.38-0.559-0.64-0.997-0.653l-0.002-0h-0.038c-0.512 0-1.037-0.038-1.537-0.128-0.256-0.038-0.512 0.166-0.538 0.461-0.038 0.295 0.141 0.563 0.397 0.602 0.551 0.090 1.114 0.128 1.678 0.128h0.038c0.077 0 0.154 0.051 0.192 0.128 1.281 2.536 4.188 3.176 5.378 3.33 0.269 0.038 0.512-0.102 0.666-0.359 0.128-0.256 0.128-0.576 0-0.832-0.563-0.959-1.005-2.072-1.266-3.253l-0.014-0.077c-0.004-0.017-0.006-0.036-0.006-0.056 0-0.097 0.054-0.181 0.133-0.225l0.001-0.001zM5.020 13.024c-0.896 0-1.626 0.832-1.626 1.857s0.73 1.87 1.626 1.87c0.896 0 1.626-0.832 1.626-1.87 0-1.024-0.73-1.857-1.626-1.857zM5.020 15.674c-0.384 0-0.692-0.359-0.692-0.794 0-0.423 0.307-0.781 0.692-0.781s0.692 0.359 0.692 0.781c0 0.435-0.32 0.794-0.692 0.794zM9.656 13.024c-0.896 0-1.626 0.832-1.626 1.857s0.73 1.87 1.626 1.87c0.896 0 1.626-0.832 1.626-1.87 0-1.024-0.73-1.857-1.626-1.857zM9.656 15.674c-0.384 0-0.692-0.359-0.692-0.794 0-0.423 0.307-0.781 0.692-0.781s0.692 0.359 0.692 0.781c0 0.435-0.307 0.794-0.692 0.794zM14.291 13.024c-0.896 0-1.626 0.832-1.626 1.857s0.73 1.87 1.626 1.87c0.896 0 1.626-0.832 1.626-1.87 0-1.024-0.73-1.857-1.626-1.857zM14.291 15.674c-0.384 0-0.692-0.359-0.692-0.794 0-0.423 0.307-0.781 0.692-0.781s0.692 0.359 0.692 0.781c0 0.435-0.307 0.794-0.692 0.794zM18.927 13.024c-0.896 0-1.626 0.832-1.626 1.857s0.73 1.87 1.626 1.87c0.896 0 1.626-0.832 1.626-1.87 0-1.024-0.73-1.857-1.626-1.857zM18.927 15.674c-0.384 0-0.692-0.359-0.692-0.794 0-0.423 0.32-0.781 0.692-0.781 0.384 0 0.692 0.359 0.692 0.781 0 0.435-0.307 0.794-0.692 0.794z"></path>
</symbol>
<symbol id="chat-mobile-icon" viewBox="0 0 32 32">
<path fill="#674d40" style="fill: var(--color3, #674d40)" d="M24.632 16.41c0-5.846-6.166-9.671-12.333-9.671s-12.299 3.858-12.299 9.671c0 2.207 0.96 4.381 2.713 6.065 0.067 0.084 0.101 0.168 0.067 0.27-0.551 1.744-1.367 3.257-2.415 4.578l0.022-0.029c-0.168 0.219-0.185 0.505-0.067 0.741s0.354 0.387 0.623 0.387h0.017c2.628-0.067 5.661-0.809 7.531-2.662 0.067-0.051 0.168-0.084 0.253-0.067 1.163 0.286 2.359 0.421 3.572 0.421 6.166 0 12.299-3.858 12.299-9.688zM8.963 24.767c-0.084-0.021-0.181-0.033-0.28-0.033-0.332 0-0.632 0.135-0.849 0.353l-0 0c-1.87 1.853-4.937 2.258-6.402 2.359 0.957-1.27 1.727-2.748 2.23-4.344l0.028-0.103c0.028-0.096 0.044-0.206 0.044-0.32 0-0.337-0.139-0.641-0.364-0.859l-0-0c-1.464-1.345-2.39-3.257-2.426-5.385l-0-0.007c0-4.835 5.105-8.761 11.373-8.761s11.373 3.926 11.373 8.761c0 4.802-5.105 8.727-11.373 8.727-1.146 0-2.274-0.135-3.353-0.387z"></path>
<path fill="#674d40" style="fill: var(--color3, #674d40)" d="M27.631 24.211c2.746-1.382 4.381-3.74 4.381-6.301 0-3.622-3.269-6.722-7.784-7.363-0.003-0-0.007-0-0.010-0-0.261 0-0.472 0.211-0.472 0.472 0 0.216 0.145 0.398 0.344 0.454l0.003 0.001c4.044 0.573 6.975 3.285 6.975 6.436 0 2.19-1.432 4.246-3.841 5.459-0.387 0.194-0.648 0.588-0.648 1.042 0 0.084 0.009 0.166 0.026 0.246l-0.001-0.008c0.236 1.078 0.724 2.072 1.112 2.746-2.763-0.472-3.825-1.803-4.145-2.359-0.203-0.354-0.58-0.589-1.011-0.59h-0.034c-0.505 0-1.045-0.034-1.55-0.101-0.003-0-0.007-0-0.010-0-0.261 0-0.472 0.211-0.472 0.472 0 0.216 0.145 0.398 0.344 0.454l0.003 0.001c0.556 0.067 1.129 0.118 1.685 0.118h0.034c0.084 0 0.168 0.034 0.185 0.101 1.28 2.19 4.212 2.763 5.391 2.898 0.032 0.005 0.068 0.008 0.106 0.008 0.238 0 0.447-0.123 0.567-0.309l0.002-0.003c0.065-0.102 0.103-0.225 0.103-0.358 0-0.143-0.045-0.276-0.121-0.386l0.001 0.002c-0.371-0.556-1.011-1.685-1.264-2.898-0.002-0.012-0.004-0.026-0.004-0.040 0-0.085 0.049-0.159 0.12-0.196l0.001-0.001zM5.021 14.742c-0.050-0.005-0.107-0.008-0.166-0.008-0.903 0-1.634 0.732-1.634 1.634s0.732 1.634 1.634 1.634c0.058 0 0.116-0.003 0.173-0.009l-0.007 0.001c0.828-0.087 1.469-0.782 1.469-1.626s-0.64-1.539-1.461-1.625l-0.007-0.001zM5.021 17.050c-0.381 0-0.691-0.309-0.691-0.691s0.309-0.691 0.691-0.691v0c0.381 0 0.691 0.309 0.691 0.691s-0.309 0.691-0.691 0.691v0zM9.654 14.742c-0.050-0.005-0.107-0.008-0.166-0.008-0.903 0-1.634 0.732-1.634 1.634s0.732 1.634 1.634 1.634c0.058 0 0.116-0.003 0.173-0.009l-0.007 0.001c0.828-0.087 1.469-0.782 1.469-1.626s-0.64-1.539-1.461-1.625l-0.007-0.001zM9.654 17.050c-0.382 0-0.691-0.309-0.691-0.691s0.309-0.691 0.691-0.691v0c0.382 0 0.691 0.309 0.691 0.691s-0.309 0.691-0.691 0.691v0zM14.287 14.742c-0.050-0.005-0.107-0.008-0.166-0.008-0.903 0-1.634 0.732-1.634 1.634s0.732 1.634 1.634 1.634c0.058 0 0.116-0.003 0.173-0.009l-0.007 0.001c0.828-0.087 1.469-0.782 1.469-1.626s-0.64-1.539-1.461-1.625l-0.007-0.001zM14.287 17.050c-0.382 0-0.691-0.309-0.691-0.691s0.309-0.691 0.691-0.691v0c0.382 0 0.691 0.309 0.691 0.691s-0.309 0.691-0.691 0.691v0zM18.921 14.742c-0.050-0.005-0.107-0.008-0.166-0.008-0.903 0-1.634 0.732-1.634 1.634s0.732 1.634 1.634 1.634c0.058 0 0.116-0.003 0.173-0.009l-0.007 0.001c0.828-0.087 1.469-0.782 1.469-1.626s-0.64-1.539-1.461-1.625l-0.007-0.001zM18.921 17.050c-0.381 0-0.691-0.309-0.691-0.691s0.309-0.691 0.691-0.691v0c0.381 0 0.691 0.309 0.691 0.691s-0.309 0.691-0.691 0.691v0z"></path>
</symbol>
<symbol id="chat-tablet-icon" viewBox="0 0 32 32">
<path fill="#674d40" style="fill: var(--color3, #674d40)" d="M24.63 15.668c0-6.706-6.188-11.096-12.315-11.096-6.173 0-12.315 4.42-12.315 11.096 0 2.53 0.96 5.014 2.713 6.965 0.076 0.076 0.091 0.198 0.076 0.305-0.544 1.972-1.363 3.698-2.43 5.239l0.037-0.057c-0.098 0.14-0.156 0.314-0.156 0.502 0 0.133 0.029 0.259 0.082 0.373l-0.002-0.005c0.122 0.259 0.366 0.427 0.625 0.427h0.015c2.622-0.076 5.655-0.915 7.529-3.048 0.076-0.061 0.152-0.091 0.259-0.061 1.143 0.305 2.347 0.457 3.566 0.457 6.173 0 12.315-4.405 12.315-11.096zM8.962 25.27c-0.087-0.025-0.186-0.039-0.289-0.039-0.335 0-0.636 0.151-0.837 0.388l-0.001 0.002c-1.875 2.103-4.938 2.591-6.401 2.698 0.671-1.052 1.753-2.972 2.256-5.106 0.029-0.111 0.045-0.238 0.045-0.369 0-0.371-0.132-0.71-0.352-0.975l0.002 0.002c-1.503-1.626-2.428-3.806-2.439-6.201v-0.002c0-5.517 5.091-10.014 11.37-10.014 6.264 0 11.37 4.496 11.37 10.014 0 5.533-5.106 10.029-11.37 10.029-1.143 0-2.271-0.152-3.353-0.442z"></path>
<path fill="#674d40" style="fill: var(--color3, #674d40)" d="M27.648 24.615c2.585-1.434 4.315-4.13 4.359-7.234l0-0.006c0-4.161-3.277-7.712-7.773-8.444-0.274-0.046-0.503 0.152-0.549 0.457-0.030 0.305 0.152 0.564 0.412 0.61 4.039 0.655 6.965 3.765 6.965 7.377-0.072 2.694-1.59 5.017-3.803 6.23l-0.038 0.019c-0.389 0.254-0.642 0.686-0.642 1.178 0 0.106 0.012 0.21 0.034 0.309l-0.002-0.009c0.243 1.184 0.623 2.234 1.129 3.207l-0.032-0.068c-2.759-0.533-3.81-2.058-4.146-2.713-0.183-0.382-0.563-0.644-1.005-0.655l-0.001-0h-0.030c-0.005 0-0.011 0-0.017 0-0.543 0-1.075-0.044-1.594-0.13l0.057 0.008c-0.259-0.046-0.488 0.152-0.533 0.457-0.030 0.305 0.152 0.564 0.412 0.61 0.549 0.091 1.113 0.137 1.677 0.137h0.030c0.076 0 0.152 0.046 0.198 0.107 1.265 2.53 4.176 3.17 5.38 3.338 0.259 0.030 0.518-0.107 0.655-0.366 0.152-0.259 0.152-0.579 0-0.838-0.557-0.958-0.994-2.068-1.251-3.247l-0.014-0.076c-0.003-0.015-0.005-0.033-0.005-0.051 0-0.094 0.050-0.177 0.126-0.222l0.001-0.001zM5.030 13.748c-0.915 0-1.631 0.838-1.631 1.859 0 1.036 0.716 1.875 1.616 1.875s1.631-0.838 1.631-1.875c0-1.021-0.732-1.859-1.631-1.859zM5.030 16.4c-0.396 0-0.701-0.351-0.701-0.793 0-0.427 0.305-0.777 0.686-0.777s0.686 0.351 0.686 0.777c0 0.442-0.305 0.793-0.686 0.793zM9.648 13.748c-0.884 0-1.616 0.838-1.616 1.859 0 1.036 0.732 1.875 1.616 1.875 0.915 0 1.631-0.838 1.631-1.875 0-1.021-0.732-1.859-1.631-1.859zM9.648 16.4c-0.381 0-0.686-0.351-0.686-0.793 0-0.427 0.305-0.777 0.686-0.777s0.686 0.351 0.686 0.777c0 0.442-0.305 0.793-0.686 0.793zM14.281 13.748c-0.884 0-1.616 0.838-1.616 1.859 0 1.036 0.732 1.875 1.616 1.875 0.915 0 1.631-0.838 1.631-1.875 0-1.021-0.732-1.859-1.631-1.859zM14.281 16.4c-0.366 0-0.686-0.351-0.686-0.793 0-0.427 0.305-0.777 0.686-0.777s0.701 0.351 0.701 0.777c0 0.442-0.305 0.793-0.701 0.793zM18.93 13.748c-0.915 0-1.631 0.838-1.631 1.859 0 1.036 0.732 1.875 1.631 1.875 0.884 0 1.616-0.838 1.616-1.875 0-1.021-0.732-1.859-1.616-1.859zM18.93 16.4c-0.381 0-0.686-0.351-0.686-0.793 0-0.427 0.305-0.777 0.686-0.777 0.366 0 0.686 0.351 0.686 0.777 0 0.442-0.305 0.793-0.686 0.793z"></path>
</symbol>
<symbol id="chef-hat-desktop-icon" viewBox="0 0 32 32">
<path fill="#674d40" style="fill: var(--color3, #674d40)" d="M23.051 8.58c-0.12-0.008-0.224-0.066-0.294-0.153l-0.001-0.001c-0.079-0.093-0.127-0.213-0.128-0.346v-0c-0.017-1.92-0.726-3.67-1.891-5.017l0.008 0.010c-1.073-1.254-2.65-2.051-4.414-2.075l-0.004-0c-1.639 0-3.227 0.743-4.405 2.075-1.153 1.334-1.863 3.079-1.882 4.99l-0 0.004c0 0.128-0.051 0.256-0.128 0.346-0.073 0.091-0.183 0.15-0.307 0.154l-0.001 0c-0.124-0.004-0.234-0.063-0.307-0.153l-0.001-0.001c-0.079-0.093-0.127-0.213-0.128-0.346v-0c0.010-2.194 0.818-4.197 2.148-5.736l-0.009 0.011c1.222-1.42 3.014-2.32 5.016-2.343l0.004-0c1.882 0 3.688 0.845 5.020 2.356 1.321 1.528 2.128 3.531 2.139 5.722v0.002c0 0.128-0.038 0.256-0.128 0.346-0.070 0.088-0.175 0.146-0.293 0.154l-0.001 0z"></path>
<path fill="#674d40" style="fill: var(--color3, #674d40)" d="M24.318 19.747c-0.125-0.002-0.235-0.061-0.307-0.153l-0.001-0.001c-0.080-0.092-0.128-0.212-0.128-0.344 0-0.001 0-0.002 0-0.002v0c0-0.128 0.038-0.256 0.128-0.346 0.070-0.088 0.175-0.146 0.293-0.154l0.001-0c1.639 0 3.201-0.756 4.367-2.075 1.149-1.34 1.848-3.095 1.848-5.012 0-1.925-0.704-3.685-1.869-5.037l0.008 0.010c-1.079-1.249-2.666-2.034-4.435-2.034-0.668 0-1.309 0.112-1.907 0.318l0.041-0.012c-0.031 0.009-0.068 0.015-0.105 0.015-0.080 0-0.155-0.025-0.216-0.067l0.001 0.001c-0.104-0.063-0.182-0.161-0.217-0.278l-0.001-0.003c-0.011-0.042-0.018-0.090-0.018-0.139 0-0.089 0.021-0.173 0.057-0.248l-0.001 0.003c0.052-0.108 0.142-0.19 0.253-0.23l0.003-0.001c0.627-0.216 1.35-0.341 2.102-0.341 2.019 0 3.828 0.898 5.049 2.317l0.007 0.009c1.315 1.527 2.116 3.529 2.116 5.719 0 2.183-0.796 4.179-2.114 5.716l0.010-0.012c-1.203 1.425-2.975 2.336-4.961 2.382l-0.008 0zM8.349 19.747c-1.994-0.046-3.766-0.957-4.961-2.372l-0.008-0.010c-1.305-1.526-2.1-3.522-2.1-5.704 0-2.189 0.799-4.191 2.122-5.731l-0.010 0.012c1.229-1.429 3.039-2.329 5.059-2.329 0.756 0 1.482 0.126 2.159 0.358l-0.047-0.014c0.114 0.047 0.203 0.133 0.255 0.24l0.001 0.003c0.030 0.066 0.047 0.143 0.047 0.223 0 0.118-0.037 0.227-0.1 0.316l0.001-0.002c-0.034 0.051-0.077 0.094-0.126 0.127l-0.002 0.001c-0.058 0.038-0.13 0.060-0.206 0.060-0.045 0-0.089-0.008-0.13-0.022l0.003 0.001c-0.554-0.192-1.192-0.302-1.857-0.302-1.774 0-3.364 0.79-4.437 2.036l-0.006 0.008c-1.157 1.342-1.862 3.103-1.862 5.029 0 1.912 0.695 3.661 1.845 5.009l-0.009-0.011c1.059 1.25 2.616 2.048 4.36 2.087l0.007 0c0.061 0 0.118 0.014 0.169 0.039l-0.002-0.001c0.051 0.013 0.102 0.051 0.141 0.102 0.076 0.094 0.122 0.214 0.122 0.346s-0.046 0.252-0.123 0.347l0.001-0.001c-0.038 0.047-0.085 0.086-0.138 0.114l-0.002 0.001c-0.049 0.024-0.106 0.038-0.166 0.038h-0z"></path>
<path fill="#674d40" style="fill: var(--color3, #674d40)" d="M24.318 32.015h-15.969c-0.123-0.001-0.232-0.055-0.307-0.14l-0-0c-0.080-0.093-0.128-0.215-0.128-0.348 0-0.004 0-0.007 0-0.011v0.001-12.268c0-0.128 0.051-0.256 0.128-0.346 0.075-0.086 0.185-0.14 0.307-0.141h0c0.115 0 0.23 0.051 0.307 0.128 0.077 0.102 0.128 0.23 0.128 0.359v11.781h15.098v-11.781c0-0.128 0.051-0.256 0.128-0.346 0.075-0.086 0.185-0.14 0.307-0.141h0c0.102 0 0.218 0.051 0.295 0.128 0.090 0.102 0.128 0.23 0.128 0.359v12.268c0 0.128-0.038 0.256-0.128 0.359-0.070 0.080-0.169 0.133-0.28 0.141l-0.001 0z"></path>
<path fill="#674d40" style="fill: var(--color3, #674d40)" d="M24.075 27.878h-15.956c-0.122-0.001-0.232-0.055-0.307-0.14l-0-0c-0.079-0.093-0.127-0.213-0.128-0.346v-0c0-0.128 0.051-0.256 0.128-0.359 0.075-0.086 0.185-0.14 0.307-0.141h15.956c0.115 0 0.23 0.051 0.307 0.141 0.077 0.102 0.128 0.218 0.128 0.359 0 0.128-0.051 0.256-0.128 0.346-0.075 0.086-0.185 0.14-0.307 0.141h-0z"></path>
</symbol>
<symbol id="chef-hat-mobile-icon" viewBox="0 0 32 32">
<path fill="#674d40" style="fill: var(--color3, #674d40)" d="M23.166 9.637c-0.005 0-0.011 0-0.017 0-0.251 0-0.455-0.204-0.455-0.455 0-0 0-0 0-0v0c0-3.694-2.995-6.689-6.689-6.689s-6.689 2.995-6.689 6.689v0c0 0.256-0.207 0.463-0.463 0.463s-0.463-0.207-0.463-0.463v0c0-4.206 3.41-7.615 7.615-7.615s7.615 3.41 7.615 7.615v0c0 0.251-0.204 0.455-0.455 0.455v0z"></path>
<path fill="#674d40" style="fill: var(--color3, #674d40)" d="M24.497 19.982c-0.251 0-0.455-0.204-0.455-0.455s0.204-0.455 0.455-0.455v0c3.624-0.028 6.557-2.949 6.604-6.566l0-0.004c-0.025-3.647-2.987-6.594-6.638-6.594-0.735 0-1.442 0.119-2.102 0.34l0.047-0.014c-0.022 0.004-0.047 0.006-0.073 0.006-0.251 0-0.455-0.204-0.455-0.455 0-0.18 0.104-0.335 0.256-0.409l0.003-0.001c0.673-0.213 1.447-0.335 2.249-0.335 2.086 0 3.979 0.828 5.368 2.173l-0.002-0.002c1.371 1.35 2.229 3.217 2.258 5.285l0 0.005c-0.057 4.12-3.391 7.443-7.511 7.481l-0.004 0zM7.514 19.982c-4.123-0.037-7.458-3.36-7.514-7.475l-0-0.005c0.044-4.145 3.414-7.487 7.564-7.487 0.881 0 1.727 0.151 2.513 0.428l-0.053-0.016c0.108 0.084 0.177 0.214 0.177 0.36 0 0.251-0.204 0.455-0.455 0.455-0.051 0-0.101-0.008-0.146-0.024l0.003 0.001c-0.593-0.188-1.274-0.296-1.981-0.296-1.837 0-3.504 0.73-4.726 1.915l0.002-0.002c-1.211 1.189-1.968 2.838-1.988 4.663l-0 0.004c0.047 3.628 2.99 6.552 6.62 6.571h0.002c0.251 0 0.455 0.204 0.455 0.455s-0.204 0.455-0.455 0.455v0z"></path>
<path fill="#674d40" style="fill: var(--color3, #674d40)" d="M24.497 31.355h-16.983c-0.251 0-0.455-0.204-0.455-0.455v0-11.356c0-0.251 0.204-0.455 0.455-0.455s0.455 0.204 0.455 0.455v0 10.918h16.073v-10.918c0-0.251 0.204-0.455 0.455-0.455s0.455 0.204 0.455 0.455v11.373c0 0.251-0.204 0.455-0.455 0.455v0z"></path>
<path fill="#674d40" style="fill: var(--color3, #674d40)" d="M24.312 26.924h-16.983c-0.251 0-0.455-0.204-0.455-0.455s0.204-0.455 0.455-0.455h16.983c0.251 0 0.455 0.204 0.455 0.455s-0.204 0.455-0.455 0.455v0z"></path>
</symbol>
<symbol id="chef-hat-tablet-icon" viewBox="0 0 32 32">
<path fill="#674d40" style="fill: var(--color3, #674d40)" d="M23.167 9.465c-0.253 0-0.457-0.205-0.457-0.457v0c0-3.704-3.003-6.706-6.706-6.706s-6.706 3.003-6.706 6.706v0c0 0.253-0.205 0.457-0.457 0.457s-0.457-0.205-0.457-0.457v0c0-4.209 3.412-7.621 7.621-7.621s7.621 3.412 7.621 7.621v0c0 0.253-0.205 0.457-0.457 0.457v0z"></path>
<path fill="#674d40" style="fill: var(--color3, #674d40)" d="M24.493 19.814c-0.253 0-0.457-0.205-0.457-0.457s0.205-0.457 0.457-0.457v0c3.619-0.025 6.548-2.939 6.599-6.549l0-0.005c-0.025-3.651-2.991-6.601-6.645-6.601-0.73 0-1.432 0.118-2.089 0.335l0.047-0.013c-0.022 0.004-0.047 0.006-0.072 0.006-0.253 0-0.457-0.205-0.457-0.457 0-0.185 0.11-0.344 0.267-0.416l0.003-0.001c0.676-0.215 1.454-0.339 2.26-0.339 2.084 0 3.975 0.827 5.363 2.17l-0.002-0.002c1.372 1.359 2.226 3.238 2.24 5.316l0 0.003c-0.051 4.12-3.39 7.443-7.512 7.468h-0.002zM7.514 19.814c-4.124-0.025-7.463-3.348-7.514-7.463l-0-0.005c0.041-4.144 3.41-7.487 7.559-7.487 0.885 0 1.734 0.152 2.522 0.431l-0.053-0.016c0.106 0.085 0.173 0.213 0.173 0.358 0 0.253-0.205 0.457-0.457 0.457-0.051 0-0.1-0.008-0.146-0.024l0.003 0.001c-0.596-0.19-1.282-0.299-1.993-0.299-1.831 0-3.493 0.724-4.715 1.901l0.002-0.002c-1.25 1.235-1.966 2.926-1.981 4.679 0.051 3.62 2.99 6.537 6.613 6.554h0.002c0.249 0.004 0.45 0.207 0.45 0.457 0 0.066-0.014 0.129-0.039 0.186l0.001-0.003c-0.072 0.163-0.233 0.274-0.419 0.274-0.003 0-0.005-0-0.008-0h0z"></path>
<path fill="#674d40" style="fill: var(--color3, #674d40)" d="M24.493 31.199h-16.979c-0.253 0-0.457-0.205-0.457-0.457v-11.385c0-0.253 0.205-0.457 0.457-0.457s0.457 0.205 0.457 0.457v10.928h16.064v-10.928c0-0.253 0.205-0.457 0.457-0.457s0.457 0.205 0.457 0.457v0 11.385c0 0.253-0.205 0.457-0.457 0.457v0z"></path>
<path fill="#674d40" style="fill: var(--color3, #674d40)" d="M24.63 26.825h-16.979c-0.253 0-0.457-0.205-0.457-0.457s0.205-0.457 0.457-0.457v0h16.979c0.253 0 0.457 0.205 0.457 0.457s-0.205 0.457-0.457 0.457v0z"></path>
</symbol>
<symbol id="clock-desktop-icon" viewBox="0 0 32 32">
<path fill="#674d40" style="fill: var(--color3, #674d40)" d="M16.007 0c-8.836 0-16.007 7.171-16.007 16.007s7.171 16.007 16.007 16.007 16.007-7.171 16.007-16.007-7.171-16.007-16.007-16.007zM16.007 30.952c-8.251-0.007-14.937-6.694-14.945-14.944v-0.001c0.415-7.928 6.944-14.2 14.938-14.2s14.524 6.271 14.937 14.163l0.002 0.037c0 8.234-6.697 14.945-14.932 14.945z"></path>
<path fill="#674d40" style="fill: var(--color3, #674d40)" d="M16.545 13.882v-5.404c0-0.297-0.241-0.538-0.538-0.538s-0.538 0.241-0.538 0.538v5.404c-0.743 0.192-1.332 0.781-1.524 1.537h-3.803c-0.025-0.004-0.054-0.006-0.083-0.006-0.297 0-0.538 0.241-0.538 0.538s0.241 0.538 0.538 0.538c0.029 0 0.058-0.002 0.086-0.007l-0.003 0h3.803c0.243 0.934 1.079 1.612 2.073 1.612 1.181 0 2.139-0.957 2.139-2.139 0-0.994-0.678-1.829-1.597-2.069l-0.015-0.003zM16.007 17.006c-0.591 0-1.069-0.479-1.069-1.069s0.479-1.069 1.069-1.069v0c0.591 0 1.069 0.479 1.069 1.069s-0.479 1.069-1.069 1.069v0zM16.007 5.276c0.295 0 0.538-0.243 0.538-0.538v-0.538c0-0.297-0.241-0.538-0.538-0.538s-0.538 0.241-0.538 0.538v0.538c0 0.295 0.243 0.538 0.538 0.538zM16.007 26.611c-0.297 0-0.538 0.241-0.538 0.538v0 0.538c0 0.297 0.241 0.538 0.538 0.538s0.538-0.241 0.538-0.538v-0.538c0-0.297-0.241-0.538-0.538-0.538v0zM27.75 15.406h-0.538c-0.297 0-0.538 0.241-0.538 0.538s0.241 0.538 0.538 0.538h0.538c0.297 0 0.538-0.241 0.538-0.538s-0.241-0.538-0.538-0.538v0zM4.802 15.406h-0.538c-0.297 0-0.538 0.241-0.538 0.538s0.241 0.538 0.538 0.538h0.538c0.297 0 0.538-0.241 0.538-0.538s-0.241-0.538-0.538-0.538v0zM23.934 7.261l-0.384 0.384c-0.096 0.097-0.155 0.231-0.155 0.378 0 0.298 0.241 0.539 0.539 0.539 0.15 0 0.286-0.062 0.384-0.161l0-0 0.371-0.384c0.096-0.097 0.155-0.231 0.155-0.378 0-0.298-0.241-0.539-0.539-0.539-0.15 0-0.286 0.062-0.384 0.161l-0 0zM7.709 23.486l-0.384 0.384c-0.096 0.097-0.155 0.231-0.155 0.378 0 0.298 0.241 0.539 0.539 0.539 0.15 0 0.286-0.062 0.384-0.161l0-0 0.371-0.384c0.096-0.097 0.155-0.231 0.155-0.378 0-0.298-0.241-0.539-0.539-0.539-0.15 0-0.286 0.062-0.384 0.161l-0 0zM24.306 23.486c-0.097-0.096-0.231-0.155-0.378-0.155-0.298 0-0.539 0.241-0.539 0.539 0 0.15 0.062 0.286 0.161 0.384l0 0 0.384 0.371c0.097 0.096 0.23 0.155 0.378 0.155s0.281-0.059 0.378-0.155l-0 0c0.1-0.098 0.161-0.234 0.161-0.384s-0.062-0.286-0.161-0.384l-0-0-0.384-0.371zM8.081 7.261c-0.097-0.096-0.231-0.155-0.378-0.155-0.298 0-0.539 0.241-0.539 0.539 0 0.15 0.062 0.286 0.161 0.384l0 0 0.384 0.371c0.097 0.096 0.231 0.155 0.378 0.155s0.281-0.059 0.378-0.155l-0 0c0.1-0.098 0.161-0.234 0.161-0.384s-0.062-0.286-0.161-0.384l-0-0-0.384-0.371z"></path>
</symbol>
<symbol id="clock-mobile-icon" viewBox="0 0 32 32">
<path fill="#674d40" style="fill: var(--color3, #674d40)" d="M16.006 0c-8.527 0.404-15.288 7.415-15.288 16.006s6.761 15.602 15.252 16.005l0.036 0.001c8.527-0.404 15.288-7.415 15.288-16.006s-6.761-15.602-15.252-16.005l-0.036-0.001zM16.006 30.95c-7.952-0.389-14.251-6.931-14.251-14.944s6.3-14.555 14.217-14.943l0.035-0.001c7.952 0.389 14.251 6.931 14.251 14.944s-6.3 14.555-14.217 14.943l-0.035 0.001z"></path>
<path fill="#674d40" style="fill: var(--color3, #674d40)" d="M16.545 13.883v-5.408c0-0.298-0.241-0.539-0.539-0.539s-0.539 0.241-0.539 0.539v0 5.408c-0.741 0.202-1.331 0.775-1.516 1.516h-3.808c-0.298 0-0.539 0.241-0.539 0.539s0.241 0.539 0.539 0.539v0h3.808c0.24 0.938 1.078 1.621 2.076 1.621 1.182 0 2.14-0.958 2.14-2.14 0-0.998-0.683-1.836-1.606-2.073l-0.015-0.003zM16.006 17.017c-0.591 0-1.070-0.479-1.070-1.070s0.479-1.070 1.070-1.070v0c0.591 0 1.070 0.479 1.070 1.070s-0.479 1.070-1.070 1.070v0zM16.006 5.274c0.286 0 0.539-0.236 0.539-0.539v-0.522c0-0.298-0.241-0.539-0.539-0.539s-0.539 0.241-0.539 0.539v0 0.539c0 0.303 0.253 0.539 0.539 0.539zM16.006 26.62c-0 0-0 0-0 0-0.292 0-0.53 0.232-0.539 0.521l-0 0.001v0.539c0 0.298 0.241 0.539 0.539 0.539s0.539-0.241 0.539-0.539v0-0.539c0-0.298-0.241-0.539-0.539-0.539v0zM27.749 15.416h-0.539c-0.029-0.005-0.061-0.008-0.095-0.008-0.298 0-0.539 0.241-0.539 0.539s0.241 0.539 0.539 0.539c0.034 0 0.066-0.003 0.098-0.009l-0.003 0h0.539c0.029 0.005 0.061 0.008 0.095 0.008 0.298 0 0.539-0.241 0.539-0.539s-0.241-0.539-0.539-0.539c-0.034 0-0.066 0.003-0.098 0.009l0.003-0.001zM4.802 15.416h-0.539c-0.029-0.005-0.061-0.008-0.095-0.008-0.298 0-0.539 0.241-0.539 0.539s0.241 0.539 0.539 0.539c0.034 0 0.066-0.003 0.098-0.009l-0.003 0h0.539c0.029 0.005 0.061 0.008 0.095 0.008 0.298 0 0.539-0.241 0.539-0.539s-0.241-0.539-0.539-0.539c-0.034 0-0.066 0.003-0.098 0.009l0.003-0.001zM23.925 7.262l-0.371 0.388c-0.139 0.099-0.229 0.259-0.229 0.441 0 0.298 0.241 0.539 0.539 0.539 0.186 0 0.349-0.094 0.446-0.237l0.001-0.002 0.371-0.371c0.123-0.1 0.2-0.25 0.2-0.42 0-0.298-0.241-0.539-0.539-0.539-0.169 0-0.32 0.078-0.419 0.199l-0.001 0.001zM7.7 23.486l-0.371 0.371c-0.123 0.1-0.2 0.25-0.2 0.419 0 0.298 0.241 0.539 0.539 0.539 0.169 0 0.32-0.078 0.419-0.199l0.001-0.001 0.371-0.371c0.123-0.1 0.2-0.25 0.2-0.419 0-0.298-0.241-0.539-0.539-0.539-0.169 0-0.32 0.078-0.419 0.199l-0.001 0.001zM24.312 23.486c-0.1-0.123-0.25-0.2-0.419-0.2-0.298 0-0.539 0.241-0.539 0.539 0 0.169 0.078 0.32 0.199 0.419l0.001 0.001 0.371 0.371c0.1 0.123 0.25 0.2 0.419 0.2 0.298 0 0.539-0.241 0.539-0.539 0-0.169-0.078-0.32-0.199-0.419l-0.001-0.001-0.371-0.371zM8.087 7.262c-0.1-0.123-0.25-0.2-0.42-0.2-0.298 0-0.539 0.241-0.539 0.539 0 0.169 0.078 0.32 0.199 0.419l0.001 0.001 0.371 0.371c0.097 0.096 0.231 0.156 0.379 0.156s0.282-0.059 0.379-0.156l-0 0c0.091-0.096 0.148-0.227 0.148-0.371s-0.056-0.274-0.148-0.371l0 0-0.371-0.404z"></path>
</symbol>
<symbol id="clock-tablet-icon" viewBox="0 0 32 32">
<path fill="#674d40" style="fill: var(--color3, #674d40)" d="M16.004 0c-8.541 0.384-15.32 7.402-15.32 16.004s6.779 15.619 15.286 16.002l0.035 0.001c8.541-0.384 15.32-7.402 15.32-16.004s-6.779-15.619-15.286-16.002l-0.035-0.001zM16.004 30.94c-7.962-0.371-14.277-6.916-14.277-14.937s6.315-14.566 14.244-14.935l0.033-0.001c7.962 0.371 14.277 6.916 14.277 14.937s-6.315 14.566-14.244 14.935l-0.033 0.001z"></path>
<path fill="#674d40" style="fill: var(--color3, #674d40)" d="M16.537 13.87v-5.38c0-0.295-0.239-0.533-0.533-0.533s-0.533 0.239-0.533 0.533v5.38c-0.747 0.2-1.324 0.777-1.521 1.509l-0.003 0.015h-3.81c-0.295 0-0.533 0.239-0.533 0.533s0.239 0.533 0.533 0.533h3.81c0.241 0.933 1.076 1.612 2.069 1.612 1.178 0 2.134-0.955 2.134-2.134 0-0.993-0.678-1.828-1.597-2.066l-0.015-0.003zM16.004 17.009c-0.589 0-1.067-0.478-1.067-1.067s0.478-1.067 1.067-1.067v0c0.589 0 1.067 0.478 1.067 1.067s-0.478 1.067-1.067 1.067v0zM16.004 5.274c0.305 0 0.533-0.244 0.533-0.533v-0.533c0-0.295-0.239-0.533-0.533-0.533s-0.533 0.239-0.533 0.533v0.533c0 0.305 0.244 0.533 0.533 0.533zM16.004 26.612c-0.305 0-0.533 0.229-0.533 0.533v0.533c0 0.295 0.239 0.533 0.533 0.533s0.533-0.239 0.533-0.533v-0.533c0-0.305-0.244-0.533-0.533-0.533zM27.739 15.394h-0.533c-0.295 0-0.533 0.239-0.533 0.533s0.239 0.533 0.533 0.533h0.533c0.295 0 0.533-0.239 0.533-0.533s-0.239-0.533-0.533-0.533v0zM4.801 15.394h-0.533c-0.295 0-0.533 0.239-0.533 0.533s0.239 0.533 0.533 0.533h0.533c0.295 0 0.533-0.239 0.533-0.533s-0.239-0.533-0.533-0.533v0zM23.929 7.27l-0.381 0.366c-0.098 0.098-0.158 0.232-0.158 0.381 0 0.298 0.241 0.539 0.539 0.539 0.149 0 0.284-0.060 0.381-0.158v0l0.366-0.381c0.098-0.098 0.158-0.232 0.158-0.381 0-0.298-0.241-0.539-0.539-0.539-0.149 0-0.284 0.060-0.381 0.158v0zM7.712 23.472l-0.381 0.381c-0.098 0.098-0.158 0.232-0.158 0.381 0 0.298 0.241 0.539 0.539 0.539 0.149 0 0.284-0.060 0.381-0.158v0l0.366-0.381c0.098-0.098 0.158-0.232 0.158-0.381 0-0.298-0.241-0.539-0.539-0.539-0.149 0-0.284 0.060-0.381 0.158v0zM24.295 23.472c-0.096-0.094-0.228-0.152-0.373-0.152-0.295 0-0.534 0.239-0.534 0.534 0 0.149 0.061 0.284 0.16 0.381l0.381 0.381c0.098 0.098 0.232 0.158 0.381 0.158 0.298 0 0.539-0.241 0.539-0.539 0-0.149-0.060-0.284-0.158-0.381v0l-0.396-0.366zM8.078 7.27c-0.097-0.099-0.232-0.16-0.381-0.16-0.295 0-0.534 0.239-0.534 0.534 0 0.145 0.058 0.277 0.153 0.374l-0-0 0.396 0.381c0.096 0.094 0.228 0.152 0.373 0.152s0.277-0.058 0.373-0.153l-0 0c0.099-0.097 0.16-0.232 0.16-0.381s-0.061-0.284-0.16-0.381l-0-0-0.381-0.366z"></path>
</symbol>
<symbol id="close-icon" viewBox="0 0 32 32">
<path d="M30.351 32.004c0.902-0.015 1.627-0.75 1.627-1.653 0-0.45-0.18-0.858-0.471-1.156l0 0-28.679-28.715c-0.305-0.387-0.775-0.634-1.302-0.634-0.913 0-1.654 0.74-1.654 1.654 0 0.531 0.251 1.004 0.64 1.307l0.004 0.003 28.697 28.715c0.32 0.32 0.747 0.48 1.156 0.48z"></path>
<path d="M1.654 32.004c0.409 0 0.836-0.16 1.156-0.48l28.715-28.715c0.215-0.276 0.344-0.628 0.344-1.010 0-0.913-0.74-1.654-1.654-1.654-0.386 0-0.742 0.133-1.023 0.355l0.003-0.003-28.715 28.679c-0.302 0.3-0.489 0.715-0.489 1.174 0 0.913 0.74 1.654 1.654 1.654 0.003 0 0.006 0 0.009-0h-0z"></path>
</symbol>
<symbol id="facebook-icon" viewBox="0 0 32 32">
<path d="M22.527 0h-3.621c-4.061 0-6.702 3.101-6.702 7.882v3.621h-3.641c-0.3 0-0.56 0.3-0.56 0.66v5.262c0 0.36 0.26 0.66 0.56 0.66h3.641v13.264c0 0.36 0.26 0.66 0.58 0.66h4.741c0.32 0 0.56-0.3 0.56-0.66v-13.264h4.261c0.32 0 0.56-0.3 0.56-0.66v-5.262c0-0.004 0-0.009 0-0.014 0-0.17-0.061-0.326-0.161-0.447l0.001 0.001c-0.096-0.118-0.238-0.194-0.399-0.2l-0.001-0h-4.261v-3.081c0-1.48 0.32-2.221 2.001-2.221h2.441c0.3 0 0.56-0.3 0.56-0.66v-4.881c0-0.36-0.26-0.66-0.56-0.66z"></path>
</symbol>
<symbol id="instagram-icon" viewBox="0 0 32 32">
<path d="M16.325 32.009h-0.32c-2.521 0-4.821-0.060-7.082-0.2-2.083-0.101-3.972-0.862-5.48-2.075l0.018 0.014c-1.441-1.201-2.483-2.835-2.929-4.702l-0.012-0.060c-0.44-1.701-0.46-3.381-0.48-4.981-0.014-1.18-0.022-2.575-0.022-3.971s0.008-2.79 0.024-4.183l-0.002 0.211c0-1.64 0.040-3.321 0.48-5.021 0.5-1.981 1.5-3.581 2.941-4.761 1.5-1.24 3.401-1.961 5.462-2.081 2.261-0.14 4.561-0.2 7.082-0.2s4.821 0.060 7.082 0.2c2.061 0.12 3.961 0.84 5.462 2.061 1.44 1.2 2.441 2.781 2.941 4.761 0.44 1.7 0.46 3.401 0.48 5.001l0.040 3.981-0.040 3.961c0 1.64-0.040 3.321-0.48 5.021-0.458 1.926-1.5 3.56-2.927 4.75l-0.014 0.011c-1.5 1.22-3.401 1.941-5.462 2.061-2.161 0.14-4.381 0.2-6.762 0.2zM16.005 29.509c2.461 0 4.741-0.060 6.942-0.2 2.983-0.023 5.472-2.108 6.114-4.899l0.008-0.043c0.36-1.4 0.4-2.941 0.4-4.441 0.014-1.166 0.021-2.543 0.021-3.921s-0.008-2.756-0.023-4.131l0.002 0.21c0.005-0.159 0.007-0.345 0.007-0.532 0-1.391-0.148-2.748-0.43-4.055l0.023 0.126c-0.327-1.382-1.072-2.555-2.091-3.413l-0.010-0.008c-1.096-0.882-2.488-1.437-4.007-1.5l-0.014-0c-2.201-0.14-4.481-0.2-6.942-0.2s-4.741 0.060-6.942 0.2c-2.983 0.023-5.472 2.108-6.114 4.899l-0.008 0.043c-0.36 1.4-0.4 2.941-0.4 4.441-0.014 1.166-0.022 2.542-0.022 3.921s0.008 2.756 0.024 4.131l-0.002-0.209c0 1.5 0.040 3.021 0.4 4.461s1.080 2.601 2.101 3.421c1.12 0.9 2.461 1.4 4.021 1.5 2.201 0.14 4.481 0.2 6.942 0.2zM15.945 23.827c-4.326 0-7.832-3.507-7.832-7.832s3.507-7.832 7.832-7.832v0c4.326 0 7.832 3.507 7.832 7.832s-3.507 7.832-7.832 7.832v0zM15.945 10.683c-2.939 0-5.322 2.383-5.322 5.322s2.383 5.322 5.322 5.322v0c2.939 0 5.322-2.383 5.322-5.322s-2.383-5.322-5.322-5.322v0zM24.627 5.682c-1.039 0-1.881 0.842-1.881 1.881s0.842 1.881 1.881 1.881v0c1.039 0 1.881-0.842 1.881-1.881s-0.842-1.881-1.881-1.881v0z"></path>
</symbol>
<symbol id="location-icon" viewBox="0 0 23 32">
<path d="M11.738 0c6.469 0 11.742 5.124 11.742 11.444 0 2.498-0.811 4.868-2.348 6.853l-8.668 11.401-0.085 0.064c-0.427 0.427-1.067 0.342-1.366-0.064-2.477-3.245-7.067-9.33-8.839-11.614-1.36-1.829-2.178-4.131-2.178-6.625 0-0.013 0-0.025 0-0.038v0.002c0.108-6.332 5.266-11.423 11.613-11.423 0.046 0 0.091 0 0.137 0.001l-0.007-0zM11.738 17.614c3.48 0 6.341-2.775 6.341-6.17 0-3.416-2.861-6.191-6.341-6.191-0.019-0-0.042-0-0.065-0-3.437 0-6.228 2.762-6.276 6.187l-0 0.005c0 3.416 2.861 6.191 6.341 6.191z"></path>
</symbol>
<symbol id="logo-desktop-icon" viewBox="0 0 61 32">
<path d="M36.153 16.031c0 0.254-0.008 0.513 0 0.771 0.077 2.602-0.628 4.947-1.762 7.16-0.296 0.545-0.655 1.291-0.987 2.052l-0.085 0.219c-0.22 0.598-0.656 1.072-1.212 1.336l-0.014 0.006c-0.348 0.176-0.646 0.395-0.902 0.655l-0 0c-1.178 1.118-2.573 2.020-4.115 2.633l-0.087 0.031c-1.014 0.397-2.055 0.748-3.158 0.733-0.328 0-0.655 0.116-0.983 0.116-0.332 0-0.655-0.123-0.983-0.108-1.419 0.069-2.737-0.432-4.041-0.96-1.427-0.578-2.683-1.484-3.867-2.568-1.669-1.531-2.857-3.454-3.732-5.66-0.476-1.089-0.817-2.352-0.959-3.675l-0.005-0.057c-0.019-0.22-0.081-0.436-0.135-0.648-0.397-1.48-0.17-2.93 0.077-4.403 0.178-1.26 0.438-2.378 0.785-3.458l-0.041 0.146c0.964-2.83 2.506-5.147 4.627-6.967 1.618-1.411 3.626-2.417 5.84-2.837l0.078-0.012c0.65-0.127 1.397-0.199 2.161-0.199 1.841 0 3.584 0.42 5.138 1.171l-0.071-0.031c1.172 0.54 2.275 1.218 3.239 2.12 0.889 0.859 1.702 1.784 2.436 2.77l0.043 0.060c0.694 0.91 1.188 1.993 1.627 3.104 0.686 1.727 1.133 3.516 1.091 5.44-0.012 0.355-0.004 0.709-0.004 1.060zM35.2 12.53c-0.066-0.601-0.112-1.303-0.239-1.982-0.366-1.955-1.349-3.482-2.66-4.731-0.74-0.706-1.55-1.322-2.352-1.951-0.25-0.214-0.551-0.376-0.882-0.467l-0.016-0.004c-0.814-0.173-1.635-0.335-2.46-0.386-1.427-0.077-2.71-0.505-3.79-1.65-0.794-0.841-1.658-0.925-2.487-0.181-0.933 0.837-2.001 1.33-3.084 1.82-0.794 0.355-1.561 0.81-2.325 1.253-0.605 0.336-1.007 0.971-1.007 1.7 0 0.046 0.002 0.092 0.005 0.137l-0-0.006c0.001 0.019 0.002 0.041 0.002 0.063 0 0.462-0.232 0.87-0.587 1.113l-0.005 0.003c-0.332 0.231-0.648 0.482-0.952 0.756-0.848 0.771-1.504 1.631-1.646 2.973-0.116 1.060-0.389 2.109-1.022 2.98-0.206 0.295-0.343 0.653-0.377 1.040l-0.001 0.008c-0.058 0.794-0.031 1.596-0.015 2.39 0.004 0.216 0.085 0.443 0.181 0.632 0.257 0.525 0.493 0.948 0.748 1.358l-0.038-0.066c0.617 0.991 1.157 2.005 1.284 3.266 0.095 1.193 0.652 2.239 1.491 2.972l0.005 0.004c1.253 1.099 2.464 2.267 3.74 3.339 0.682 0.578 1.415 1.080 2.313 1.195 0.906 0.116 1.789 0.401 2.599 0.925 0.17 0.104 0.355 0.17 0.547 0.193 1.141 0.143 2.198-0.181 3.2-0.798 0.316-0.193 0.636-0.37 0.964-0.54 0.783-0.401 1.65-0.667 2.333-1.23 0.677-0.543 1.506-0.925 2.414-1.075l0.031-0.004c0.374-0.077 0.682-0.254 0.925-0.578 0.297-0.382 0.567-0.787 0.871-1.157 0.322-0.357 0.538-0.814 0.597-1.319l0.001-0.011c0.111-0.853 0.389-1.622 0.801-2.301l-0.015 0.026c0.619-1.134 1.057-2.457 1.232-3.863l0.006-0.055c0.054-0.37 0.081-0.682-0.077-1.002-0.455-0.937-0.27-2.001-0.413-2.996-0.077-0.54 0.093-1.126 0.166-1.797zM29.691 3.189c-0.193-0.247-0.254-0.359-0.339-0.428-0.158-0.127-0.332-0.231-0.501-0.339-1.434-0.929-3.007-1.384-4.615-1.708-0.324-0.066-0.663-0.039-0.995-0.023-0.085 0-0.189 0.1-0.243 0.185-0.023 0.039 0.031 0.177 0.077 0.243 0.339 0.472 0.797 0.84 1.329 1.064l0.020 0.008c0.91 0.378 1.866 0.582 2.83 0.613 0.409 0.012 0.817 0.1 1.222 0.166 0.347 0.058 0.694 0.123 1.214 0.22zM17.485 30.054c-0.964-0.91-1.808-1.72-2.668-2.506-0.713-0.655-1.442-1.288-2.167-1.92-0.085-0.069-0.212-0.066-0.393-0.12 0.879 1.696 3.809 4.272 5.228 4.546zM10.988 8.868c0.582-0.509 1.118-1.049 1.712-1.496 0.829-0.617 1.145-1.392 0.948-2.718-0.586 0.551-1.006 1.218-1.461 1.824-0.478 0.64-0.833 1.4-1.234 2.117-0.031 0.058 0.019 0.17 0.039 0.274zM30.601 28.222c-0.54-0.039-1.087 0.069-1.427 0.405-0.648 0.64-1.415 0.964-2.198 1.284-0.409 0.166-0.798 0.413-1.184 0.648-0.054 0.035-0.062 0.204-0.054 0.308 0.004 0.035 0.15 0.089 0.208 0.066 0.702-0.274 1.427-0.497 2.094-0.864 0.814-0.451 1.581-1.022 2.36-1.55 0.081-0.054 0.123-0.177 0.201-0.293zM9.874 19.355c-0.069 0.18-0.109 0.388-0.109 0.606 0 0.189 0.030 0.37 0.086 0.54l-0.003-0.012c0.27 0.867 0.44 1.781 0.925 2.537 0.185 0.281 0.224 0.91 0.559 0.771 0.293-0.116-0.050-0.617-0.073-0.948-0.077-1.28-0.659-2.313-1.384-3.493zM15.137 3.416l0.077 0.123c0.401-0.17 0.81-0.335 1.214-0.521 0.871-0.405 1.739-0.81 2.606-1.234 0.174-0.081 0.335-0.22 0.486-0.355 0.039-0.039 0.031-0.173 0.019-0.254-0.008-0.039-0.089-0.077-0.135-0.077-0.085 0-0.162 0.015-0.243 0.042-1.176 0.386-2.286 0.956-3.354 1.65-0.247 0.162-0.447 0.413-0.671 0.625zM35.829 17.157c0.069-0.096 0.127-0.135 0.131-0.181 0.116-1.396-0.015-2.776-0.181-4.152-0.008-0.069-0.089-0.17-0.147-0.177-0.062-0.012-0.162 0.050-0.2 0.116-0.060 0.099-0.101 0.218-0.112 0.344l-0 0.003c-0.062 1.133 0 2.275 0.193 3.393 0.039 0.224 0.2 0.424 0.316 0.655zM9.592 13.309c0.459-0.204 0.528-0.567 0.578-0.898 0.116-0.806 0.42-1.581 0.32-2.429-0.482 1.014-0.906 2.043-0.898 3.327zM20.719 30.983c-1.033-0.528-1.311-0.578-2.228-0.436 0.386 0.17 0.74 0.44 1.091 0.443 0.366 0.008 0.763 0.524 1.137-0.008z"></path>
<path d="M22.844 20.542c-0.706-0.015-1.188-0.355-1.546-1.010-0.335-0.613-0.891-0.929-1.4-1.311-0.64-0.47-1.164-1.006-1.311-1.97-0.104-0.655 0.015-1.222 0.247-1.735 0.209-0.444 0.516-0.811 0.894-1.086l0.008-0.006c0.389-0.278 0.717-0.54 0.898-1.053 0.204-0.59 0.721-0.625 1.18-0.733 0.432-0.1 0.871-0.166 1.295-0.289 0.578-0.17 1.11-0.116 1.534 0.405 0.328 0.405 0.713 0.694 1.137 0.941 0.447 0.254 0.594 0.551 0.455 1.083-0.096 0.362-0.004 0.609 0.116 0.898 0.123 0.316 0.258 0.636 0.347 0.968 0.289 1.107-0.046 2.040-0.948 2.533-0.559 0.305-0.987 0.709-1.126 1.427-0.054 0.289-0.212 0.455-0.432 0.528-0.447 0.15-0.898 0.274-1.349 0.409zM25.801 15.9c0.015-1.951-1.268-3.508-2.938-3.508-1.496 0-3.003 1.164-3.061 3.401-0.046 1.793 1.245 3.458 2.934 3.466 2.055 0.012 3.027-1.631 3.065-3.354zM19.786 17.766c0-0.251 0.019-0.378-0.004-0.494-0.224-1.060-0.366-2.109 0.135-3.131 0.039-0.073-0.046-0.224-0.077-0.339-0.096 0.039-0.216 0.046-0.289 0.116-0.453 0.47-0.732 1.111-0.732 1.817 0 0.817 0.373 1.546 0.959 2.027l0.005 0.004zM22.867 11.898c0.347 0.146 0.544 0.251 0.752 0.316 0.763 0.231 1.415 0.655 1.87 1.427 0.089 0.15 0.204 0.378 0.378 0.204 0.089-0.093 0.12-0.378 0.066-0.517-0.069-0.189-0.231-0.424-0.386-0.463-0.42-0.1-0.648-0.447-0.925-0.756-0.459-0.509-0.972-0.667-1.754-0.212zM22.817 19.578l-0.008-0.077c-0.22 0-0.443-0.019-0.659 0.012-0.116 0.015-0.216 0.123-0.32 0.193 0.096 0.096 0.181 0.251 0.289 0.281 0.594 0.174 1.195 0.212 1.774-0.054 0.104-0.046 0.212-0.104 0.278-0.193 0.054-0.081 0.073-0.224 0.062-0.328-0.004-0.039-0.143-0.1-0.212-0.085-0.401 0.069-0.802 0.162-1.199 0.247zM25.847 17.573c0.413-0.085 0.594-0.351 0.617-0.76 0.019-0.347 0.015-0.694-0.012-1.041-0.004-0.089-0.116-0.17-0.177-0.254-0.093 0.1-0.278 0.231-0.262 0.293 0.166 0.598-0.181 1.133-0.166 1.762zM29.602 20.28c-0.023 0.012-0.116 0.104-0.22 0.116-0.096 0.012-0.231-0.023-0.289-0.1-0.293-0.378-0.578-0.771-0.837-1.176-0.069-0.108-0.096-0.393-0.058-0.42 0.127-0.077 0.378-0.166 0.436-0.096 0.332 0.424 0.617 0.883 0.918 1.334 0.031 0.046 0.019 0.123 0.050 0.339zM15.63 23.557c0.154 0.019 0.451 0.027 0.744 0.085 0.077 0.015 0.174 0.181 0.174 0.278 0 0.1-0.085 0.27-0.158 0.289-0.571 0.166-1.141 0.204-1.646-0.231-0.029-0.032-0.052-0.071-0.065-0.114l-0.001-0.002c-0.010-0.031-0.017-0.067-0.017-0.104 0-0.010 0-0.019 0.001-0.028l-0 0.001c0.012-0.066 0.1-0.154 0.162-0.162 0.216-0.019 0.436-0.008 0.806-0.008zM33.531 9.716l0.216 0.135c-0.062 0.127-0.1 0.332-0.189 0.366-0.351 0.155-0.772 0.298-1.206 0.405l-0.055 0.011c-0.123 0.027-0.305-0.112-0.42-0.227-0.131-0.135-0.050-0.424 0.116-0.451 0.486-0.089 0.975-0.154 1.538-0.239zM18.988 26.379c0.231 0.123 0.42 0.154 0.513 0.289 0.258 0.366 0.49 0.748 0.702 1.153 0.1 0.193 0.008 0.397-0.166 0.451-0.093 0.031-0.266-0.058-0.335-0.154-0.278-0.389-0.54-0.794-0.771-1.218-0.058-0.1 0.027-0.301 0.058-0.52zM27.952 11.143c0.015-0.108 0-0.239 0.046-0.285 0.062-0.066 0.193-0.12 0.258-0.085 0.085 0.046 0.143 0.177 0.201 0.281 0.166 0.285 0.332 0.574 0.49 0.867 0.069 0.131 0.166 0.27 0.17 0.413 0.008 0.127-0.062 0.297-0.146 0.386-0.046 0.054-0.243 0.019-0.293-0.050-0.316-0.463-0.694-0.894-0.721-1.523zM28.939 6.231c-0.069 0.47-0.096 0.821-0.177 1.153-0.050 0.181-0.143 0.339-0.27 0.455-0.093 0.085-0.251 0.073-0.378 0.104-0.012-0.139-0.050-0.281-0.027-0.413 0.066-0.401 0.154-0.798 0.235-1.195 0.008-0.035 0.004-0.066 0.012-0.096 0.066-0.243 0.201-0.424 0.416-0.324 0.112 0.050 0.162 0.27 0.189 0.316zM23.040 9.303c0.193 0.027 0.44 0.039 0.679 0.108 0.077 0.023 0.201 0.193 0.185 0.262-0.023 0.131-0.116 0.301-0.216 0.339-0.154 0.058-0.324 0.058-0.482 0-0.274-0.096-0.528-0.131-0.802 0-0.177 0.089-0.347-0.004-0.393-0.208-0.066-0.278 0.116-0.409 0.316-0.451 0.216-0.039 0.44-0.035 0.713-0.050zM27.308 22.875c-0.077 0.389-0.139 0.733-0.224 1.068-0.015 0.066-0.135 0.154-0.185 0.139-0.093-0.023-0.22-0.108-0.239-0.193-0.039-0.185-0.046-0.378-0.012-0.567 0.062-0.343 0.127-0.667 0.004-1.018-0.058-0.17-0.039-0.44 0.181-0.436 0.12 0 0.293 0.17 0.347 0.308 0.085 0.227 0.093 0.49 0.127 0.698zM23.943 22.775c-0.046 0.093-0.069 0.201-0.127 0.247-0.359 0.285-0.721 0.571-1.099 0.821-0.096 0.066-0.27 0.027-0.389-0.015-0.181-0.062-0.22-0.335-0.069-0.447 0.413-0.308 0.833-0.609 1.257-0.891 0.069-0.046 0.208 0 0.297 0.054 0.058 0.035 0.085 0.146 0.131 0.231zM19.355 4.411c0.054 0.039 0.166 0.073 0.181 0.135 0.143 0.605 0.281 1.214 0.393 1.831 0.031 0.17-0.166 0.262-0.297 0.162-0.413-0.32-0.671-1.508-0.428-2.005 0.023-0.050 0.085-0.073 0.146-0.123zM24.463 6.13c-0.127-0.093-0.258-0.143-0.278-0.224-0.019-0.093 0.042-0.243 0.116-0.316 0.301-0.308 0.617-0.605 0.948-0.879 0.116-0.093 0.343-0.154 0.428-0.085 0.201 0.162 0.096 0.393-0.042 0.563-0.193 0.227-0.378 0.463-0.598 0.648-0.166 0.139-0.378 0.2-0.578 0.297zM16.598 9.338l-0.301 0.328c-0.089-0.104-0.216-0.193-0.251-0.324-0.146-0.501-0.27-1.014-0.386-1.527-0.012-0.069 0.039-0.212 0.089-0.239 0.081-0.039 0.22-0.054 0.285 0 0.123 0.108 0.27 0.251 0.308 0.413 0.108 0.416 0.166 0.848 0.254 1.349zM13.286 17.759c-0.278 0.586-0.486 1.184-1.002 1.504-0.089 0.054-0.281-0.015-0.374-0.1-0.154-0.143 0-0.262 0.077-0.386 0.243-0.386 0.466-0.787 0.725-1.157 0.066-0.096 0.231-0.143 0.347-0.127 0.077 0.008 0.143 0.158 0.231 0.266zM16.424 17.809c0.143 0.096 0.247 0.123 0.266 0.189 0.031 0.104 0.050 0.27 0 0.339-0.077 0.116-0.216 0.181-0.332 0.258-0.305 0.201-0.605 0.413-0.918 0.578-0.096 0.054-0.27 0.039-0.359-0.031-0.174-0.143-0.116-0.374 0.027-0.478 0.436-0.308 0.887-0.586 1.311-0.856zM32.105 15.156c-0.112 0.289-0.27 0.729-0.455 1.145-0.027 0.066-0.208 0.1-0.285 0.062-0.069-0.039-0.146-0.201-0.131-0.289 0.077-0.463 0.154-0.933 0.281-1.384 0.039-0.139 0.212-0.262 0.347-0.308 0.046-0.015 0.177 0.197 0.235 0.328 0.039 0.077 0.008 0.189 0.008 0.447zM13.201 11.682c0.49 0.501 0.432 1.195 0.486 1.828 0.012 0.116-0.116 0.289-0.22 0.374-0.054 0.042-0.27-0.027-0.274-0.069-0.077-0.644-0.139-1.288-0.185-1.935-0.004-0.054 0.112-0.12 0.193-0.2zM24.671 27.378l0.243 0.093c0.293 0.158 0.59 0.308 0.879 0.486 0.135 0.077 0.27 0.181 0.37 0.312 0.116 0.154-0.015 0.443-0.174 0.405-0.536-0.135-1.056-0.32-1.457-0.779-0.058-0.069-0.058-0.239-0.039-0.355 0.012-0.062 0.116-0.108 0.177-0.162zM18.159 11.864c0.031 0.104 0.127 0.262 0.093 0.359-0.181 0.528-0.386 1.041-0.598 1.55-0.027 0.062-0.139 0.116-0.204 0.108-0.058-0.008-0.135-0.1-0.154-0.17-0.108-0.571 0.243-1.588 0.64-1.843 0.039-0.027 0.104 0 0.224 0zM33.458 20.488c-0.062-0.042-0.189-0.1-0.254-0.204-0.027-0.042 0.058-0.231 0.131-0.297 0.3-0.255 0.632-0.508 0.976-0.744l0.041-0.027c0.093-0.066 0.289-0.069 0.359 0 0.066 0.066 0.077 0.316 0.015 0.409-0.293 0.47-0.663 0.829-1.268 0.864zM31.426 24.544c-0.254-0.031-0.362-0.035-0.47-0.062-0.046-0.012-0.112-0.073-0.112-0.112-0.004-0.089 0.015-0.177 0.058-0.254 0.054-0.069 0.127-0.123 0.204-0.146 0.393-0.135 0.783-0.27 1.18-0.382 0.089-0.023 0.27 0.039 0.281 0.1 0.023 0.131-0.008 0.297-0.050 0.432-0.027 0.069-0.123 0.131-0.197 0.154-0.339 0.112-0.682 0.204-0.894 0.27zM19.644 21.29c-0.031 0.135-0.077 0.44-0.162 0.729-0.023 0.069-0.193 0.139-0.27 0.116-0.081-0.027-0.174-0.177-0.17-0.27 0.008-0.532 0.031-1.064 0.077-1.592 0.008-0.116 0.135-0.216 0.208-0.324 0.089 0.104 0.231 0.201 0.254 0.324 0.046 0.27 0.039 0.559 0.062 1.018zM37.98 4.673c0-1.126 0.239-1.978 0.709-2.56 0.418-0.539 1.066-0.883 1.794-0.883 0.016 0 0.032 0 0.048 0l-0.002-0c0.028-0.001 0.060-0.002 0.093-0.002 0.671 0 1.272 0.295 1.682 0.763l0.002 0.003c0.447 0.505 0.671 1.315 0.671 2.429 0 1.11-0.235 1.951-0.709 2.521-0.432 0.523-1.080 0.854-1.806 0.854-0.031 0-0.061-0.001-0.092-0.002l0.004 0c-0.024 0.001-0.052 0.001-0.080 0.001-0.626 0-1.192-0.259-1.597-0.676l-0.001-0.001c-0.241-0.27-0.423-0.597-0.524-0.958l-0.004-0.017c-0.118-0.415-0.186-0.892-0.186-1.385 0-0.031 0-0.062 0.001-0.093l-0 0.005zM40.502 1.327c-0.54 0-0.987 0.278-1.338 0.833-0.343 0.555-0.513 1.373-0.513 2.448s0.162 1.858 0.49 2.352c0.266 0.448 0.747 0.744 1.298 0.744 0.003 0 0.007 0 0.010-0h-0.001c0.547 0 0.995-0.278 1.338-0.833 0.347-0.563 0.524-1.376 0.524-2.441 0-1.068-0.17-1.851-0.501-2.352-0.263-0.452-0.745-0.752-1.298-0.752-0.003 0-0.007 0-0.010 0h0.001zM44.369 7.761h-0.667v-6.493h0.667v2.988h2.622v-2.988h0.667v6.493h-0.667v-3.412h-2.622v3.412zM51.097 7.761h-0.108l0.702-6.493h0.27l1.689 5.999 1.685-5.999h0.266l0.702 6.493h-0.671l-0.555-5.193-1.457 5.193h-0.509l-1.473-5.128-0.54 5.128zM60.762 1.273c0.104 0.116 0.154 0.266 0.154 0.451 0 0.154-0.031 0.308-0.089 0.474l-1.442 3.366v2.198h-0.671v-1.993l-1.608-4.499h0.682l1.542 4.183 1.4-3.254c0.058-0.154 0.089-0.316 0.089-0.482 0-0.17-0.039-0.297-0.12-0.389l0.062-0.058zM1.137 9.465c0.416-0.023 0.821-0.035 1.218-0.035 0.409 0 0.833 0.050 1.28 0.15 0.455 0.096 0.898 0.281 1.334 0.555 0.447 0.266 0.82 0.611 1.111 1.018l0.007 0.011c0.316 0.413 0.567 0.964 0.756 1.65 0.193 0.686 0.285 1.519 0.285 2.498s-0.143 1.862-0.424 2.649c-0.278 0.771-0.655 1.365-1.137 1.781-0.873 0.751-2.018 1.208-3.269 1.208-0.043 0-0.087-0.001-0.13-0.002l0.006 0c-0.463 0-0.952-0.019-1.465-0.066h-0.709v-11.42h1.137zM1.176 20.754c0.248 0.021 0.537 0.033 0.828 0.033 0.213 0 0.425-0.006 0.635-0.019l-0.029 0.001c0.512-0.058 0.975-0.225 1.378-0.478l-0.014 0.008c0.586-0.411 1.051-0.957 1.354-1.595l0.011-0.025c0.405-0.894 0.609-2.059 0.609-3.497 0-1.022-0.108-1.905-0.328-2.645-0.157-0.635-0.416-1.193-0.762-1.685l0.011 0.016c-0.268-0.351-0.604-0.637-0.99-0.84l-0.016-0.008c-0.274-0.168-0.593-0.298-0.932-0.37l-0.020-0.004c-0.26-0.029-0.562-0.046-0.867-0.046s-0.607 0.017-0.904 0.049l0.037-0.003v11.108zM38.212 20.885h-0.185v-11.435h0.482l5.907 10.572v-10.576h0.185v11.435h-1.033l-5.351-9.469v9.477zM53.344 9.446h0.185v6.539c0 1.708-0.293 2.969-0.879 3.774-0.498 0.726-1.323 1.196-2.258 1.196-0.015 0-0.031-0-0.046-0l0.002 0c-0.032 0.001-0.070 0.001-0.108 0.001-0.502 0-0.988-0.067-1.45-0.191l0.039 0.009c-0.46-0.154-0.854-0.395-1.181-0.707l0.001 0.001c-0.756-0.675-1.133-2.036-1.133-4.087v-6.527h1.176v6.516c0 1.986 0.262 3.308 0.783 3.971 0.266 0.328 0.54 0.551 0.821 0.671 0.293 0.115 0.633 0.182 0.988 0.182 0.023 0 0.045-0 0.067-0.001l-0.003 0c0.91 0 1.631-0.382 2.171-1.145 0.551-0.771 0.825-1.997 0.825-3.674v-6.527zM58.372 20.885h-1.18v-11.273h-2.456v-0.162h6.107v0.162h-2.468v11.273z"></path>
</symbol>
<symbol id="logo-menu-icon" viewBox="0 0 72 32">
<path d="M42.453 16.002c0 0.26-0.008 0.52 0 0.779 0.087 2.654-0.742 5.045-2.071 7.296-0.444 0.753-0.87 1.525-1.254 2.315-0.283 0.631-0.794 1.118-1.424 1.364l-0.018 0.006c-0.384 0.147-0.738 0.403-1.058 0.666-1.403 1.147-3.046 2.068-4.833 2.674l-0.11 0.033c-1.19 0.407-2.413 0.768-3.705 0.753-0.388-0.008-0.772 0.113-1.16 0.113-0.384 0-0.772-0.124-1.152-0.109-1.668 0.075-3.212-0.441-4.744-0.979-1.672-0.584-3.148-1.514-4.537-2.617-1.962-1.559-3.358-3.52-4.386-5.764-0.553-1.212-1.005-2.462-1.129-3.803-0.023-0.226-0.098-0.448-0.162-0.663-0.467-1.506-0.2-2.986 0.090-4.488 0.211-1.281 0.516-2.416 0.919-3.503l-0.042 0.13c1.141-2.902 3.012-5.309 5.39-7.070l0.043-0.031c1.947-1.456 4.299-2.482 6.857-2.887l0.089-0.012c0.763-0.13 1.642-0.205 2.538-0.205 2.148 0 4.197 0.428 6.064 1.203l-0.105-0.039c1.374 0.55 2.669 1.242 3.803 2.161 1.059 0.891 2.010 1.835 2.879 2.851l0.028 0.033c0.817 0.926 1.393 2.033 1.913 3.163 0.806 1.758 1.333 3.584 1.28 5.542-0.011 0.365-0.004 0.723-0.004 1.081zM41.335 12.425c-0.075-0.614-0.128-1.325-0.279-2.018-0.429-1.995-1.581-3.547-3.125-4.819-0.87-0.723-1.822-1.348-2.76-1.988-0.3-0.221-0.654-0.388-1.039-0.478l-0.019-0.004c-0.821-0.175-1.81-0.313-2.817-0.384l-0.071-0.004c-1.679-0.087-3.185-0.52-4.454-1.683-0.93-0.858-1.946-0.941-2.918-0.188-1.096 0.855-2.349 1.355-3.622 1.856-0.934 0.365-1.834 0.821-2.733 1.276-0.749 0.377-1.186 0.971-1.175 1.867 0 0.011 0 0.023 0 0.036 0 0.5-0.277 0.936-0.686 1.161l-0.007 0.003c-0.388 0.233-0.761 0.489-1.114 0.772-0.994 0.783-1.77 1.664-1.935 3.027-0.132 1.081-0.459 2.146-1.201 3.038-0.238 0.293-0.397 0.659-0.44 1.060l-0.001 0.009c-0.068 0.809-0.038 1.626-0.019 2.436 0.004 0.218 0.098 0.452 0.211 0.64 0.293 0.52 0.569 0.95 0.864 1.365l-0.032-0.047c0.727 1.013 1.359 2.048 1.506 3.332 0.143 1.242 0.742 2.255 1.758 3.027 1.476 1.122 2.895 2.312 4.39 3.404 0.802 0.587 1.664 1.103 2.722 1.224 1.058 0.117 2.097 0.407 3.050 0.941 0.2 0.105 0.414 0.173 0.64 0.196 1.34 0.143 2.583-0.188 3.761-0.817 0.369-0.196 0.749-0.377 1.129-0.546 0.919-0.41 1.939-0.678 2.741-1.254 0.892-0.64 1.845-0.922 2.869-1.099 0.438-0.065 0.817-0.279 1.090-0.589l0.002-0.002c0.343-0.388 0.659-0.802 1.017-1.178 0.371-0.349 0.625-0.817 0.703-1.343l0.002-0.012c0.135-0.879 0.461-1.664 0.934-2.337l-0.012 0.017c0.723-1.142 1.236-2.489 1.45-3.934l0.007-0.056c0.060-0.377 0.094-0.693-0.090-1.024-0.538-0.953-0.32-2.033-0.489-3.050-0.087-0.55 0.113-1.148 0.196-1.83zM34.871 2.915c-0.226-0.252-0.301-0.365-0.403-0.437-0.184-0.128-0.388-0.23-0.584-0.343-1.687-0.949-3.535-1.412-5.422-1.743-0.38-0.068-0.779-0.038-1.167-0.023-0.102 0.004-0.222 0.102-0.286 0.188-0.026 0.041 0.038 0.181 0.094 0.249 0.414 0.491 0.949 0.867 1.56 1.084l0.025 0.008c0.984 0.366 2.121 0.593 3.306 0.625l0.014 0c0.478 0.011 0.956 0.102 1.431 0.169 0.414 0.056 0.817 0.124 1.431 0.222zM20.534 30.286c-1.129-0.922-2.127-1.751-3.136-2.556-0.836-0.666-1.69-1.31-2.545-1.95-0.098-0.075-0.248-0.072-0.459-0.124 1.032 1.728 4.473 4.352 6.137 4.631zM12.902 8.702c0.685-0.523 1.318-1.073 2.010-1.525 0.971-0.633 1.344-1.423 1.114-2.775-0.689 0.565-1.182 1.242-1.713 1.864-0.565 0.651-0.979 1.423-1.45 2.154-0.038 0.060 0.023 0.177 0.038 0.282zM35.936 28.423c-0.64-0.041-1.28 0.068-1.679 0.414-0.757 0.651-1.66 0.979-2.579 1.306-0.482 0.169-0.937 0.422-1.393 0.659-0.060 0.034-0.072 0.211-0.056 0.313 0 0.038 0.173 0.094 0.241 0.072 0.828-0.282 1.679-0.508 2.459-0.885 0.956-0.459 1.856-1.039 2.771-1.581 0.098-0.053 0.147-0.177 0.237-0.297zM11.596 19.387c-0.181 0.538-0.147 0.836-0.030 1.152 0.32 0.885 0.512 1.815 1.088 2.587 0.215 0.286 0.256 0.926 0.651 0.791 0.346-0.124-0.060-0.629-0.083-0.971-0.090-1.303-0.776-2.353-1.626-3.562zM17.778 3.137l0.083 0.132c0.478-0.177 0.956-0.346 1.431-0.535 1.020-0.41 2.044-0.828 3.061-1.254 0.216-0.102 0.401-0.224 0.568-0.368l-0.003 0.003c0.053-0.038 0.045-0.177 0.026-0.26-0.008-0.038-0.102-0.075-0.158-0.079-0.098 0-0.188 0.019-0.282 0.045-1.502 0.445-2.808 1.018-4.023 1.729l0.085-0.046c-0.29 0.162-0.527 0.422-0.791 0.632zM42.073 17.143c0.083-0.094 0.151-0.136 0.151-0.181 0.139-1.419-0.011-2.827-0.207-4.232-0.011-0.075-0.109-0.173-0.173-0.181-0.075-0.011-0.188 0.049-0.233 0.113-0.075 0.109-0.12 0.226-0.132 0.354-0.075 1.16 0 2.323 0.226 3.464 0.045 0.226 0.233 0.429 0.369 0.666zM11.261 13.227c0.542-0.207 0.621-0.58 0.678-0.919 0.143-0.821 0.497-1.608 0.377-2.477-0.565 1.035-1.062 2.086-1.054 3.392zM24.329 31.235c-1.209-0.538-1.54-0.591-2.617-0.444 0.459 0.173 0.866 0.452 1.28 0.452 0.433 0.008 0.9 0.535 1.337-0.008z"></path>
<path d="M26.825 20.595c-0.015 0-0.033 0.001-0.051 0.001-0.753 0-1.411-0.41-1.762-1.019l-0.005-0.010c-0.392-0.625-1.043-0.949-1.642-1.333-0.753-0.486-1.363-1.032-1.54-2.014-0.12-0.663 0.023-1.242 0.29-1.77 0.256-0.459 0.614-0.832 1.045-1.1l0.013-0.007c0.463-0.282 0.843-0.55 1.054-1.073 0.245-0.602 0.851-0.64 1.389-0.745 0.508-0.102 1.020-0.169 1.521-0.297 0.681-0.173 1.303-0.12 1.8 0.414 0.377 0.388 0.82 0.709 1.313 0.944l0.028 0.012c0.523 0.264 0.693 0.565 0.527 1.107-0.109 0.369 0 0.621 0.136 0.915 0.151 0.32 0.305 0.648 0.41 0.986 0.343 1.129-0.053 2.078-1.111 2.579-0.655 0.313-1.16 0.727-1.322 1.457-0.052 0.264-0.249 0.47-0.504 0.534l-0.005 0.001c-0.527 0.154-1.054 0.282-1.585 0.418zM30.3 15.867c0.015-1.988-1.491-3.577-3.452-3.577-1.758 0-3.528 1.186-3.596 3.464-0 0.014-0 0.029-0 0.045 0 1.912 1.54 3.465 3.447 3.486l0.002 0c2.41 0.015 3.55-1.66 3.599-3.419zM23.23 17.768c0-0.256 0.023-0.388-0.004-0.505-0.264-1.081-0.429-2.146 0.162-3.189 0.038-0.075-0.056-0.226-0.090-0.346-0.113 0.038-0.256 0.045-0.343 0.117-0.529 0.45-0.862 1.117-0.862 1.861 0 0.864 0.449 1.623 1.127 2.057l0.010 0.006zM26.844 11.789c0.414 0.151 0.64 0.256 0.889 0.32 0.896 0.237 1.66 0.666 2.195 1.453 0.105 0.151 0.241 0.384 0.441 0.207 0.109-0.094 0.143-0.38 0.083-0.527-0.083-0.188-0.271-0.429-0.452-0.467-0.497-0.102-0.764-0.459-1.088-0.772-0.538-0.52-1.145-0.678-2.063-0.215zM26.791 19.613l-0.011-0.075c-0.26 0-0.52-0.023-0.776 0.008-0.132 0.019-0.248 0.128-0.377 0.196 0.113 0.102 0.215 0.256 0.343 0.29 0.697 0.177 1.401 0.215 2.086-0.056 0.117-0.045 0.248-0.105 0.32-0.2 0.064-0.079 0.087-0.222 0.075-0.331-0.008-0.038-0.169-0.098-0.248-0.087-0.471 0.075-0.941 0.166-1.408 0.252h-0.004zM30.349 17.572c0.482-0.087 0.697-0.361 0.727-0.776 0.019-0.354 0.015-0.708-0.015-1.058-0.008-0.094-0.139-0.177-0.211-0.264-0.109 0.102-0.324 0.237-0.305 0.301 0.196 0.606-0.215 1.152-0.196 1.796zM34.762 20.324c-0.026 0.015-0.139 0.109-0.26 0.12-0.109 0.015-0.271-0.023-0.339-0.102-0.323-0.359-0.643-0.749-0.947-1.153l-0.032-0.044c-0.083-0.109-0.113-0.403-0.072-0.425 0.151-0.083 0.448-0.169 0.512-0.098 0.388 0.425 0.73 0.896 1.081 1.355 0.034 0.045 0.023 0.124 0.056 0.346zM18.35 23.671c0.181 0.015 0.535 0.026 0.881 0.083 0.087 0.015 0.2 0.184 0.2 0.286 0 0.098-0.098 0.271-0.188 0.294-0.666 0.166-1.337 0.207-1.928-0.241-0.059-0.055-0.095-0.133-0.095-0.22 0-0.010 0-0.020 0.001-0.030l-0 0.001c0.011-0.064 0.113-0.158 0.188-0.166 0.256-0.019 0.512-0.008 0.941-0.008zM39.374 9.564l0.256 0.139c-0.075 0.128-0.117 0.335-0.226 0.373-0.478 0.177-0.979 0.32-1.48 0.422-0.143 0.030-0.354-0.113-0.489-0.23-0.151-0.136-0.060-0.433 0.132-0.463 0.572-0.087 1.148-0.151 1.807-0.241zM22.3 26.544c0.264 0.124 0.489 0.158 0.602 0.294 0.301 0.373 0.572 0.764 0.821 1.175 0.12 0.192 0.011 0.407-0.192 0.459-0.113 0.034-0.313-0.056-0.395-0.158-0.304-0.364-0.603-0.768-0.877-1.189l-0.030-0.049c-0.064-0.102 0.038-0.309 0.072-0.531zM32.83 11.021c0.015-0.113 0-0.245 0.049-0.297 0.075-0.064 0.226-0.12 0.301-0.083 0.102 0.049 0.169 0.181 0.237 0.286 0.196 0.29 0.388 0.584 0.572 0.881 0.083 0.136 0.196 0.279 0.203 0.422 0.008 0.132-0.075 0.305-0.173 0.399-0.056 0.049-0.286 0.015-0.343-0.053-0.373-0.474-0.817-0.915-0.851-1.555zM33.982 6.010c-0.079 0.482-0.113 0.836-0.207 1.178-0.056 0.181-0.169 0.343-0.32 0.463-0.109 0.087-0.294 0.075-0.444 0.105-0.011-0.139-0.053-0.286-0.030-0.418 0.079-0.414 0.184-0.817 0.279-1.224 0.008-0.030 0.004-0.064 0.015-0.098 0.075-0.245 0.233-0.429 0.489-0.328 0.128 0.049 0.188 0.275 0.218 0.32zM27.055 9.142c0.226 0.026 0.52 0.041 0.798 0.113 0.094 0.019 0.233 0.192 0.218 0.264-0.030 0.136-0.139 0.309-0.256 0.346-0.184 0.056-0.377 0.060-0.565 0-0.14-0.056-0.301-0.089-0.471-0.089s-0.331 0.033-0.479 0.092l0.009-0.003c-0.211 0.090-0.407 0-0.463-0.211-0.075-0.282 0.136-0.418 0.373-0.459 0.252-0.038 0.516-0.038 0.836-0.053zM32.066 22.971c-0.090 0.399-0.162 0.749-0.26 1.092-0.019 0.068-0.158 0.154-0.218 0.139-0.109-0.023-0.26-0.109-0.279-0.196-0.027-0.099-0.042-0.213-0.042-0.33 0-0.087 0.008-0.172 0.025-0.254l-0.001 0.008c0.075-0.35 0.151-0.685 0.011-1.039-0.068-0.173-0.049-0.448 0.211-0.444 0.139 0 0.339 0.173 0.403 0.316 0.105 0.226 0.113 0.497 0.151 0.708zM28.113 22.869c-0.053 0.094-0.075 0.203-0.147 0.252-0.422 0.29-0.847 0.584-1.291 0.84-0.113 0.064-0.313 0.023-0.459-0.019-0.211-0.064-0.256-0.343-0.075-0.456 0.482-0.313 0.971-0.621 1.476-0.907 0.079-0.049 0.241 0 0.343 0.053 0.072 0.038 0.102 0.151 0.154 0.237zM22.725 4.158c0.068 0.038 0.196 0.075 0.215 0.139 0.166 0.617 0.328 1.239 0.463 1.864 0.038 0.173-0.192 0.271-0.346 0.166-0.489-0.328-0.791-1.536-0.508-2.041 0.030-0.053 0.102-0.075 0.177-0.128zM28.726 5.912c-0.151-0.098-0.305-0.147-0.328-0.23-0.023-0.094 0.053-0.248 0.136-0.324 0.358-0.316 0.73-0.617 1.118-0.896 0.128-0.090 0.399-0.154 0.501-0.083 0.237 0.166 0.113 0.399-0.053 0.572-0.222 0.23-0.441 0.474-0.697 0.663-0.196 0.139-0.448 0.2-0.678 0.301zM19.491 9.18l-0.354 0.335c-0.102-0.113-0.252-0.203-0.297-0.331-0.122-0.343-0.275-0.862-0.412-1.389l-0.037-0.166c-0.019-0.075 0.041-0.218 0.102-0.245 0.098-0.038 0.264-0.056 0.335 0 0.151 0.109 0.316 0.256 0.365 0.414 0.124 0.429 0.192 0.873 0.297 1.382zM15.602 17.76c-0.324 0.595-0.572 1.205-1.178 1.532-0.102 0.053-0.328-0.015-0.437-0.102-0.188-0.151 0-0.271 0.090-0.395 0.282-0.392 0.546-0.802 0.851-1.178 0.075-0.098 0.275-0.143 0.41-0.132 0.090 0.011 0.166 0.166 0.264 0.275zM19.284 17.809c0.169 0.098 0.294 0.128 0.316 0.192 0.038 0.105 0.056 0.271 0 0.346-0.094 0.117-0.252 0.184-0.392 0.264-0.358 0.203-0.708 0.418-1.077 0.595-0.113 0.053-0.32 0.038-0.418-0.038-0.207-0.147-0.136-0.38 0.030-0.486 0.508-0.316 1.043-0.595 1.54-0.873zM37.702 15.11c-0.132 0.294-0.316 0.738-0.535 1.167-0.034 0.064-0.245 0.102-0.335 0.060-0.083-0.038-0.173-0.203-0.158-0.294 0.090-0.474 0.188-0.953 0.331-1.412 0.045-0.139 0.248-0.264 0.407-0.313 0.056-0.019 0.211 0.2 0.282 0.331 0.038 0.075 0.008 0.188 0.008 0.459zM15.5 11.563c0.576 0.516 0.508 1.22 0.572 1.867 0.011 0.12-0.139 0.29-0.256 0.377-0.064 0.049-0.32-0.026-0.324-0.068-0.072-0.472-0.15-1.148-0.209-1.83l-0.010-0.139c-0.004-0.056 0.132-0.128 0.226-0.207zM28.971 27.561c0.098 0.026 0.192 0.060 0.286 0.094 0.346 0.162 0.693 0.316 1.032 0.493 0.162 0.087 0.32 0.188 0.437 0.324 0.132 0.151-0.019 0.452-0.203 0.41-0.629-0.136-1.242-0.328-1.713-0.794-0.072-0.072-0.068-0.245-0.045-0.361 0.011-0.064 0.132-0.109 0.207-0.162zM21.325 11.752c0.038 0.105 0.151 0.264 0.109 0.369-0.277 0.69-0.514 1.209-0.767 1.718l0.063-0.141c-0.030 0.064-0.162 0.12-0.237 0.109-0.068-0.008-0.162-0.102-0.181-0.177-0.132-0.576 0.286-1.611 0.749-1.875 0.045-0.026 0.124 0 0.264 0zM39.291 20.543c-0.075-0.045-0.226-0.102-0.301-0.211-0.034-0.041 0.068-0.237 0.154-0.301 0.337-0.252 0.726-0.513 1.129-0.755l0.065-0.036c0.113-0.064 0.339-0.068 0.425 0.004 0.075 0.068 0.087 0.324 0.019 0.414-0.346 0.482-0.779 0.847-1.491 0.885zM36.904 24.673c-0.301-0.030-0.429-0.038-0.553-0.060-0.053-0.015-0.132-0.075-0.132-0.113-0.004-0.094 0.019-0.188 0.068-0.264 0.064-0.072 0.151-0.124 0.241-0.151 0.459-0.136 0.922-0.275 1.386-0.388 0.102-0.023 0.316 0.045 0.331 0.102 0.030 0.136-0.008 0.301-0.060 0.441-0.030 0.075-0.143 0.136-0.23 0.162-0.399 0.109-0.802 0.207-1.054 0.271zM23.064 21.356c-0.030 0.143-0.083 0.452-0.188 0.745-0.026 0.072-0.226 0.139-0.32 0.113-0.090-0.026-0.2-0.177-0.196-0.271 0.008-0.542 0.038-1.084 0.090-1.623 0.011-0.117 0.162-0.222 0.248-0.331 0.102 0.109 0.267 0.203 0.294 0.328 0.060 0.282 0.045 0.576 0.075 1.039zM44.603 4.425c0-1.148 0.275-2.018 0.828-2.609 0.517-0.553 1.251-0.898 2.065-0.898 0.034 0 0.068 0.001 0.101 0.002l-0.005-0c0.877 0 1.574 0.256 2.090 0.772 0.527 0.52 0.787 1.344 0.787 2.477s-0.279 1.992-0.836 2.571c-0.553 0.576-1.295 0.866-2.221 0.866-0.034 0.002-0.075 0.002-0.115 0.002-0.711 0-1.36-0.262-1.857-0.694l0.003 0.003c-0.28-0.267-0.495-0.6-0.62-0.973l-0.005-0.017c-0.139-0.424-0.219-0.911-0.219-1.417 0-0.031 0-0.062 0.001-0.093l-0 0.005zM47.562 1.014c-0.64 0-1.16 0.282-1.57 0.851-0.403 0.565-0.602 1.397-0.602 2.492s0.188 1.898 0.572 2.402c0.337 0.459 0.875 0.754 1.482 0.754 0.019 0 0.038-0 0.057-0.001l-0.003 0c0.64 0 1.167-0.282 1.57-0.851 0.41-0.572 0.614-1.401 0.614-2.485 0-1.088-0.196-1.886-0.587-2.398-0.335-0.465-0.876-0.765-1.486-0.765-0.016 0-0.032 0-0.049 0.001l0.002-0zM52.107 7.569h-0.791v-6.611h0.791v3.042h3.072v-3.042h0.787v6.611h-0.787v-3.475h-3.076v3.475zM60.002 7.569h-0.124l0.825-6.611h0.313l1.984 6.111 1.98-6.111h0.309l0.828 6.611h-0.791l-0.651-5.29-1.713 5.29h-0.595l-1.732-5.222-0.633 5.222zM71.353 0.958c0.12 0.117 0.181 0.271 0.181 0.463 0 0.154-0.038 0.316-0.105 0.482l-1.694 3.426v2.24h-0.783v-2.033l-1.898-4.574h0.806l1.807 4.262 1.645-3.317c0.072-0.158 0.105-0.324 0.105-0.489 0-0.173-0.049-0.305-0.143-0.399l0.075-0.056zM1.333 9.308c0.489-0.023 0.968-0.034 1.434-0.034 0.478 0 0.979 0.049 1.502 0.151 0.531 0.098 1.054 0.29 1.566 0.565 0.523 0.267 0.96 0.617 1.318 1.050 0.391 0.473 0.695 1.035 0.876 1.65l0.008 0.033c0.222 0.697 0.331 1.544 0.331 2.545s-0.166 1.898-0.501 2.699c-0.32 0.787-0.764 1.393-1.333 1.815-1.099 0.821-2.428 1.231-3.983 1.231-0.546 0-1.118-0.023-1.721-0.068h-0.832v-11.637h1.333zM1.385 20.814c0.289 0.021 0.627 0.033 0.967 0.033 0.252 0 0.502-0.007 0.751-0.020l-0.035 0.001c0.594-0.059 1.137-0.231 1.623-0.493l-0.023 0.011c0.68-0.394 1.225-0.954 1.589-1.627l0.011-0.022c0.478-0.911 0.715-2.097 0.715-3.562 0-1.043-0.124-1.943-0.38-2.699-0.191-0.651-0.495-1.217-0.892-1.703l0.007 0.009c-0.323-0.364-0.716-0.656-1.161-0.857l-0.022-0.009c-0.323-0.173-0.698-0.307-1.094-0.38l-0.024-0.004c-0.305-0.030-0.659-0.047-1.017-0.047s-0.712 0.017-1.061 0.050l0.045-0.003v11.321zM44.87 20.946h-0.215v-11.652h0.565l6.939 10.768v-10.768h0.215v11.652h-1.216l-6.287-9.657v9.657zM62.641 9.293h0.218v6.66c0 1.739-0.346 3.023-1.035 3.844-0.624 0.746-1.555 1.218-2.596 1.218-0.036 0-0.072-0.001-0.108-0.002l0.005 0c-0.7 0-1.295-0.060-1.785-0.184-0.533-0.151-0.995-0.397-1.392-0.721l0.007 0.006c-0.889-0.689-1.333-2.074-1.333-4.16v-6.664h1.386v6.645c0 2.022 0.301 3.37 0.915 4.047 0.26 0.294 0.584 0.526 0.951 0.675l0.017 0.006c0.346 0.12 0.753 0.184 1.235 0.184 0.033 0.001 0.072 0.002 0.112 0.002 0.983 0 1.86-0.454 2.433-1.163l0.005-0.006c0.648-0.791 0.968-2.033 0.968-3.746v-6.641zM68.544 20.946h-1.382v-11.487h-2.884v-0.166h7.168v0.166h-2.899v11.487z"></path>
</symbol>
<symbol id="logo-tablet-mobile-icon" viewBox="0 0 70 32">
<path d="M41.435 16.003v0.778c0.087 2.655-0.72 5.048-2.015 7.295-0.436 0.756-0.851 1.527-1.229 2.32-0.273 0.627-0.773 1.113-1.394 1.361l-0.017 0.006c-0.364 0.145-0.713 0.407-1.026 0.669-1.368 1.145-2.973 2.065-4.723 2.673l-0.107 0.032c-1.164 0.407-2.356 0.764-3.615 0.749-0.378 0-0.749 0.116-1.127 0.116s-0.756-0.124-1.127-0.109c-1.629 0.073-3.135-0.436-4.633-0.975-1.699-0.66-3.163-1.547-4.443-2.643l0.021 0.017c-1.835-1.538-3.288-3.469-4.239-5.669l-0.038-0.099c-0.545-1.106-0.934-2.391-1.1-3.746l-0.006-0.058c-0.022-0.218-0.095-0.444-0.16-0.655-0.451-1.513-0.189-2.989 0.087-4.495 0.218-1.149 0.436-2.284 0.858-3.367 1.105-2.894 2.934-5.301 5.27-7.077l0.039-0.029c1.887-1.448 4.175-2.471 6.669-2.883l0.088-0.012c2.837-0.465 5.608-0.131 8.291 0.967 1.346 0.545 2.618 1.236 3.717 2.16 1.031 0.888 1.959 1.83 2.806 2.842l0.031 0.038c0.8 0.924 1.367 2.036 1.869 3.164 0.789 1.603 1.251 3.489 1.251 5.483 0 0.021-0 0.041-0 0.062v-0.003c-0.015 0.364 0 0.727 0 1.084zM40.344 12.431c-0.073-0.618-0.124-1.331-0.269-2.022-0.461-1.967-1.548-3.63-3.037-4.808l-0.018-0.014c-0.844-0.72-1.775-1.346-2.691-1.986-0.313-0.218-0.669-0.415-1.033-0.48-0.8-0.176-1.763-0.316-2.744-0.389l-0.070-0.004c-1.644-0.080-3.113-0.509-4.349-1.68-0.909-0.858-1.898-0.946-2.844-0.189-1.018 0.752-2.19 1.379-3.448 1.825l-0.094 0.029c-0.909 0.364-1.789 0.822-2.662 1.28-0.735 0.378-1.164 0.967-1.149 1.862 0 0.509-0.218 0.924-0.676 1.207-0.378 0.233-0.742 0.487-1.091 0.771-0.967 0.778-1.724 1.658-1.891 3.026-0.096 1.157-0.518 2.199-1.174 3.054l0.010-0.014c-0.247 0.305-0.393 0.676-0.436 1.069-0.065 0.8-0.036 1.622-0.015 2.436 0 0.218 0.095 0.451 0.204 0.64 0.247 0.451 0.524 0.895 0.815 1.309 0.706 1.018 1.324 2.051 1.469 3.338 0.138 1.236 0.727 2.255 1.716 3.026 1.44 1.12 2.822 2.313 4.284 3.404 0.727 0.618 1.63 1.051 2.623 1.217l0.032 0.004c1.033 0.116 2.051 0.407 2.982 0.945 0.189 0.102 0.4 0.167 0.625 0.189 1.309 0.145 2.517-0.182 3.666-0.815 0.364-0.196 0.727-0.371 1.105-0.545 0.895-0.407 1.891-0.676 2.677-1.251 0.79-0.561 1.738-0.953 2.766-1.101l0.035-0.004c0.427-0.065 0.795-0.276 1.060-0.58l0.002-0.002c0.335-0.393 0.647-0.8 0.996-1.186 0.364-0.385 0.618-0.8 0.684-1.353 0.095-0.851 0.451-1.6 0.902-2.32 0.705-1.145 1.206-2.494 1.412-3.937l0.007-0.056c0.058-0.371 0.095-0.691-0.087-1.018-0.524-0.953-0.313-2.036-0.473-3.055-0.087-0.545 0.109-1.142 0.189-1.826zM34.038 2.911c-0.218-0.247-0.291-0.364-0.393-0.436-0.182-0.124-0.378-0.233-0.567-0.342-1.532-0.839-3.315-1.452-5.206-1.735l-0.088-0.011c-0.364-0.065-0.764-0.036-1.142-0.022-0.102 0-0.218 0.102-0.284 0.189-0.022 0.044 0.036 0.182 0.095 0.247 0.407 0.509 0.945 0.88 1.549 1.091 1.040 0.385 2.131 0.596 3.237 0.625 0.465 0.015 0.938 0.102 1.404 0.167l1.389 0.225zM20.045 30.287c-1.105-0.924-2.080-1.746-3.062-2.553-0.597-0.491-1.406-1.132-2.225-1.762l-0.263-0.194c-0.095-0.073-0.24-0.073-0.444-0.124 1.004 1.731 4.364 4.357 5.993 4.633zM12.597 8.7c0.662-0.524 1.28-1.069 1.964-1.527 0.945-0.633 1.309-1.418 1.084-2.764-0.676 0.56-1.156 1.236-1.673 1.855-0.553 0.655-0.96 1.426-1.418 2.153-0.029 0.065 0.022 0.182 0.044 0.291zM35.071 28.425c-0.618-0.044-1.236 0.073-1.636 0.415-0.713 0.569-1.551 1.017-2.463 1.295l-0.053 0.014c-0.465 0.167-0.909 0.415-1.353 0.655-0.065 0.036-0.073 0.211-0.058 0.313 0 0.036 0.167 0.095 0.233 0.073 0.8-0.291 1.636-0.509 2.4-0.887 0.931-0.458 1.811-1.040 2.706-1.578 0.095-0.051 0.145-0.182 0.233-0.298zM11.324 19.384c-0.175 0.538-0.145 0.836-0.029 1.156 0.313 0.88 0.502 1.818 1.062 2.582 0.211 0.291 0.255 0.931 0.64 0.793 0.335-0.124-0.058-0.625-0.087-0.967-0.087-1.309-0.756-2.356-1.586-3.564zM17.361 3.144l0.080 0.131c0.465-0.182 0.931-0.349 1.396-0.538 0.996-0.407 1.993-0.822 2.982-1.251 0.204-0.087 0.385-0.225 0.56-0.364 0.051-0.044 0.036-0.175 0.022-0.262 0-0.036-0.102-0.073-0.153-0.073-0.095 0-0.189 0.015-0.276 0.044-1.353 0.393-2.618 0.967-3.84 1.673-0.291 0.167-0.516 0.429-0.771 0.64zM41.071 17.152c0.087-0.102 0.145-0.145 0.145-0.182 0.138-1.426-0.007-2.837-0.196-4.24-0.015-0.073-0.109-0.167-0.175-0.175-0.073-0.015-0.182 0.051-0.218 0.116-0.073 0.102-0.124 0.218-0.138 0.349-0.073 1.164 0 2.327 0.218 3.462 0.051 0.233 0.233 0.436 0.364 0.669zM10.997 13.224c0.531-0.204 0.611-0.575 0.662-0.909 0.145-0.822 0.487-1.607 0.371-2.473-0.553 1.033-1.040 2.080-1.033 3.389zM23.754 31.24c-1.178-0.538-1.498-0.596-2.553-0.444 0.444 0.175 0.844 0.451 1.251 0.451 0.422 0.007 0.873 0.538 1.309-0.007h-0.007z"></path>
<path d="M26.183 20.599c-0.011 0-0.024 0-0.037 0-0.746 0-1.396-0.413-1.733-1.023l-0.005-0.010c-0.378-0.625-1.018-0.945-1.6-1.331-0.735-0.487-1.331-1.033-1.506-2.015-0.116-0.662 0.022-1.236 0.291-1.767 0.218-0.436 0.611-0.851 1.026-1.105 0.451-0.291 0.822-0.553 1.033-1.076 0.233-0.604 0.829-0.64 1.353-0.749 0.495-0.102 0.996-0.167 1.484-0.291 0.669-0.175 1.273-0.124 1.76 0.407 0.371 0.415 0.815 0.713 1.309 0.96 0.509 0.262 0.669 0.567 0.509 1.105-0.102 0.371 0 0.626 0.131 0.916 0.145 0.32 0.298 0.647 0.4 0.989 0.335 1.12-0.051 2.066-1.084 2.575-0.64 0.313-1.127 0.727-1.287 1.455-0.048 0.264-0.244 0.472-0.497 0.537l-0.005 0.001c-0.509 0.153-1.026 0.284-1.542 0.422zM29.572 15.872c0.015-1.993-1.455-3.578-3.367-3.586-0.024-0.001-0.052-0.001-0.080-0.001-1.896 0-3.433 1.537-3.433 3.433 0 0.013 0 0.026 0 0.039l-0-0.002c-0.001 0.026-0.001 0.057-0.001 0.088 0 1.876 1.499 3.402 3.364 3.446l0.004 0c2.356 0.007 3.469-1.673 3.513-3.418zM22.677 17.763c0-0.247 0.022-0.378 0-0.502-0.255-1.076-0.422-2.146 0.153-3.186 0.044-0.073-0.051-0.225-0.087-0.342-0.109 0.036-0.247 0.044-0.335 0.116-0.516 0.455-0.84 1.119-0.84 1.857 0 0.858 0.437 1.614 1.1 2.057l0.009 0.006zM26.205 11.791c0.4 0.145 0.625 0.255 0.866 0.32 0.873 0.24 1.622 0.662 2.146 1.455 0.102 0.145 0.233 0.378 0.436 0.204 0.095-0.095 0.131-0.378 0.073-0.524-0.080-0.196-0.269-0.436-0.436-0.473-0.487-0.102-0.749-0.458-1.062-0.771-0.531-0.516-1.12-0.676-2.022-0.218zM26.154 19.61l-0.015-0.073c-0.247 0-0.509-0.022-0.756 0.007-0.124 0.015-0.24 0.131-0.364 0.196 0.109 0.102 0.211 0.255 0.335 0.291 0.676 0.175 1.367 0.218 2.036-0.058 0.109-0.044 0.24-0.102 0.313-0.196 0.058-0.080 0.080-0.218 0.073-0.335-0.007-0.036-0.167-0.102-0.247-0.087-0.458 0.073-0.916 0.167-1.375 0.255zM29.631 17.573c0.465-0.087 0.676-0.364 0.706-0.778 0.022-0.349 0.015-0.706-0.015-1.055-0.007-0.095-0.138-0.175-0.204-0.262-0.109 0.102-0.32 0.233-0.298 0.291 0.189 0.611-0.211 1.164-0.189 1.804zM33.929 20.323c-0.022 0.015-0.131 0.109-0.255 0.124-0.102 0.015-0.262-0.022-0.327-0.102-0.335-0.385-0.655-0.785-0.96-1.2-0.073-0.109-0.109-0.4-0.065-0.422 0.145-0.087 0.436-0.175 0.502-0.102 0.378 0.429 0.706 0.895 1.047 1.36 0.036 0.044 0.029 0.124 0.058 0.342zM17.914 23.668c0.175 0.015 0.516 0.029 0.858 0.087 0.080 0.015 0.196 0.182 0.196 0.284s-0.102 0.276-0.182 0.291c-0.655 0.167-1.309 0.211-1.891-0.24-0.055-0.054-0.089-0.129-0.089-0.213 0-0.012 0.001-0.024 0.002-0.036l-0 0.001c0.015-0.065 0.116-0.16 0.182-0.16 0.247-0.022 0.509-0.015 0.924-0.015zM38.431 9.566l0.247 0.138c-0.073 0.131-0.109 0.335-0.218 0.371-0.465 0.182-0.946 0.32-1.44 0.422-0.145 0.029-0.349-0.109-0.48-0.233-0.145-0.131-0.058-0.429 0.131-0.458 0.553-0.087 1.12-0.153 1.76-0.24zM21.761 26.549c0.262 0.124 0.487 0.153 0.589 0.291 0.291 0.364 0.56 0.764 0.8 1.171 0.124 0.196 0.015 0.407-0.182 0.465-0.109 0.029-0.305-0.065-0.385-0.16-0.32-0.4-0.618-0.807-0.887-1.236-0.065-0.109 0.036-0.313 0.073-0.538zM32.038 11.020c0.022-0.116 0-0.247 0.058-0.291 0.073-0.073 0.218-0.124 0.291-0.087 0.102 0.051 0.167 0.182 0.233 0.291l0.56 0.873c0.073 0.138 0.189 0.284 0.196 0.422 0 0.138-0.073 0.305-0.175 0.4-0.051 0.051-0.276 0.015-0.335-0.051-0.364-0.473-0.8-0.916-0.829-1.556zM33.165 6.009c-0.073 0.487-0.109 0.836-0.196 1.178-0.058 0.182-0.167 0.342-0.313 0.465-0.109 0.087-0.291 0.073-0.436 0.102-0.007-0.138-0.051-0.291-0.029-0.415 0.073-0.415 0.182-0.815 0.269-1.222l0.015-0.102c0.073-0.24 0.233-0.429 0.48-0.327 0.124 0.051 0.182 0.276 0.218 0.32zM26.401 9.144c0.225 0.029 0.509 0.044 0.785 0.109 0.095 0.022 0.225 0.196 0.218 0.269-0.036 0.131-0.145 0.305-0.255 0.342-0.182 0.058-0.371 0.058-0.553 0-0.136-0.056-0.293-0.088-0.458-0.088s-0.323 0.032-0.466 0.091l0.008-0.003c-0.204 0.095-0.4 0-0.458-0.211-0.073-0.284 0.138-0.415 0.364-0.458 0.255-0.044 0.509-0.036 0.822-0.051zM31.296 22.97c-0.087 0.4-0.153 0.749-0.247 1.091-0.022 0.073-0.16 0.16-0.218 0.145-0.102-0.029-0.247-0.116-0.269-0.204-0.027-0.101-0.043-0.217-0.043-0.337 0-0.084 0.008-0.166 0.022-0.246l-0.001 0.008c0.073-0.349 0.145-0.684 0.015-1.040-0.073-0.167-0.051-0.436 0.204-0.436 0.138 0 0.335 0.167 0.393 0.313 0.102 0.225 0.109 0.495 0.145 0.706zM27.441 22.868c-0.051 0.095-0.073 0.204-0.145 0.255-0.415 0.291-0.822 0.582-1.258 0.836-0.109 0.073-0.305 0.029-0.451-0.015-0.204-0.065-0.247-0.342-0.073-0.458 0.473-0.313 0.945-0.618 1.44-0.909 0.073-0.044 0.233 0 0.335 0.058 0.073 0.036 0.102 0.145 0.145 0.233zM22.183 4.155c0.065 0.044 0.189 0.073 0.211 0.145 0.16 0.611 0.32 1.236 0.451 1.862 0.036 0.175-0.189 0.269-0.342 0.167-0.473-0.327-0.771-1.542-0.495-2.044 0.029-0.051 0.102-0.073 0.175-0.131zM28.038 5.915c-0.145-0.102-0.291-0.145-0.32-0.233-0.022-0.095 0.051-0.247 0.131-0.32 0.349-0.32 0.713-0.618 1.091-0.902 0.131-0.087 0.393-0.153 0.495-0.080 0.225 0.167 0.109 0.4-0.051 0.575-0.218 0.225-0.436 0.473-0.684 0.655-0.189 0.145-0.436 0.204-0.662 0.305zM19.026 9.18l-0.349 0.335c-0.102-0.109-0.247-0.204-0.291-0.335-0.16-0.509-0.298-1.033-0.436-1.549-0.015-0.073 0.044-0.218 0.102-0.247 0.095-0.036 0.255-0.058 0.327 0 0.145 0.109 0.305 0.255 0.356 0.415 0.124 0.429 0.189 0.873 0.291 1.382zM15.23 17.763c-0.32 0.596-0.56 1.207-1.149 1.527-0.102 0.058-0.32-0.015-0.429-0.102-0.182-0.145 0-0.269 0.087-0.393 0.276-0.393 0.538-0.8 0.829-1.178 0.073-0.095 0.269-0.145 0.4-0.131 0.095 0.007 0.167 0.167 0.262 0.276zM18.823 17.814c0.167 0.095 0.291 0.124 0.305 0.189 0.036 0.109 0.058 0.269 0 0.342-0.087 0.124-0.247 0.189-0.378 0.269-0.349 0.204-0.691 0.415-1.055 0.589-0.051 0.021-0.111 0.033-0.173 0.033-0.086 0-0.167-0.023-0.236-0.063l0.002 0.001c-0.204-0.145-0.131-0.385 0.029-0.487 0.502-0.32 1.018-0.596 1.506-0.873zM36.802 15.108c-0.131 0.291-0.313 0.742-0.524 1.164-0.036 0.073-0.24 0.109-0.327 0.073-0.080-0.044-0.167-0.211-0.153-0.298 0.087-0.48 0.182-0.953 0.32-1.411 0.051-0.145 0.247-0.269 0.4-0.32 0.058-0.015 0.204 0.204 0.276 0.335 0.036 0.073 0 0.189 0 0.458zM15.128 11.566c0.567 0.509 0.495 1.215 0.56 1.862 0.015 0.124-0.138 0.291-0.255 0.385-0.058 0.044-0.305-0.029-0.313-0.073-0.087-0.655-0.16-1.309-0.211-1.971 0-0.058 0.131-0.124 0.218-0.204zM28.278 27.567c0.095 0.022 0.189 0.051 0.276 0.087 0.342 0.16 0.676 0.32 1.011 0.495 0.164 0.084 0.304 0.191 0.421 0.319l0.001 0.001c0.131 0.153-0.015 0.451-0.196 0.415-0.652-0.101-1.224-0.387-1.675-0.802l0.002 0.002c-0.073-0.073-0.065-0.24-0.044-0.356 0.015-0.065 0.131-0.109 0.204-0.16zM20.816 11.755c0.029 0.102 0.145 0.262 0.102 0.364-0.204 0.538-0.436 1.062-0.684 1.578-0.029 0.065-0.16 0.124-0.233 0.109-0.073-0.007-0.16-0.102-0.175-0.175-0.131-0.582 0.276-1.615 0.727-1.876 0.051-0.022 0.124 0 0.262 0zM38.351 20.541c-0.073-0.044-0.218-0.102-0.291-0.211-0.036-0.044 0.065-0.233 0.145-0.298 0.378-0.284 0.764-0.553 1.164-0.793 0.109-0.058 0.335-0.073 0.415 0 0.073 0.073 0.087 0.327 0.022 0.422-0.342 0.48-0.764 0.844-1.455 0.88zM36.024 24.672c-0.291-0.029-0.422-0.036-0.545-0.058-0.051-0.015-0.124-0.073-0.124-0.116-0.001-0.009-0.001-0.020-0.001-0.030 0-0.086 0.025-0.166 0.068-0.233l-0.001 0.002c0.058-0.073 0.145-0.124 0.233-0.145 0.451-0.145 0.902-0.276 1.353-0.393 0.102-0.022 0.305 0.044 0.32 0.102 0.029 0.138 0 0.305-0.058 0.436-0.029 0.073-0.138 0.145-0.218 0.167l-1.026 0.269zM22.51 21.355c-0.029 0.145-0.080 0.451-0.182 0.742-0.022 0.073-0.218 0.145-0.313 0.116-0.087-0.022-0.196-0.175-0.189-0.269 0-0.545 0.036-1.091 0.087-1.622 0.015-0.116 0.16-0.218 0.24-0.335 0.102 0.109 0.262 0.204 0.291 0.327 0.058 0.284 0.044 0.582 0.073 1.040zM43.537 4.424c0-1.149 0.269-2.015 0.807-2.604 0.501-0.555 1.224-0.903 2.027-0.903 0.029 0 0.057 0 0.086 0.001l-0.004-0c0.858 0 1.535 0.262 2.036 0.778 0.509 0.509 0.771 1.338 0.771 2.473s-0.269 1.993-0.815 2.567c-0.538 0.582-1.266 0.873-2.167 0.873-0.032 0.001-0.069 0.002-0.106 0.002-0.698 0-1.335-0.263-1.816-0.695l0.003 0.002c-0.274-0.268-0.484-0.6-0.606-0.972l-0.005-0.017c-0.139-0.428-0.219-0.921-0.219-1.433 0-0.026 0-0.051 0.001-0.077l-0 0.004zM46.424 1.013c-0.618 0-1.135 0.291-1.527 0.851-0.4 0.567-0.596 1.396-0.596 2.495 0 1.091 0.189 1.891 0.56 2.4 0.378 0.509 0.873 0.756 1.498 0.756 0.633 0 1.142-0.291 1.527-0.851 0.407-0.575 0.604-1.404 0.604-2.487 0-1.091-0.189-1.891-0.567-2.4-0.323-0.464-0.854-0.764-1.455-0.764-0.015 0-0.030 0-0.045 0.001l0.002-0zM50.853 7.566h-0.764v-6.604h0.764v3.040h3.004v-3.055h0.771v6.619h-0.771v-3.469h-3.004v3.477zM58.563 7.566h-0.116l0.8-6.611h0.305l1.942 6.109 1.927-6.109h0.305l0.8 6.619h-0.764l-0.633-5.295-1.673 5.295h-0.582l-1.695-5.229-0.618 5.229zM69.647 0.955c0.116 0.124 0.175 0.276 0.175 0.465 0 0.16-0.036 0.32-0.102 0.48l-1.651 3.433v2.24h-0.771v-2.044l-1.84-4.575h0.785l1.767 4.262 1.6-3.317c0.073-0.153 0.109-0.32 0.109-0.487 0-0.008 0.001-0.018 0.001-0.028 0-0.144-0.056-0.275-0.147-0.372l0 0 0.073-0.058zM1.302 9.311c0.48-0.022 0.946-0.036 1.396-0.036 0.473 0 0.96 0.051 1.469 0.145 1.128 0.235 2.094 0.812 2.81 1.617l0.005 0.005c0.364 0.422 0.647 0.982 0.858 1.673 0.218 0.706 0.327 1.556 0.327 2.553 0 1.004-0.16 1.898-0.487 2.698-0.271 0.734-0.719 1.348-1.294 1.812l-0.008 0.006c-1.022 0.769-2.314 1.232-3.713 1.232-0.063 0-0.125-0.001-0.188-0.003l0.009 0c-0.531 0-1.091-0.022-1.673-0.073h-0.815v-11.637h1.302zM1.353 20.81c0.281 0.021 0.609 0.033 0.94 0.033 0.247 0 0.493-0.007 0.737-0.020l-0.034 0.001c0.581-0.060 1.111-0.23 1.585-0.491l-0.022 0.011c0.666-0.399 1.199-0.959 1.553-1.628l0.011-0.022c0.458-0.902 0.698-2.095 0.698-3.564 0-1.040-0.131-1.935-0.378-2.691-0.185-0.653-0.483-1.221-0.873-1.712l0.008 0.010c-0.313-0.364-0.698-0.655-1.149-0.866-0.512-0.281-1.122-0.446-1.771-0.446-0.094 0-0.186 0.003-0.278 0.010l0.012-0.001c-0.364 0-0.706 0.022-1.040 0.058v11.31zM43.798 20.948h-0.218v-11.659h0.56l6.764 10.771v-10.764h0.218v11.651h-1.193l-6.131-9.659v9.659zM61.145 9.289h0.211v6.662c0 1.746-0.342 3.026-1.011 3.847-0.603 0.744-1.518 1.216-2.542 1.216-0.032 0-0.064-0-0.095-0.001l0.005 0c-0.042 0.001-0.091 0.001-0.14 0.001-0.569 0-1.123-0.067-1.654-0.193l0.048 0.010c-0.521-0.154-0.973-0.401-1.358-0.725l0.006 0.005c-0.865-0.684-1.302-2.073-1.302-4.16v-6.662h1.353v6.648c0 2.015 0.298 3.367 0.895 4.044 0.305 0.335 0.618 0.56 0.946 0.684 0.335 0.124 0.735 0.182 1.207 0.182 1.040 0 1.869-0.385 2.487-1.164 0.626-0.793 0.946-2.036 0.946-3.746v-6.648zM66.905 20.948h-1.353v-11.491h-2.815v-0.167h6.997v0.167h-2.822v11.491z"></path>
</symbol>
<symbol id="people-desktop-icon" viewBox="0 0 32 32">
<path fill="#674d40" style="fill: var(--color3, #674d40)" d="M11.897 0c-3.317 0-5.98 3.073-5.98 6.864 0 3.778 2.689 6.851 5.98 6.851s5.98-3.073 5.98-6.851c0-3.791-2.689-6.864-5.98-6.864zM11.897 12.563c-2.753 0-4.994-2.561-4.994-5.711s2.254-5.711 5.007-5.711 4.982 2.561 4.982 5.711-2.241 5.711-4.994 5.711zM24.139 2.843c-2.472 0-4.482 2.305-4.482 5.148s2.011 5.148 4.482 5.148 4.482-2.305 4.482-5.148c0-2.843-2.011-5.148-4.482-5.148zM24.139 12.012c-1.921 0-3.496-1.793-3.496-4.008s1.562-4.008 3.496-4.008c1.921 0 3.483 1.793 3.483 4.008 0 2.203-1.562 4.008-3.483 4.008z"></path>
<path fill="#674d40" style="fill: var(--color3, #674d40)" d="M32.169 20.694c-0.356-3.158-2.288-5.796-4.98-7.135l-0.053-0.024s-1.281 1.114-2.997 1.076c-1.882-0.038-2.997-1.076-2.997-1.076s-1.396 0.602-2.523 1.844c-0.807-0.742-1.725-1.382-2.722-1.889l-0.069-0.032s-1.601 1.409-3.944 1.383c-0.004 0-0.010 0-0.015 0-1.489 0-2.856-0.522-3.928-1.392l0.012 0.009s-5.302 2.087-6.403 9.182c0 0-1.204 3.752 1.562 9.374h17.57s1.242-2.484 1.46-4.008h8.734c2.151-3.727 1.281-7.312 1.281-7.312zM20.054 30.875h-16.328c-2.126-4.649-1.204-8.042-1.204-8.042 0.431-3.474 2.459-6.399 5.314-8.053l0.052-0.028c1.123 0.772 2.512 1.233 4.008 1.233s2.885-0.461 4.032-1.248l-0.024 0.016c2.904 1.679 4.93 4.598 5.36 8.015l0.005 0.053s0.884 4.188-1.217 8.055zM30.299 26.867h-7.952c0.307-2.023-0.102-4.226-0.102-4.226-0.346-2.505-1.377-4.721-2.896-6.511l0.015 0.018c0.512-0.525 1.076-0.973 1.703-1.319 1.87 1.242 4.264 1.242 6.147 0 2.1 1.153 3.586 3.394 3.97 6.044 0 0 0.73 2.843-0.884 5.993z"></path>
</symbol>
<symbol id="people-mobile-icon" viewBox="0 0 32 32">
<path fill="#674d40" style="fill: var(--color3, #674d40)" d="M10.951 1.685c-3.41 0-6.175 2.765-6.175 6.175s2.765 6.175 6.175 6.175v0c3.41 0 6.175-2.765 6.175-6.175s-2.765-6.175-6.175-6.175v0zM10.951 12.973c-2.838 0-5.139-2.301-5.139-5.139s2.301-5.139 5.139-5.139v0c2.838 0 5.139 2.301 5.139 5.139s-2.301 5.139-5.139 5.139v0zM23.554 4.246c-2.559 0-4.633 2.074-4.633 4.633s2.074 4.633 4.633 4.633v0c2.559 0 4.633-2.074 4.633-4.633s-2.074-4.633-4.633-4.633v0zM23.554 12.468c-0.074 0.005-0.16 0.008-0.246 0.008-1.991 0-3.606-1.614-3.606-3.606s1.614-3.606 3.606-3.606c0.087 0 0.173 0.003 0.258 0.009l-0.011-0.001c1.882 0.133 3.359 1.692 3.359 3.597s-1.477 3.464-3.348 3.596l-0.011 0.001z"></path>
<path fill="#674d40" style="fill: var(--color3, #674d40)" d="M31.843 20.268c-0.487-2.945-2.473-5.334-5.133-6.383l-0.056-0.020s-1.314 0.977-3.1 0.944c-0.004 0-0.008 0-0.012 0-1.149 0-2.214-0.359-3.089-0.972l0.017 0.012s-1.432 0.539-2.595 1.651c-1.061-0.944-2.864-1.719-2.864-1.719s-1.685 1.264-4.077 1.23c-2.527 0-4.044-1.23-4.044-1.23s-5.493 1.87-6.638 8.256c0 0-1.247 3.37 1.617 8.424h18.112s1.28-2.241 1.516-3.606h8.997c2.207-3.37 1.331-6.571 1.331-6.571zM19.359 29.417h-16.831c-2.19-4.178-1.247-7.228-1.247-7.228 0.558-3.234 2.641-5.884 5.467-7.219l0.059-0.025c1.186 0.698 2.613 1.111 4.136 1.111s2.95-0.413 4.175-1.132l-0.039 0.021c2.885 1.361 4.968 4.011 5.518 7.187l0.008 0.058s0.91 3.757-1.247 7.245zM29.906 25.828h-8.171c0.32-1.82-0.101-3.808-0.101-3.808-0.389-2.295-1.455-4.292-2.983-5.83l0.001 0.001c0.522-0.472 1.112-0.876 1.752-1.179 1.938 1.112 4.397 1.112 6.335 0 2.14 1.033 3.681 3.013 4.088 5.382l0.006 0.044s0.758 2.561-0.91 5.391z"></path>
</symbol>
<symbol id="people-tablet-icon" viewBox="0 0 32 32">
<path fill="#674d40" style="fill: var(--color3, #674d40)" d="M10.608 0c-3.292 0-5.975 3.079-5.975 6.859s2.683 6.859 5.975 6.859 5.975-3.079 5.975-6.859-2.683-6.859-5.975-6.859zM10.608 12.559c-2.743 0-4.984-2.561-4.984-5.716 0.015-3.14 2.24-5.7 4.984-5.7s4.984 2.561 4.984 5.7c0 3.155-2.241 5.716-4.984 5.716zM22.862 2.85c-2.484 0-4.496 2.301-4.496 5.136 0 2.85 2.012 5.152 4.481 5.152 2.484 0 4.496-2.301 4.496-5.152 0-2.835-2.012-5.136-4.496-5.136zM22.862 11.995c-1.936 0-3.506-1.783-3.506-3.993s1.57-4.008 3.506-4.008c1.92 0 3.475 1.798 3.475 4.008s-1.555 4.008-3.475 4.008z"></path>
<path fill="#674d40" style="fill: var(--color3, #674d40)" d="M30.879 20.683c-0.359-3.153-2.289-5.786-4.977-7.125l-0.053-0.024s-1.28 1.113-3.003 1.067c-1.875-0.030-2.987-1.067-2.987-1.067s-1.402 0.61-2.515 1.829c-1.052-1.052-2.804-1.905-2.804-1.905s-1.6 1.402-3.932 1.372c-0.009 0-0.020 0-0.031 0-1.482 0-2.843-0.517-3.913-1.381l0.012 0.009s-5.304 2.088-6.417 9.175c0 0-1.204 3.765 1.57 9.373h17.558s1.25-2.484 1.478-4.008h8.733c2.134-3.719 1.28-7.316 1.28-7.316zM18.777 30.864h-16.339c-2.134-4.649-1.219-8.047-1.219-8.047 0.431-3.473 2.458-6.397 5.313-8.050l0.052-0.028c1.125 0.775 2.516 1.238 4.016 1.238s2.892-0.463 4.040-1.254l-0.024 0.016c2.9 1.684 4.922 4.607 5.344 8.026l0.005 0.052s0.884 4.191-1.219 8.047zM29.005 26.855h-7.941c0.305-2.012-0.107-4.222-0.107-4.222-0.35-2.506-1.386-4.723-2.911-6.511l0.015 0.018c0.494-0.511 1.061-0.947 1.686-1.292l0.037-0.019c1.875 1.219 4.268 1.219 6.142 0 2.147 1.272 3.641 3.451 3.959 5.996l0.004 0.040s0.732 2.835-0.884 5.99z"></path>
</symbol>
<symbol id="phone-icon" viewBox="0 0 32 32">
<path d="M29.445 20.484c-1.97 0-3.89-0.32-5.712-0.886-0.886-0.295-1.994-0.025-2.536 0.492l-3.595 2.684c-3.893-1.895-6.992-4.913-8.935-8.632l-0.052-0.108 2.708-3.398c0.461-0.448 0.747-1.074 0.747-1.766 0-0.284-0.048-0.557-0.137-0.811l0.005 0.017c-0.577-1.654-0.911-3.561-0.911-5.545 0-0.007 0-0.013 0-0.020v0.001c-0.025-1.379-1.157-2.511-2.585-2.511h-5.884c-1.403 0-2.56 1.133-2.56 2.511 0 15.806 13.196 28.682 29.445 28.682 1.403 0 2.56-1.133 2.56-2.511v-5.712c0-1.379-1.157-2.487-2.56-2.487z"></path>
</symbol>
<symbol id="twitter-icon" viewBox="0 0 32 32">
<path d="M32.009 5.442c-1.2 0.6-2.461 0.98-3.781 1.16 1.39-0.962 2.413-2.368 2.869-4.011l0.012-0.051c-1.26 0.86-2.661 1.44-4.161 1.78-1.145-1.402-2.867-2.297-4.797-2.321l-0.004-0c-3.581 0-6.542 3.301-6.542 7.342 0 0.58 0.040 1.14 0.16 1.66-5.623-0.387-10.493-3.302-13.526-7.605l-0.038-0.057c-0.567 1.075-0.9 2.349-0.9 3.701v0c0 2.541 1.18 4.801 2.921 6.102-1.102-0.037-2.119-0.367-2.985-0.915l0.025 0.014v0.080c0 3.561 2.281 6.522 5.262 7.202-0.512 0.161-1.101 0.254-1.712 0.254-0.442 0-0.874-0.049-1.288-0.141l0.039 0.007c0.84 2.901 3.261 5.041 6.122 5.101-2.172 1.953-5.059 3.147-8.226 3.147-0.513 0-1.020-0.031-1.516-0.092l0.060 0.006c2.783 2.049 6.279 3.28 10.063 3.281h0c12.084 0 18.685-11.183 18.685-20.866l-0.020-0.96c1.306-1.064 2.398-2.329 3.245-3.756l0.036-0.065z"></path>
</symbol>
</defs>
</svg>
