<svg width="1280" height="1036" fill="none" xmlns="http://www.w3.org/2000/svg"><path d="M51.5 985c0 23-31.67 51.44-51.5 50.5V0h1280v337.5c.5 201.5 0 590 0 626.5 0 22.88-34.91 13.24-63.23-23.57-28.33-36.81 24.07-154.33 28.32-188.31 4.25-33.98-8.5-104.77-140.2-191.14-131.71-86.37-324.31-9.91-426.28 41.06-101.97 50.97-188.64-19.82-327.43-62.3-138.79-42.48-189.77 25.49-208.18 62.3-18.41 36.81-18.13 135.92-57.78 150.08C45.57 766.28 30 804.51 39.9 859.72c9.92 55.22 11.6 95.55 11.6 125.28Z" fill="#FEF3E4"/></svg>