<svg aria-hidden="true" style="width:0;height:0;position:absolute;overflow:hidden" xmlns="http://www.w3.org/2000/svg"><defs><symbol id="star-icon" viewBox="0 0 34 32"><path stroke="#ab816c" style="stroke:var(--color1,#ab816c)" stroke-width="1.684" d="M16.043 1.817a.842.842 0 0 1 1.616-.006l.002.006 2.545 7.887a2.54 2.54 0 0 0 2.41 1.736h8.291a.843.843 0 0 1 .491 1.515l-.002.002-6.707 4.887a2.526 2.526 0 0 0-.905 2.832l-.005-.018 2.561 7.887a.843.843 0 0 1-1.301.926l.002.002-6.707-4.853c-.411-.3-.926-.481-1.483-.481s-1.072.18-1.49.486l.007-.005-6.707 4.853a.843.843 0 0 1-1.296-.934l-.002.006 2.561-7.887a2.523 2.523 0 0 0-.903-2.826l-.007-.005-6.707-4.853a.843.843 0 0 1 .506-1.517h8.278a2.53 2.53 0 0 0 2.401-1.735l.005-.018 2.545-7.887z"/></symbol><symbol id="burger-menu-icon" viewBox="0 0 60 32"><path d="M2.001-.002h56.022a2.001 2.001 0 0 1 0 4.002H2.001a2.001 2.001 0 0 1 0-4.002zM2.001 14.004h56.022a2.001 2.001 0 0 1 0 4.002H2.001a2.001 2.001 0 0 1 0-4.002zM2.001 28.009h56.022a2.001 2.001 0 0 1 0 4.002H2.001a2.001 2.001 0 0 1 0-4.002z"/></symbol><symbol id="chat-icon" viewBox="0 0 32 32"><path fill="#674d40" style="fill:var(--color3,#674d40)" d="M24.626 14.945c0-6.71-6.147-11.103-12.306-11.103C6.135 3.842.001 8.26.001 14.945c0 2.536.96 4.994 2.715 6.966.077.077.102.192.077.295a17.057 17.057 0 0 1-2.444 5.255l.037-.056a.889.889 0 0 0-.075.864l-.002-.006c.128.256.359.435.627.435h.013c2.625-.077 5.66-.922 7.53-3.048a.257.257 0 0 1 .258-.076h-.002c1.153.32 2.356.474 3.573.474 6.172 0 12.307-4.418 12.307-11.103zM8.964 24.536a1.1 1.1 0 0 0-1.126.344l-.001.001c-1.87 2.126-4.943 2.6-6.403 2.715.679-1.05 1.754-2.984 2.254-5.11.128-.474 0-.999-.32-1.345a9.167 9.167 0 0 1-2.433-6.196v-.002c0-5.532 5.11-10.027 11.384-10.027s11.372 4.495 11.372 10.027S18.594 24.97 12.319 24.97c-1.153 0-2.267-.141-3.355-.435z"/><path fill="#674d40" style="fill:var(--color3,#674d40)" d="M27.648 23.883c2.582-1.43 4.314-4.118 4.367-7.215v-.007c0-4.162-3.278-7.709-7.786-8.452-.256-.038-.499.166-.525.461-.038.295.128.563.384.615 4.059.653 6.992 3.765 6.992 7.376a7.303 7.303 0 0 1-3.816 6.256l-.038.019a1.408 1.408 0 0 0-.613 1.457l-.001-.009c.23 1.242.717 2.382 1.114 3.15-2.779-.525-3.829-2.049-4.162-2.715a1.142 1.142 0 0 0-.997-.653h-.04a8.76 8.76 0 0 1-1.537-.128c-.256-.038-.512.166-.538.461-.038.295.141.563.397.602.551.09 1.114.128 1.678.128h.038c.077 0 .154.051.192.128 1.281 2.536 4.188 3.176 5.378 3.33.269.038.512-.102.666-.359a.95.95 0 0 0 0-.832 11.284 11.284 0 0 1-1.266-3.253l-.014-.077a.258.258 0 0 1 .127-.281l.001-.001zM5.02 13.024c-.896 0-1.626.832-1.626 1.857s.73 1.87 1.626 1.87c.896 0 1.626-.832 1.626-1.87 0-1.024-.73-1.857-1.626-1.857zm0 2.65c-.384 0-.692-.359-.692-.794 0-.423.307-.781.692-.781s.692.359.692.781c0 .435-.32.794-.692.794zm4.636-2.65c-.896 0-1.626.832-1.626 1.857s.73 1.87 1.626 1.87c.896 0 1.626-.832 1.626-1.87 0-1.024-.73-1.857-1.626-1.857zm0 2.65c-.384 0-.692-.359-.692-.794 0-.423.307-.781.692-.781s.692.359.692.781c0 .435-.307.794-.692.794zm4.635-2.65c-.896 0-1.626.832-1.626 1.857s.73 1.87 1.626 1.87c.896 0 1.626-.832 1.626-1.87 0-1.024-.73-1.857-1.626-1.857zm0 2.65c-.384 0-.692-.359-.692-.794 0-.423.307-.781.692-.781s.692.359.692.781c0 .435-.307.794-.692.794zm4.636-2.65c-.896 0-1.626.832-1.626 1.857s.73 1.87 1.626 1.87c.896 0 1.626-.832 1.626-1.87 0-1.024-.73-1.857-1.626-1.857zm0 2.65c-.384 0-.692-.359-.692-.794 0-.423.32-.781.692-.781.384 0 .692.359.692.781 0 .435-.307.794-.692.794z"/></symbol><symbol id="chef-hat-icon" viewBox="0 0 32 32"><path fill="#674d40" style="fill:var(--color3,#674d40)" d="M23.051 8.58a.41.41 0 0 1-.294-.153l-.001-.001a.537.537 0 0 1-.128-.346 7.744 7.744 0 0 0-1.891-5.017l.008.01A5.898 5.898 0 0 0 16.331.998h-.004c-1.639 0-3.227.743-4.405 2.075a7.731 7.731 0 0 0-1.882 4.99v.004a.547.547 0 0 1-.128.346.41.41 0 0 1-.307.154h-.001a.412.412 0 0 1-.307-.153l-.001-.001a.537.537 0 0 1-.128-.346 8.803 8.803 0 0 1 2.148-5.736l-.009.011a6.7 6.7 0 0 1 5.016-2.343h.004c1.882 0 3.688.845 5.02 2.356a8.795 8.795 0 0 1 2.139 5.722v.002a.483.483 0 0 1-.128.346.41.41 0 0 1-.293.154h-.001z"/><path fill="#674d40" style="fill:var(--color3,#674d40)" d="M24.318 19.747a.396.396 0 0 1-.307-.153l-.001-.001a.521.521 0 0 1-.128-.344v-.002c0-.128.038-.256.128-.346a.41.41 0 0 1 .293-.154h.001c1.639 0 3.201-.756 4.367-2.075a7.681 7.681 0 0 0 1.848-5.012 7.69 7.69 0 0 0-1.869-5.037l.008.01a5.842 5.842 0 0 0-4.435-2.034c-.668 0-1.309.112-1.907.318l.041-.012a.386.386 0 0 1-.321-.052l.001.001a.49.49 0 0 1-.217-.278l-.001-.003a.556.556 0 0 1 .039-.387l-.001.003a.45.45 0 0 1 .253-.23l.003-.001a6.518 6.518 0 0 1 2.102-.341c2.019 0 3.828.898 5.049 2.317l.007.009a8.741 8.741 0 0 1 2.116 5.719 8.75 8.75 0 0 1-2.114 5.716l.01-.012a6.676 6.676 0 0 1-4.961 2.382h-.008zm-15.969 0a6.675 6.675 0 0 1-4.961-2.372l-.008-.01a8.755 8.755 0 0 1-2.1-5.704c0-2.189.799-4.191 2.122-5.731l-.01.012a6.652 6.652 0 0 1 5.059-2.329c.756 0 1.482.126 2.159.358l-.047-.014a.49.49 0 0 1 .255.24l.001.003a.543.543 0 0 1-.053.539l.001-.002a.462.462 0 0 1-.126.127l-.002.001a.377.377 0 0 1-.336.038l.003.001a5.724 5.724 0 0 0-1.857-.302c-1.774 0-3.364.79-4.437 2.036l-.006.008a7.682 7.682 0 0 0-1.862 5.029c0 1.912.695 3.661 1.845 5.009l-.009-.011a5.87 5.87 0 0 0 4.36 2.087h.007c.061 0 .118.014.169.039l-.002-.001a.273.273 0 0 1 .141.102.548.548 0 0 1-.001.693l.001-.001a.446.446 0 0 1-.138.114l-.002.001a.379.379 0 0 1-.166.038z"/><path fill="#674d40" style="fill:var(--color3,#674d40)" d="M24.318 32.015H8.349a.412.412 0 0 1-.307-.14.532.532 0 0 1-.128-.348v-.011.001-12.268c0-.128.051-.256.128-.346a.41.41 0 0 1 .307-.141c.115 0 .23.051.307.128.077.102.128.23.128.359V31.03h15.098V19.249c0-.128.051-.256.128-.346a.41.41 0 0 1 .307-.141c.102 0 .218.051.295.128.09.102.128.23.128.359v12.268a.537.537 0 0 1-.128.359.411.411 0 0 1-.28.141h-.001z"/><path fill="#674d40" style="fill:var(--color3,#674d40)" d="M24.075 27.878H8.119a.413.413 0 0 1-.307-.14.537.537 0 0 1-.128-.346c0-.128.051-.256.128-.359a.41.41 0 0 1 .307-.141h15.956c.115 0 .23.051.307.141a.547.547 0 0 1 0 .705.41.41 0 0 1-.307.141z"/></symbol><symbol id="clock-icon" viewBox="0 0 32 32"><path fill="#674d40" style="fill:var(--color3,#674d40)" d="M16.007 0C7.171 0 0 7.171 0 16.007s7.171 16.007 16.007 16.007 16.007-7.171 16.007-16.007S24.843 0 16.007 0zm0 30.952C7.756 30.945 1.07 24.258 1.062 16.008v-.001C1.477 8.079 8.006 1.807 16 1.807S30.524 8.078 30.937 15.97l.002.037c0 8.234-6.697 14.945-14.932 14.945z"/><path fill="#674d40" style="fill:var(--color3,#674d40)" d="M16.545 13.882V8.478a.538.538 0 0 0-1.076 0v5.404a2.129 2.129 0 0 0-1.524 1.537h-3.803a.54.54 0 0 0-.621.532.538.538 0 0 0 .624.531h-.003 3.803a2.139 2.139 0 1 0 2.615-2.596l-.015-.003zm-.538 3.124a1.069 1.069 0 1 1 0-2.138 1.069 1.069 0 1 1 0 2.138zm0-11.73a.54.54 0 0 0 .538-.538V4.2a.538.538 0 0 0-1.076 0v.538a.54.54 0 0 0 .538.538zm0 21.335a.538.538 0 0 0-.538.538v.538a.538.538 0 0 0 1.076 0v-.538a.538.538 0 0 0-.538-.538zM27.75 15.406h-.538a.538.538 0 0 0 0 1.076h.538a.538.538 0 0 0 0-1.076zm-22.948 0h-.538a.538.538 0 0 0 0 1.076h.538a.538.538 0 0 0 0-1.076zm19.132-8.145-.384.384a.539.539 0 1 0 .768.756l.371-.384a.539.539 0 1 0-.768-.756zM7.709 23.486l-.384.384a.539.539 0 1 0 .768.756l.371-.384a.539.539 0 1 0-.768-.756zm16.597 0a.539.539 0 1 0-.756.768l.384.371a.534.534 0 0 0 .756 0 .535.535 0 0 0 0-.768l-.384-.371zM8.081 7.261a.539.539 0 1 0-.756.768l.384.371a.536.536 0 0 0 .756 0 .535.535 0 0 0 0-.768l-.384-.371z"/></symbol><symbol id="close-icon" viewBox="0 0 32 32"><path d="M30.351 32.004a1.654 1.654 0 0 0 1.156-2.809L2.828.48A1.654 1.654 0 1 0 .512 2.807l.004.003 28.697 28.715c.32.32.747.48 1.156.48z"/><path d="M1.654 32.004c.409 0 .836-.16 1.156-.48L31.525 2.809A1.654 1.654 0 0 0 29.192.5l.003-.003L.48 29.176a1.654 1.654 0 0 0 1.165 2.828h.009z"/></symbol><symbol id="facebook-icon" viewBox="0 0 32 32"><path d="M22.527 0h-3.621c-4.061 0-6.702 3.101-6.702 7.882v3.621H8.563c-.3 0-.56.3-.56.66v5.262c0 .36.26.66.56.66h3.641v13.264c0 .36.26.66.58.66h4.741c.32 0 .56-.3.56-.66V18.085h4.261c.32 0 .56-.3.56-.66v-5.276a.7.7 0 0 0-.161-.447l.001.001a.538.538 0 0 0-.399-.2H18.085V8.422c0-1.48.32-2.221 2.001-2.221h2.441c.3 0 .56-.3.56-.66V.66c0-.36-.26-.66-.56-.66z"/></symbol><symbol id="instagram-icon" viewBox="0 0 32 32"><path d="M16.325 32.009h-.32c-2.521 0-4.821-.06-7.082-.2a9.434 9.434 0 0 1-5.48-2.075l.018.014a8.772 8.772 0 0 1-2.929-4.702l-.012-.06c-.44-1.701-.46-3.381-.48-4.981a345.327 345.327 0 0 1 .002-8.154l-.002.211c0-1.64.04-3.321.48-5.021.5-1.981 1.5-3.581 2.941-4.761C4.961 1.04 6.862.319 8.923.199c2.261-.14 4.561-.2 7.082-.2s4.821.06 7.082.2c2.061.12 3.961.84 5.462 2.061 1.44 1.2 2.441 2.781 2.941 4.761.44 1.7.46 3.401.48 5.001l.04 3.981-.04 3.961c0 1.64-.04 3.321-.48 5.021a8.793 8.793 0 0 1-2.927 4.75l-.014.011c-1.5 1.22-3.401 1.941-5.462 2.061-2.161.14-4.381.2-6.762.2zm-.32-2.5c2.461 0 4.741-.06 6.942-.2a6.325 6.325 0 0 0 6.114-4.899l.008-.043c.36-1.4.4-2.941.4-4.441a378.824 378.824 0 0 0-.002-8.052l.002.21a19.212 19.212 0 0 0-.423-4.587l.023.126a6.343 6.343 0 0 0-2.091-3.413l-.01-.008a6.836 6.836 0 0 0-4.007-1.5h-.014c-2.201-.14-4.481-.2-6.942-.2s-4.741.06-6.942.2a6.325 6.325 0 0 0-6.114 4.899l-.008.043c-.36 1.4-.4 2.941-.4 4.441a336.722 336.722 0 0 0 .002 8.052l-.002-.209c0 1.5.04 3.021.4 4.461s1.08 2.601 2.101 3.421c1.12.9 2.461 1.4 4.021 1.5 2.201.14 4.481.2 6.942.2zm-.06-5.682a7.832 7.832 0 1 1 0-15.664 7.832 7.832 0 1 1 0 15.664zm0-13.144a5.322 5.322 0 0 0 0 10.644 5.322 5.322 0 0 0 0-10.644zm8.682-5.001a1.88 1.88 0 1 0 0 3.762 1.88 1.88 0 1 0 0-3.762z"/></symbol><symbol id="location-icon" viewBox="0 0 23 32"><path d="M11.738 0C18.207 0 23.48 5.124 23.48 11.444a11.1 11.1 0 0 1-2.348 6.853l-8.668 11.401-.085.064c-.427.427-1.067.342-1.366-.064-2.477-3.245-7.067-9.33-8.839-11.614a11.086 11.086 0 0 1-2.178-6.625v-.038.002C.104 5.091 5.262 0 11.609 0l.137.001h-.007zm0 17.614c3.48 0 6.341-2.775 6.341-6.17 0-3.416-2.861-6.191-6.341-6.191h-.065a6.277 6.277 0 0 0-6.276 6.187v.005c0 3.416 2.861 6.191 6.341 6.191z"/></symbol><symbol id="logo-icon" viewBox="0 0 72 32"><path d="M42.453 16.002c0 .26-.008.52 0 .779.087 2.654-.742 5.045-2.071 7.296-.444.753-.87 1.525-1.254 2.315a2.599 2.599 0 0 1-1.424 1.364l-.018.006c-.384.147-.738.403-1.058.666a15.547 15.547 0 0 1-4.833 2.674l-.11.033c-1.19.407-2.413.768-3.705.753-.388-.008-.772.113-1.16.113-.384 0-.772-.124-1.152-.109-1.668.075-3.212-.441-4.744-.979-1.672-.584-3.148-1.514-4.537-2.617-1.962-1.559-3.358-3.52-4.386-5.764-.553-1.212-1.005-2.462-1.129-3.803-.023-.226-.098-.448-.162-.663-.467-1.506-.2-2.986.09-4.488.211-1.281.516-2.416.919-3.503l-.042.13c1.141-2.902 3.012-5.309 5.39-7.07l.043-.031A15.525 15.525 0 0 1 23.967.217l.089-.012C24.819.075 25.698 0 26.594 0c2.148 0 4.197.428 6.064 1.203l-.105-.039c1.374.55 2.669 1.242 3.803 2.161a24.633 24.633 0 0 1 2.879 2.851l.028.033c.817.926 1.393 2.033 1.913 3.163.806 1.758 1.333 3.584 1.28 5.542-.011.365-.004.723-.004 1.081zm-1.118-3.577c-.075-.614-.128-1.325-.279-2.018-.429-1.995-1.581-3.547-3.125-4.819-.87-.723-1.822-1.348-2.76-1.988a2.85 2.85 0 0 0-1.039-.478l-.019-.004a21.003 21.003 0 0 0-2.817-.384l-.071-.004c-1.679-.087-3.185-.52-4.454-1.683-.93-.858-1.946-.941-2.918-.188-1.096.855-2.349 1.355-3.622 1.856-.934.365-1.834.821-2.733 1.276-.749.377-1.186.971-1.175 1.867v.036c0 .5-.277.936-.686 1.161l-.007.003c-.388.233-.761.489-1.114.772-.994.783-1.77 1.664-1.935 3.027-.132 1.081-.459 2.146-1.201 3.038a2.023 2.023 0 0 0-.44 1.06l-.001.009c-.068.809-.038 1.626-.019 2.436.004.218.098.452.211.64.293.52.569.95.864 1.365l-.032-.047c.727 1.013 1.359 2.048 1.506 3.332.143 1.242.742 2.255 1.758 3.027 1.476 1.122 2.895 2.312 4.39 3.404.802.587 1.664 1.103 2.722 1.224 1.058.117 2.097.407 3.05.941.2.105.414.173.64.196 1.34.143 2.583-.188 3.761-.817.369-.196.749-.377 1.129-.546.919-.41 1.939-.678 2.741-1.254.892-.64 1.845-.922 2.869-1.099a1.795 1.795 0 0 0 1.09-.589l.002-.002c.343-.388.659-.802 1.017-1.178.371-.349.625-.817.703-1.343l.002-.012a5.48 5.48 0 0 1 .934-2.337l-.012.017a10.167 10.167 0 0 0 1.45-3.934l.007-.056c.06-.377.094-.693-.09-1.024-.538-.953-.32-2.033-.489-3.05-.087-.55.113-1.148.196-1.83zm-6.464-9.51c-.226-.252-.301-.365-.403-.437-.184-.128-.388-.23-.584-.343-1.687-.949-3.535-1.412-5.422-1.743-.38-.068-.779-.038-1.167-.023-.102.004-.222.102-.286.188-.026.041.038.181.094.249.414.491.949.867 1.56 1.084l.025.008c.984.366 2.121.593 3.306.625h.014c.478.011.956.102 1.431.169.414.056.817.124 1.431.222zM20.534 30.286c-1.129-.922-2.127-1.751-3.136-2.556-.836-.666-1.69-1.31-2.545-1.95-.098-.075-.248-.072-.459-.124 1.032 1.728 4.473 4.352 6.137 4.631zM12.902 8.702c.685-.523 1.318-1.073 2.01-1.525.971-.633 1.344-1.423 1.114-2.775-.689.565-1.182 1.242-1.713 1.864-.565.651-.979 1.423-1.45 2.154-.038.06.023.177.038.282zm23.034 19.721c-.64-.041-1.28.068-1.679.414-.757.651-1.66.979-2.579 1.306-.482.169-.937.422-1.393.659-.06.034-.072.211-.056.313 0 .038.173.094.241.072.828-.282 1.679-.508 2.459-.885.956-.459 1.856-1.039 2.771-1.581.098-.053.147-.177.237-.297zm-24.34-9.036c-.181.538-.147.836-.03 1.152.32.885.512 1.815 1.088 2.587.215.286.256.926.651.791.346-.124-.06-.629-.083-.971-.09-1.303-.776-2.353-1.626-3.562zm6.182-16.25.083.132c.478-.177.956-.346 1.431-.535 1.02-.41 2.044-.828 3.061-1.254.216-.102.401-.224.568-.368l-.003.003c.053-.038.045-.177.026-.26-.008-.038-.102-.075-.158-.079-.098 0-.188.019-.282.045a17.921 17.921 0 0 0-4.023 1.729l.085-.046c-.29.162-.527.422-.791.632zm24.295 14.006c.083-.094.151-.136.151-.181.139-1.419-.011-2.827-.207-4.232-.011-.075-.109-.173-.173-.181-.075-.011-.188.049-.233.113a.737.737 0 0 0-.132.354c-.075 1.16 0 2.323.226 3.464.045.226.233.429.369.666zm-30.812-3.916c.542-.207.621-.58.678-.919.143-.821.497-1.608.377-2.477-.565 1.035-1.062 2.086-1.054 3.392zm13.068 18.008c-1.209-.538-1.54-.591-2.617-.444.459.173.866.452 1.28.452.433.008.9.535 1.337-.008z"/><path d="m26.825 20.595-.051.001c-.753 0-1.411-.41-1.762-1.019l-.005-.01c-.392-.625-1.043-.949-1.642-1.333-.753-.486-1.363-1.032-1.54-2.014-.12-.663.023-1.242.29-1.77a3.018 3.018 0 0 1 1.045-1.1l.013-.007c.463-.282.843-.55 1.054-1.073.245-.602.851-.64 1.389-.745.508-.102 1.02-.169 1.521-.297.681-.173 1.303-.12 1.8.414.377.388.82.709 1.313.944l.028.012c.523.264.693.565.527 1.107-.109.369 0 .621.136.915.151.32.305.648.41.986.343 1.129-.053 2.078-1.111 2.579-.655.313-1.16.727-1.322 1.457a.684.684 0 0 1-.504.534l-.005.001c-.527.154-1.054.282-1.585.418zm3.475-4.728c.015-1.988-1.491-3.577-3.452-3.577-1.758 0-3.528 1.186-3.596 3.464v.045a3.487 3.487 0 0 0 3.447 3.486h.002c2.41.015 3.55-1.66 3.599-3.419zm-7.07 1.901c0-.256.023-.388-.004-.505-.264-1.081-.429-2.146.162-3.189.038-.075-.056-.226-.09-.346-.113.038-.256.045-.343.117a2.438 2.438 0 0 0 .265 3.918l.01.006zm3.614-5.979c.414.151.64.256.889.32.896.237 1.66.666 2.195 1.453.105.151.241.384.441.207.109-.094.143-.38.083-.527-.083-.188-.271-.429-.452-.467-.497-.102-.764-.459-1.088-.772-.538-.52-1.145-.678-2.063-.215zm-.053 7.824-.011-.075c-.26 0-.52-.023-.776.008-.132.019-.248.128-.377.196.113.102.215.256.343.29.697.177 1.401.215 2.086-.056.117-.045.248-.105.32-.2.064-.079.087-.222.075-.331-.008-.038-.169-.098-.248-.087-.471.075-.941.166-1.408.252h-.004zm3.558-2.041c.482-.087.697-.361.727-.776a7.617 7.617 0 0 0-.015-1.058c-.008-.094-.139-.177-.211-.264-.109.102-.324.237-.305.301.196.606-.215 1.152-.196 1.796zm4.413 2.752c-.026.015-.139.109-.26.12-.109.015-.271-.023-.339-.102a17.166 17.166 0 0 1-.947-1.153l-.032-.044c-.083-.109-.113-.403-.072-.425.151-.083.448-.169.512-.098.388.425.73.896 1.081 1.355.034.045.023.124.056.346zM18.35 23.671c.181.015.535.026.881.083.087.015.2.184.2.286 0 .098-.098.271-.188.294-.666.166-1.337.207-1.928-.241a.299.299 0 0 1-.095-.22l.001-.03v.001c.011-.064.113-.158.188-.166.256-.019.512-.008.941-.008zM39.374 9.564l.256.139c-.075.128-.117.335-.226.373-.478.177-.979.32-1.48.422-.143.03-.354-.113-.489-.23-.151-.136-.06-.433.132-.463.572-.087 1.148-.151 1.807-.241zM22.3 26.544c.264.124.489.158.602.294.301.373.572.764.821 1.175.12.192.011.407-.192.459-.113.034-.313-.056-.395-.158a12.558 12.558 0 0 1-.877-1.189l-.03-.049c-.064-.102.038-.309.072-.531zm10.53-15.523c.015-.113 0-.245.049-.297.075-.064.226-.12.301-.083.102.049.169.181.237.286.196.29.388.584.572.881.083.136.196.279.203.422a.582.582 0 0 1-.173.399c-.056.049-.286.015-.343-.053-.373-.474-.817-.915-.851-1.555zm1.152-5.011c-.079.482-.113.836-.207 1.178a.957.957 0 0 1-.32.463c-.109.087-.294.075-.444.105-.011-.139-.053-.286-.03-.418.079-.414.184-.817.279-1.224.008-.03.004-.064.015-.098.075-.245.233-.429.489-.328.128.049.188.275.218.32zm-6.927 3.132c.226.026.52.041.798.113.094.019.233.192.218.264-.03.136-.139.309-.256.346a.939.939 0 0 1-.565 0 1.289 1.289 0 0 0-.95.003l.009-.003c-.211.09-.407 0-.463-.211-.075-.282.136-.418.373-.459.252-.038.516-.038.836-.053zm5.011 13.829c-.09.399-.162.749-.26 1.092-.019.068-.158.154-.218.139-.109-.023-.26-.109-.279-.196a1.274 1.274 0 0 1-.017-.584l-.001.008c.075-.35.151-.685.011-1.039-.068-.173-.049-.448.211-.444.139 0 .339.173.403.316.105.226.113.497.151.708zm-3.953-.102c-.053.094-.075.203-.147.252-.422.29-.847.584-1.291.84-.113.064-.313.023-.459-.019-.211-.064-.256-.343-.075-.456.482-.313.971-.621 1.476-.907.079-.049.241 0 .343.053.072.038.102.151.154.237zM22.725 4.158c.068.038.196.075.215.139.166.617.328 1.239.463 1.864.038.173-.192.271-.346.166-.489-.328-.791-1.536-.508-2.041.03-.053.102-.075.177-.128zm6.001 1.754c-.151-.098-.305-.147-.328-.23-.023-.094.053-.248.136-.324.358-.316.73-.617 1.118-.896.128-.09.399-.154.501-.083.237.166.113.399-.053.572-.222.23-.441.474-.697.663-.196.139-.448.2-.678.301zM19.491 9.18l-.354.335c-.102-.113-.252-.203-.297-.331a18.286 18.286 0 0 1-.412-1.389l-.037-.166c-.019-.075.041-.218.102-.245.098-.038.264-.056.335 0 .151.109.316.256.365.414.124.429.192.873.297 1.382zm-3.889 8.58c-.324.595-.572 1.205-1.178 1.532-.102.053-.328-.015-.437-.102-.188-.151 0-.271.09-.395.282-.392.546-.802.851-1.178.075-.098.275-.143.41-.132.09.011.166.166.264.275zm3.682.049c.169.098.294.128.316.192.038.105.056.271 0 .346-.094.117-.252.184-.392.264-.358.203-.708.418-1.077.595-.113.053-.32.038-.418-.038-.207-.147-.136-.38.03-.486.508-.316 1.043-.595 1.54-.873zm18.418-2.699c-.132.294-.316.738-.535 1.167-.034.064-.245.102-.335.06-.083-.038-.173-.203-.158-.294.09-.474.188-.953.331-1.412.045-.139.248-.264.407-.313.056-.019.211.2.282.331.038.075.008.188.008.459zM15.5 11.563c.576.516.508 1.22.572 1.867.011.12-.139.29-.256.377-.064.049-.32-.026-.324-.068a30.564 30.564 0 0 1-.209-1.83l-.01-.139c-.004-.056.132-.128.226-.207zm13.471 15.998c.098.026.192.06.286.094.346.162.693.316 1.032.493.162.087.32.188.437.324.132.151-.019.452-.203.41-.629-.136-1.242-.328-1.713-.794-.072-.072-.068-.245-.045-.361.011-.064.132-.109.207-.162zm-7.646-15.809c.038.105.151.264.109.369-.277.69-.514 1.209-.767 1.718l.063-.141c-.03.064-.162.12-.237.109-.068-.008-.162-.102-.181-.177-.132-.576.286-1.611.749-1.875.045-.026.124 0 .264 0zm17.966 8.791c-.075-.045-.226-.102-.301-.211-.034-.041.068-.237.154-.301.337-.252.726-.513 1.129-.755l.065-.036c.113-.064.339-.068.425.004.075.068.087.324.019.414-.346.482-.779.847-1.491.885zm-2.387 4.13c-.301-.03-.429-.038-.553-.06-.053-.015-.132-.075-.132-.113a.454.454 0 0 1 .068-.264.529.529 0 0 1 .241-.151c.459-.136.922-.275 1.386-.388.102-.023.316.045.331.102.03.136-.008.301-.06.441-.03.075-.143.136-.23.162-.399.109-.802.207-1.054.271zm-13.84-3.317c-.03.143-.083.452-.188.745-.026.072-.226.139-.32.113-.09-.026-.2-.177-.196-.271a19.98 19.98 0 0 1 .09-1.623c.011-.117.162-.222.248-.331.102.109.267.203.294.328.06.282.045.576.075 1.039zM44.603 4.425c0-1.148.275-2.018.828-2.609A2.818 2.818 0 0 1 47.597.92h-.005c.877 0 1.574.256 2.09.772.527.52.787 1.344.787 2.477s-.279 1.992-.836 2.571c-.553.576-1.295.866-2.221.866a2.82 2.82 0 0 1-1.972-.692l.003.003a2.4 2.4 0 0 1-.62-.973l-.005-.017a4.595 4.595 0 0 1-.219-1.417l.001-.093v.005zm2.959-3.411c-.64 0-1.16.282-1.57.851-.403.565-.602 1.397-.602 2.492s.188 1.898.572 2.402c.337.459.875.754 1.482.754l.057-.001h-.003c.64 0 1.167-.282 1.57-.851.41-.572.614-1.401.614-2.485 0-1.088-.196-1.886-.587-2.398a1.827 1.827 0 0 0-1.486-.765l-.049.001h.002zm4.545 6.555h-.791V.958h.791V4h3.072V.958h.787v6.611h-.787V4.094h-3.076v3.475zm7.895 0h-.124l.825-6.611h.313L63 7.069 64.98.958h.309l.828 6.611h-.791l-.651-5.29-1.713 5.29h-.595l-1.732-5.222-.633 5.222zM71.353.958c.12.117.181.271.181.463a1.3 1.3 0 0 1-.105.482l-1.694 3.426v2.24h-.783V5.536L67.054.962h.806l1.807 4.262 1.645-3.317c.072-.158.105-.324.105-.489 0-.173-.049-.305-.143-.399l.075-.056zm-70.02 8.35c.489-.023.968-.034 1.434-.034.478 0 .979.049 1.502.151.531.098 1.054.29 1.566.565.523.267.96.617 1.318 1.05.391.473.695 1.035.876 1.65l.008.033c.222.697.331 1.544.331 2.545s-.166 1.898-.501 2.699c-.32.787-.764 1.393-1.333 1.815-1.099.821-2.428 1.231-3.983 1.231-.546 0-1.118-.023-1.721-.068h-.832V9.308h1.333zm.052 11.506a13.714 13.714 0 0 0 1.718.013l-.035.001a4.291 4.291 0 0 0 1.623-.493l-.023.011a4.174 4.174 0 0 0 1.589-1.627l.011-.022c.478-.911.715-2.097.715-3.562 0-1.043-.124-1.943-.38-2.699a4.803 4.803 0 0 0-.892-1.703l.007.009a3.447 3.447 0 0 0-1.161-.857l-.022-.009a3.796 3.796 0 0 0-1.094-.38l-.024-.004a11.27 11.27 0 0 0-2.078.003l.045-.003v11.321zm43.485.132h-.215V9.294h.565l6.939 10.768V9.294h.215v11.652h-1.216l-6.287-9.657v9.657zM62.641 9.293h.218v6.66c0 1.739-.346 3.023-1.035 3.844a3.374 3.374 0 0 1-2.596 1.218l-.108-.002h.005c-.7 0-1.295-.06-1.785-.184a3.829 3.829 0 0 1-1.392-.721l.007.006c-.889-.689-1.333-2.074-1.333-4.16V9.29h1.386v6.645c0 2.022.301 3.37.915 4.047.26.294.584.526.951.675l.017.006c.346.12.753.184 1.235.184l.112.002c.983 0 1.86-.454 2.433-1.163l.005-.006c.648-.791.968-2.033.968-3.746V9.293zm5.903 11.653h-1.382V9.459h-2.884v-.166h7.168v.166h-2.899v11.487z"/></symbol><symbol id="people-icon" viewBox="0 0 32 32"><path fill="#674d40" style="fill:var(--color3,#674d40)" d="M11.897 0c-3.317 0-5.98 3.073-5.98 6.864 0 3.778 2.689 6.851 5.98 6.851s5.98-3.073 5.98-6.851c0-3.791-2.689-6.864-5.98-6.864zm0 12.563c-2.753 0-4.994-2.561-4.994-5.711s2.254-5.711 5.007-5.711 4.982 2.561 4.982 5.711-2.241 5.711-4.994 5.711zm12.242-9.72c-2.472 0-4.482 2.305-4.482 5.148s2.011 5.148 4.482 5.148 4.482-2.305 4.482-5.148c0-2.843-2.011-5.148-4.482-5.148zm0 9.169c-1.921 0-3.496-1.793-3.496-4.008s1.562-4.008 3.496-4.008c1.921 0 3.483 1.793 3.483 4.008 0 2.203-1.562 4.008-3.483 4.008z"/><path fill="#674d40" style="fill:var(--color3,#674d40)" d="M32.169 20.694a9.088 9.088 0 0 0-4.98-7.135l-.053-.024s-1.281 1.114-2.997 1.076c-1.882-.038-2.997-1.076-2.997-1.076s-1.396.602-2.523 1.844a12.197 12.197 0 0 0-2.722-1.889l-.069-.032s-1.601 1.409-3.944 1.383h-.015a6.212 6.212 0 0 1-3.928-1.392l.012.009S2.651 15.545 1.55 22.64c0 0-1.204 3.752 1.562 9.374h17.57s1.242-2.484 1.46-4.008h8.734c2.151-3.727 1.281-7.312 1.281-7.312zM20.054 30.875H3.726c-2.126-4.649-1.204-8.042-1.204-8.042a10.821 10.821 0 0 1 5.314-8.053l.052-.028c1.123.772 2.512 1.233 4.008 1.233s2.885-.461 4.032-1.248l-.024.016c2.904 1.679 4.93 4.598 5.36 8.015l.005.053s.884 4.188-1.217 8.055zm10.245-4.008h-7.952c.307-2.023-.102-4.226-.102-4.226a12.676 12.676 0 0 0-2.896-6.511l.015.018a7.337 7.337 0 0 1 1.703-1.319 5.536 5.536 0 0 0 6.147 0c2.1 1.153 3.586 3.394 3.97 6.044 0 0 .73 2.843-.884 5.993z"/></symbol><symbol id="phone-icon" viewBox="0 0 32 32"><path d="M29.445 20.484c-1.97 0-3.89-.32-5.712-.886-.886-.295-1.994-.025-2.536.492l-3.595 2.684c-3.893-1.895-6.992-4.913-8.935-8.632l-.052-.108 2.708-3.398a2.455 2.455 0 0 0 .61-2.577l.005.017c-.577-1.654-.911-3.561-.911-5.545v-.02.001A2.57 2.57 0 0 0 8.442.001H2.558c-1.403 0-2.56 1.133-2.56 2.511 0 15.806 13.196 28.682 29.445 28.682 1.403 0 2.56-1.133 2.56-2.511v-5.712c0-1.379-1.157-2.487-2.56-2.487z"/></symbol><symbol id="twitter-icon" viewBox="0 0 32 32"><path d="M32.009 5.442c-1.2.6-2.461.98-3.781 1.16a7.23 7.23 0 0 0 2.869-4.011l.012-.051c-1.26.86-2.661 1.44-4.161 1.78a6.278 6.278 0 0 0-4.797-2.321h-.004c-3.581 0-6.542 3.301-6.542 7.342 0 .58.04 1.14.16 1.66A18.014 18.014 0 0 1 2.239 3.396l-.038-.057a7.955 7.955 0 0 0-.9 3.701c0 2.541 1.18 4.801 2.921 6.102a5.928 5.928 0 0 1-2.985-.915l.025.014v.08c0 3.561 2.281 6.522 5.262 7.202a5.939 5.939 0 0 1-3 .113l.039.007c.84 2.901 3.261 5.041 6.122 5.101a12.268 12.268 0 0 1-8.226 3.147c-.513 0-1.02-.031-1.516-.092l.06.006a16.958 16.958 0 0 0 10.063 3.281c12.084 0 18.685-11.183 18.685-20.866l-.02-.96a14.157 14.157 0 0 0 3.245-3.756l.036-.065z"/></symbol></defs></svg>